SplineFontDB: 3.0
FontName: Kreon-Bold
FullName: Kreon Bold
FamilyName: Kreon
Weight: Bold
Copyright: Copyright (c) 2010 by Julia Petretta (www.juliapetretta.com), with Reserved Font Name "Kreon".
Version: 1.001
ItalicAngle: 0
UnderlinePosition: -50
UnderlineWidth: 50
Ascent: 800
Descent: 200
sfntRevision: 0x00010042
LayerCount: 2
Layer: 0 1 "Back"  1
Layer: 1 1 "Fore"  0
XUID: [1021 288 713564382 10492345]
FSType: 0
OS2Version: 3
OS2_WeightWidthSlopeOnly: 0
OS2_UseTypoMetrics: 1
CreationTime: 1295035140
ModificationTime: 1318900627
PfmFamily: 17
TTFWeight: 700
TTFWidth: 5
LineGap: 0
VLineGap: 0
Panose: 2 0 5 6 0 0 0 2 0 4
OS2TypoAscent: 174
OS2TypoAOffset: 1
OS2TypoDescent: -86
OS2TypoDOffset: 1
OS2TypoLinegap: 0
OS2WinAscent: 0
OS2WinAOffset: 1
OS2WinDescent: 0
OS2WinDOffset: 1
HheadAscent: 0
HheadAOffset: 1
HheadDescent: 0
HheadDOffset: 1
OS2SubXSize: 700
OS2SubYSize: 650
OS2SubXOff: 0
OS2SubYOff: 140
OS2SupXSize: 700
OS2SupYSize: 650
OS2SupXOff: 0
OS2SupYOff: 477
OS2StrikeYSize: 50
OS2StrikeYPos: 250
OS2Vendor: 'pyrs'
OS2CodePages: 00000111.40000000
OS2UnicodeRanges: 80000087.00000002.00000000.00000000
Lookup: 258 0 0 "'kern' Horizontal Kerning in Latin lookup 0"  {"'kern' Horizontal Kerning in Latin lookup 0 per glyph data 0"  "'kern' Horizontal Kerning in Latin lookup 0 kerning class 1"  } ['kern' ('latn' <'dflt' > ) ]
MarkAttachClasses: 1
DEI: 91125
KernClass2: 69+ 63 "'kern' Horizontal Kerning in Latin lookup 0 kerning class 1" 
 6 period
 5 comma
 20 hyphen endash emdash
 11 bracketleft
 8 asterisk
 20 quotedbl quotesingle
 10 exclamdown
 12 questiondown
 5 slash
 9 backslash
 9 parenleft
 9 braceleft
 13 guillemotleft
 10 registered
 14 guillemotright
 22 quotedblleft quoteleft
 24 quotedblright quoteright
 13 guilsinglleft
 14 guilsinglright
 27 quotesinglbase quotedblbase
 50 A Acircumflex Agrave Aacute Adieresis Atilde Aring
 1 B
 10 C Ccedilla
 5 D Eth
 43 E Egrave Eacute Ecircumflex Edieresis AE OE
 1 F
 3 H M

StartChar: e
Encoding: 101 101 4
Width: 454
Flags: HW
LayerCount: 2
Fore
SplineSet
156 198 m 1,0,1
 169.956521739 91 169.956521739 91 277 91 c 0,2,3
 323 91 323 91 351 108.5 c 128,-1,4
 379 126 379 126 397 143 c 1,5,-1
 420 56 l 1,6,7
 391.572519084 19.4503816794 391.572519084 19.4503816794 314.5 2 c 0,8,9
 288 -4 288 -4 251 -4 c 128,-1,10
 214 -4 214 -4 173.5 11 c 128,-1,11
 133 26 133 26 101 56 c 0,12,13
 30 122.5625 30 122.5625 30 239 c 0,14,15
 30 360.634920635 30 360.634920635 101.5 431 c 0,16,17
 162.467741935 491 162.467741935 491 253 491 c 0,18,19
 321.941176471 491 321.941176471 491 369.5 458 c 0,20,21
 424 420.183673469 424 420.183673469 424 354 c 0,22,23
 424 275.166666667 424 275.166666667 359 234 c 0,24,25
 300.578947368 197 300.578947368 197 207 197 c 2,26,-1
 180 197 l 2,27,28
 167 197 167 197 156 198 c 1,0,1
157 282 m 1,29,30
 162 281 162 281 172 281 c 2,31,-1
 190 281 l 2,32,33
 263.307692308 281 263.307692308 281 291 317 c 0,34,35
 301 330 301 330 301 351.5 c 128,-1,36
 301 373 301 373 288 384.5 c 128,-1,37
 275 396 275 396 256 396 c 128,-1,38
 237 396 237 396 220 387 c 128,-1,39
 203 378 203 378 189.5 362.5 c 0,40,41
 161.171735242 329.974955277 161.171735242 329.974955277 157 282 c 1,29,30
EndSplineSet
EndChar

StartChar: f
Encoding: 102 102 5
Width: 359
Flags: HW
LayerCount: 2
Fore
SplineSet
316 63 m 1,0,-1
 315 0 l 1,1,-1
 59 0 l 1,2,-1
 45 63 l 1,3,-1
 99 76 l 1,4,-1
 99 400 l 1,5,-1
 27 400 l 1,6,-1
 12 481 l 1,7,-1
 19 491 l 1,8,-1
 100 491 l 1,9,-1
 100 541 l 2,10,11
 100 640.4 100 640.4 149.5 691 c 0,12,13
 191.565217391 734 191.565217391 734 261 734 c 0,14,15
 321.935483871 734 321.935483871 734 375.5 693.5 c 0,16,17
 396 678 396 678 414 653 c 1,18,-1
 300 584 l 1,19,-1
 260 639 l 1,20,21
 237 639 237 639 228.5 626.5 c 128,-1,22
 220 614 220 614 220 592 c 2,23,-1
 220 491 l 1,24,-1
 334 491 l 2,25,26
 339 491 339 491 339 485 c 2,27,-1
 339 400 l 1,28,-1
 220 400 l 1,29,-1
 220 74 l 1,30,-1
 316 63 l 1,0,-1
EndSplineSet
EndChar

StartChar: g
Encoding: 103 103 6
Width: 503
Flags: HW
LayerCount: 2
Fore
SplineSet
112 155 m 1,0,1
 33 204.657142857 33 204.657142857 33 302 c 0,2,3
 33 388 33 388 96 442 c 0,4,5
 153.166666667 491 153.166666667 491 229.44047619 491 c 128,-1,6
 305.714285714 491 305.714285714 491 361 448 c 1,7,-1
 470 503 l 1,8,-1
 493 500 l 1,9,-1
 504 401 l 1,10,-1
 411 390 l 1,11,12
 432 350.1 432 350.1 432 303.55 c 128,-1,13
 432 257 432 257 414.5 223 c 128,-1,14
 397 189 397 189 369 166.5 c 0,15,16
 313.622222222 122 313.622222222 122 232 122 c 2,17,-1
 218 122 l 2,18,19
 212 122 212 122 206 123 c 1,20,-1
 188 96 l 1,21,-1
 190 82 l 1,22,-1
 292 61 l 2,23,24
 449 28 449 28 449 -81 c 0,25,26
 449 -168.222222222 449 -168.222222222 380.5 -221.5 c 0,27,28
 315.571428571 -272 315.571428571 -272 215 -272 c 0,29,30
 127.75 -272 127.75 -272 74 -229 c 0,31,32
 22 -187.4 22 -187.4 22 -123 c 0,33,34
 22 -39.71875 22 -39.71875 99 6 c 1,35,36
 75 32 75 32 75 76.15625 c 128,-1,37
 75 120.3125 75 120.3125 112 155 c 1,0,1
232 397 m 256,38,39
 177.25 397 177.25 397 161.5 341 c 0,40,41
 157 325 157 325 157 298 c 128,-1,42
 157 271 157 271 175 243.5 c 128,-1,43
 193 216 193 216 232.5 216 c 128,-1,44
 272 216 272 216 290 243.5 c 128,-1,45
 308 271 308 271 308 298 c 128,-1,46
 308 325 308 325 303.5 341 c 128,-1,47
 299 357 299 357 290 369.5 c 0,48,49
 270.2 397 270.2 397 232 397 c 256,38,39
170 -34 m 1,50,51
 131 -58.8181818182 131 -58.8181818182 131 -93 c 0,52,53
 131 -131.790697674 131 -131.790697674 188.5 -146.5 c 0,54,55
 210 -152 210 -152 236.5 -152 c 128,-1,56
 263 -152 263 -152 282.5 -148 c 128,-1,57
 302 -144 302 -144 318 -137 c 0,58,59
 353 -121.6875 353 -121.6875 353 -98 c 0,60,61
 353 -83 353 -83 335.5 -75 c 128,-1,62
 318 -67 318 -67 291.5 -61 c 128,-1,63
 265 -55 265 -55 232.5 -49.5 c 128,-1,64
 200 -44 200 -44 170 -34 c 1,50,51
EndSplineSet
EndChar

StartChar: h
Encoding: 104 104 7
Width: 547
Flags: HW
LayerCount: 2
Fore
SplineSet
526 64 m 1,0,-1
 525 0 l 1,1,-1
 300 0 l 1,2,-1
 300 64 l 1,3,-1
 350 75 l 1,4,-1
 350 331 l 2,5,6
 350 393 350 393 288 393 c 0,7,8
 247.153846154 393 247.153846154 393 212.5 366.5 c 0,9,10
 204 360 204 360 201 356 c 1,11,-1
 201 75 l 1,12,-1
 258 64 l 1,13,-1
 257 0 l 1,14,-1
 35 0 l 1,15,-1
 23 64 l 1,16,-1
 80 77 l 1,17,-1
 80 648 l 1,18,-1
 28 648 l 1,19,-1
 18 716 l 1,20,-1
 166 737 l 1,21,-1
 201 700 l 1,22,-1
 201 455 l 1,23,24
 220 469 220 469 252 480 c 128,-1,25
 284 491 284 491 316 491 c 128,-1,26
 348 491 348 491 376 483 c 128,-1,27
 404 475 404 475 425 459 c 0,28,29
 471 423.952380952 471 423.952380952 471 359 c 2,30,-1
 471 76 l 1,31,-1
 526 64 l 1,0,-1
EndSplineSet
EndChar

StartChar: i
Encoding: 105 105 8
Width: 288
Flags: HW
LayerCount: 2
Fore
SplineSet
89.5 611.5 m 128,-1,1
 68 633 68 633 68 662.5 c 128,-1,2
 68 692 68 692 89.5 713.5 c 128,-1,3
 111 735 111 735 141 735 c 256,4,5
 171 735 171 735 192 713.5 c 128,-1,6
 213 692 213 692 213 662.5 c 128,-1,7
 213 633 213 633 192 611.5 c 128,-1,8
 171 590 171 590 141 590 c 256,9,0
 111 590 111 590 89.5 611.5 c 128,-1,1
26 466 m 1,10,-1
 175 492 l 1,11,-1
 209 456 l 1,12,-1
 209 75 l 1,13,-1
 264 64 l 1,14,-1
 264 0 l 1,15,-1
 43 0 l 1,16,-1
 32 64 l 1,17,-1
 88 77 l 1,18,-1
 88 398 l 1,19,-1
 37 398 l 1,20,-1
 26 466 l 1,10,-1
EndSplineSet
EndChar

StartChar: j
Encoding: 106 106 9
Width: 264
Flags: HW
LayerCount: 2
Fore
SplineSet
27 -148 m 1,0,1
 40 -161 40 -161 56 -161 c 128,-1,2
 72 -161 72 -161 75.5 -145 c 128,-1,3
 79 -129 79 -129 79 -105 c 2,4,-1
 79 398 l 1,5,-1
 28 398 l 1,6,-1
 17 466 l 1,7,-1
 165 492 l 1,8,-1
 200 456 l 1,9,-1
 200 -103 l 2,10,11
 200 -203.976744186 200 -203.976744186 148.5 -243.5 c 0,12,13
 116.575757576 -268 116.575757576 -268 67 -268 c 0,14,15
 13.8333333333 -268 13.8333333333 -268 -27 -233 c 1,16,-1
 27 -148 l 1,0,1
73.5 611.5 m 128,-1,18
 52 633 52 633 52 662.5 c 128,-1,19
 52 692 52 692 73.5 713.5 c 128,-1,20
 95 735 95 735 124.5 735 c 128,-1,21
 154 735 154 735 175.5 713.5 c 128,-1,22
 197 692 197 692 197 662.5 c 128,-1,23
 197 633 197 633 175.5 611.5 c 128,-1,24
 154 590 154 590 124.5 590 c 128,-1,17
 95 590 95 590 73.5 611.5 c 128,-1,18
EndSplineSet
EndChar

StartChar: k
Encoding: 107 107 10
Width: 509
Flags: HW
LayerCount: 2
Fore
SplineSet
248 64 m 1,0,-1
 247 0 l 1,1,-1
 35 0 l 1,2,-1
 23 64 l 1,3,-1
 80 77 l 1,4,-1
 80 648 l 1,5,-1
 28 648 l 1,6,-1
 18 716 l 1,7,-1
 166 737 l 1,8,-1
 201 700 l 1,9,-1
 201 272 l 1,10,-1
 329 413 l 1,11,-1
 276 413 l 1,12,-1
 266 491 l 1,13,-1
 443 491 l 1,14,-1
 478 426 l 1,15,-1
 339 287 l 1,16,-1
 446 73 l 1,17,-1
 493 62 l 1,18,-1
 494 0 l 1,19,-1
 343 0 l 1,20,-1
 250 198 l 1,21,-1
 201 149 l 1,22,-1
 201 75 l 1,23,-1
 248 64 l 1,0,-1
EndSplineSet
EndChar

StartChar: l
Encoding: 108 108 11
Width: 284
Flags: HW
LayerCount: 2
Fore
SplineSet
200 700 m 1,0,-1
 200 79 l 1,1,-1
 265 63 l 1,2,-1
 265 0 l 1,3,-1
 34 0 l 1,4,-1
 23 63 l 1,5,-1
 79 77 l 1,6,-1
 79 648 l 1,7,-1
 27 648 l 1,8,-1
 16 716 l 1,9,-1
 165 737 l 1,10,-1
 200 700 l 1,0,-1
EndSplineSet
EndChar

StartChar: m
Encoding: 109 109 12
Width: 821
Flags: HW
LayerCount: 2
Fore
SplineSet
531 64 m 1,0,-1
 530 0 l 1,1,-1
 310 0 l 1,2,-1
 310 64 l 1,3,-1
 358 75 l 1,4,-1
 358 331 l 2,5,6
 358 393 358 393 296 393 c 0,7,8
 255.153846154 393 255.153846154 393 220.5 366.5 c 0,9,10
 212 360 212 360 209 356 c 1,11,-1
 209 75 l 1,12,-1
 266 63 l 1,13,-1
 265 0 l 1,14,-1
 43 0 l 1,15,-1
 30 63 l 1,16,-1
 88 77 l 1,17,-1
 88 398 l 1,18,-1
 37 398 l 1,19,-1
 26 466 l 1,20,-1
 174 492 l 1,21,-1
 209 455 l 1,22,23
 228 469 228 469 260 480 c 128,-1,24
 292 491 292 491 325 491 c 0,25,26
 406.875 491 406.875 491 448 444 c 1,27,28
 513.076923077 491 513.076923077 491 597 491 c 0,29,30
 700.96 491 700.96 491 736 418 c 0,31,32
 748 393 748 393 748 359 c 2,33,-1
 748 76 l 1,34,-1
 799 64 l 1,35,-1
 798 0 l 1,36,-1
 571 0 l 1,37,-1
 571 63 l 1,38,-1
 627 75 l 1,39,-1
 627 331 l 2,40,41
 627 393 627 393 565 393 c 0,42,43
 524.153846154 393 524.153846154 393 489.5 366.5 c 0,44,45
 481 360 481 360 478 356 c 1,46,-1
 478 74 l 1,47,-1
 531 64 l 1,0,-1
EndSplineSet
EndChar

StartChar: n
Encoding: 110 110 13
Width: 555
Flags: HW
LayerCount: 2
Fore
SplineSet
26 466 m 1,0,-1
 174 492 l 1,1,-1
 209 455 l 1,2,3
 228 469 228 469 260 480 c 128,-1,4
 292 491 292 491 324 491 c 128,-1,5
 356 491 356 491 384 483 c 128,-1,6
 412 475 412 475 433 459 c 0,7,8
 479 423.952380952 479 423.952380952 479 359 c 2,9,-1
 479 73 l 1,10,-1
 534 64 l 1,11,-1
 533 0 l 1,12,-1
 308 0 l 1,13,-1
 308 64 l 1,14,-1
 358 75 l 1,15,-1
 358 331 l 2,16,17
 358 393 358 393 296 393 c 0,18,19
 255.153846154 393 255.153846154 393 220.5 366.5 c 0,20,21
 212 360 212 360 209 356 c 1,22,-1
 209 75 l 1,23,-1
 266 63 l 1,24,-1
 265 0 l 1,25,-1
 43 0 l 1,26,-1
 32 64 l 1,27,-1
 88 77 l 1,28,-1
 88 398 l 1,29,-1
 37 398 l 1,30,-1
 26 466 l 1,0,-1
EndSplineSet
EndChar

StartChar: o
Encoding: 111 111 14
Width: 499
Flags: HW
LayerCount: 2
Fore
SplineSet
29 246 m 256,0,1
 29 360 29 360 98 429 c 0,2,3
 160 491 160 491 249 491 c 256,4,5
 339 491 339 491 401 429 c 0,6,7
 470 360 470 360 470 246 c 256,8,9
 470 129.612903226 470 129.612903226 401 59.5 c 0,10,11
 338.507936508 -4 338.507936508 -4 249 -4 c 256,12,13
 160.492063492 -4 160.492063492 -4 98 59.5 c 0,14,15
 29 129.612903226 29 129.612903226 29 246 c 256,0,1
153 240 m 256,16,17
 153 123.529411765 153 123.529411765 212 97.5 c 0,18,19
 229 90 229 90 249 90 c 256,20,21
 317.578947368 90 317.578947368 90 338.5 169.5 c 0,22,23
 346 198 346 198 346 240 c 256,24,25
 346 359.6 346 359.6 286.5 388.5 c 0,26,27
 269 397 269 397 249 397 c 256,28,29
 181.75 397 181.75 397 160.5 312 c 0,30,31
 153 282 153 282 153 240 c 256,16,17
EndSplineSet
EndChar

StartChar: p
Encoding: 112 112 15
Width: 515
Flags: HW
LayerCount: 2
Fore
SplineSet
319 -208 m 1,0,-1
 318 -273 l 1,1,-1
 45 -273 l 1,2,-1
 29 -210 l 1,3,-1
 80 -195 l 1,4,-1
 80 402 l 1,5,-1
 29 395 l 1,6,-1
 16 467 l 1,7,-1
 166 491 l 1,8,-1
 189 468 l 1,9,10
 232.444444444 491 232.444444444 491 282.222222222 491 c 128,-1,11
 332 491 332 491 368 474.5 c 128,-1,12
 404 458 404 458 430 427 c 0,13,14
 484 362.615384615 484 362.615384615 484 251 c 0,15,16
 484 114.904761905 484 114.904761905 413.5 50 c 0,17,18
 354.844827586 -4 354.844827586 -4 261 -4 c 0,19,20
 231 -4 231 -4 201 4 c 1,21,-1
 201 -182 l 1,22,-1
 319 -208 l 1,0,-1
201 103 m 1,23,24
 220.5 90 220.5 90 261.25 90 c 128,-1,25
 302 90 302 90 331 127.5 c 128,-1,26
 360 165 360 165 360 244.5 c 128,-1,27
 360 324 360 324 333 360.5 c 128,-1,28
 306 397 306 397 265.875 397 c 128,-1,29
 225.75 397 225.75 397 201 379 c 1,30,-1
 201 103 l 1,23,24
EndSplineSet
EndChar

StartChar: q
Encoding: 113 113 16
Width: 499
Flags: HW
LayerCount: 2
Fore
SplineSet
237 491 m 0,0,1
 296.8 491 296.8 491 343 470 c 1,2,-1
 401 493 l 1,3,-1
 435 469 l 1,4,-1
 435 -181 l 1,5,-1
 490 -200 l 1,6,-1
 490 -273 l 1,7,-1
 202 -273 l 1,8,-1
 191 -210 l 1,9,-1
 314 -186 l 1,10,-1
 314 24 l 1,11,12
 280 -4 280 -4 229.5 -4 c 128,-1,13
 179 -4 179 -4 143 13.5 c 128,-1,14
 107 31 107 31 82 62.5 c 0,15,16
 31 126.76 31 126.76 31 233 c 0,17,18
 31 373.661538462 31 373.661538462 109.5 442.5 c 0,19,20
 142 471 142 471 177.5 481 c 128,-1,21
 213 491 213 491 237 491 c 0,0,1
314 377 m 1,22,23
 293 398 293 398 252 398 c 0,24,25
 185.542372881 398 185.542372881 398 163.5 321.5 c 0,26,27
 155 292 155 292 155 245 c 256,28,29
 155 160.230769231 155 160.230769231 185 121 c 0,30,31
 207.941176471 91 207.941176471 91 247 91 c 0,32,33
 269 91 269 91 289 107 c 128,-1,34
 309 123 309 123 314 149 c 1,35,-1
 314 377 l 1,22,23
EndSplineSet
EndChar

StartChar: r
Encoding: 114 114 17
Width: 428
Flags: HW
LayerCount: 2
Fore
SplineSet
331 64 m 1,0,-1
 332 0 l 1,1,-1
 44 0 l 1,2,-1
 29 64 l 1,3,-1
 89 80 l 1,4,-1
 89 401 l 1,5,-1
 38 397 l 1,6,-1
 27 465 l 1,7,8
 40 467 40 467 60.5 471 c 128,-1,9
 81 475 81 475 101.5 479 c 0,10,11
 157.652173913 489.956521739 157.652173913 489.956521739 166 491 c 1,12,-1
 200 439 l 1,13,14
 220 464 220 464 248 477.5 c 128,-1,15
 276 491 276 491 311 491 c 128,-1,16
 346 491 346 491 381.5 470.5 c 128,-1,17
 417 450 417 450 431 404 c 1,18,-1
 310 341 l 1,19,-1
 280 391 l 1,20,21
 255.24 391 255.24 391 235.5 367.5 c 0,22,23
 210 337.142857143 210 337.142857143 210 286 c 2,24,-1
 210 99 l 2,25,26
 210 98 210 98 225.5 93.5 c 128,-1,27
 241 89 241 89 261.5 83 c 0,28,29
 311.961538462 68.2307692308 311.961538462 68.2307692308 331 64 c 1,0,-1
EndSplineSet
EndChar

StartChar: s
Encoding: 115 115 18
Width: 412
Flags: HW
LayerCount: 2
Fore
SplineSet
145 159 m 1,0,-1
 171 94 l 1,1,2
 180 91 180 91 198 91 c 128,-1,3
 216 91 216 91 225 93.5 c 128,-1,4
 234 96 234 96 241.5 101.5 c 0,5,6
 259 114.333333333 259 114.333333333 259 133.166666667 c 128,-1,7
 259 152 259 152 248.5 162.5 c 128,-1,8
 238 173 238 173 223 180 c 128,-1,9
 208 187 208 187 192 192 c 128,-1,10
 176 197 176 197 166 202 c 0,11,12
 96 230 96 230 68 266.5 c 128,-1,13
 40 303 40 303 40 339.5 c 128,-1,14
 40 376 40 376 53 402.5 c 128,-1,15
 66 429 66 429 89.5 448.5 c 0,16,17
 140.717948718 491 140.717948718 491 213 491 c 0,18,19
 308.6 491 308.6 491 361 425.5 c 0,20,21
 375 408 375 408 383 392 c 1,22,-1
 256 341 l 1,23,-1
 232 392 l 1,24,25
 222 397 222 397 208 397 c 0,26,27
 164 397 164 397 164 359 c 0,28,29
 164 344 164 344 180 333 c 128,-1,30
 196 322 196 322 220 311 c 128,-1,31
 244 300 244 300 272.5 287 c 128,-1,32
 301 274 301 274 325 256 c 0,33,34
 381 214 381 214 381 150 c 256,35,36
 381 78.62 381 78.62 327 36.5 c 0,37,38
 276.358974359 -3 276.358974359 -3 203 -3 c 0,39,40
 135.090909091 -3 135.090909091 -3 82 33.5 c 0,41,42
 34.5517241379 66.1206896552 34.5517241379 66.1206896552 17 110 c 1,43,-1
 145 159 l 1,0,-1
EndSplineSet
EndChar

StartChar: t
Encoding: 116 116 19
Width: 345
Flags: HW
LayerCount: 2
Fore
SplineSet
91 164.5 m 1,0,-1
 93 400 l 1,1,-1
 17 400 l 1,2,-1
 2 481 l 1,3,-1
 9 491 l 1,4,-1
 94 491 l 1,5,6
 95 552 95 552 95 598 c 128,-1,7
 95 644 95 644 96 659 c 1,8,-1
 203 682 l 1,9,-1
 212 666 l 1,10,-1
 212 491 l 1,11,-1
 313 491 l 2,12,13
 318 491 318 491 318 485 c 2,14,-1
 318 400 l 1,15,-1
 212 400 l 1,16,-1
 212 139 l 2,17,18
 212 108 212 108 220 100.5 c 128,-1,19
 228 93 228 93 243 93 c 0,20,21
 272.75 93 272.75 93 309 122 c 1,22,23
 310 118 310 118 314 107 c 128,-1,24
 318 96 318 96 322 83.5 c 0,25,26
 332.260869565 51.4347826087 332.260869565 51.4347826087 334 41 c 1,27,28
 320 26 320 26 287.5 11 c 128,-1,29
 255 -4 255 -4 223.5 -4 c 128,-1,30
 192 -4 192 -4 169.5 2.5 c 128,-1,31
 147 9 147 9 129.5 25 c 0,32,33
 91 60.2 91 60.2 91 138 c 2,34,-1
 91 164.5 l 1,0,-1
EndSplineSet
EndChar

StartChar: u
Encoding: 117 117 20
Width: 539
Flags: HW
LayerCount: 2
Fore
SplineSet
437 -4 m 0,0,1
 378.153846154 -4 378.153846154 -4 356 44 c 1,2,3
 333 19 333 19 298 7.5 c 128,-1,4
 263 -4 263 -4 230 -4 c 0,5,6
 159 -4 159 -4 117 32.5 c 128,-1,7
 75 69 75 69 75 146 c 2,8,-1
 75 398 l 1,9,-1
 24 398 l 1,10,-1
 13 465 l 1,11,-1
 161 492 l 1,12,-1
 196 454 l 1,13,-1
 196 169 l 2,14,15
 196 130 196 130 214.5 111 c 128,-1,16
 233 92 233 92 262 92 c 128,-1,17
 291 92 291 92 314 108 c 128,-1,18
 337 124 337 124 345 144 c 1,19,-1
 345 401 l 1,20,-1
 300 398 l 1,21,-1
 288 465 l 1,22,-1
 431 492 l 1,23,-1
 466 454 l 1,24,-1
 466 105 l 2,25,26
 466 83 466 83 482 83 c 1,27,-1
 496 85 l 1,28,-1
 515 29 l 1,29,30
 509 22 509 22 488.5 9 c 128,-1,31
 468 -4 468 -4 437 -4 c 0,0,1
EndSplineSet
EndChar

StartChar: v
Encoding: 118 118 21
Width: 497
Flags: HW
LayerCount: 2
Fore
SplineSet
189 0 m 1,0,-1
 57 407 l 1,1,-1
 7 407 l 1,2,-1
 -1 479 l 1,3,-1
 167 491 l 1,4,-1
 275 127 l 1,5,-1
 379 407 l 1,6,-1
 337 407 l 1,7,-1
 328 479 l 1,8,-1
 476 491 l 1,9,-1
 495 455 l 1,10,-1
 328 0 l 1,11,-1
 189 0 l 1,0,-1
EndSplineSet
EndChar

StartChar: w
Encoding: 119 119 22
Width: 741
Flags: HW
LayerCount: 2
Fore
SplineSet
132 0 m 1,0,-1
 48 407 l 1,1,-1
 12 407 l 1,2,-1
 5 479 l 1,3,-1
 157 491 l 1,4,-1
 226 131 l 1,5,-1
 314 474 l 1,6,-1
 457 474 l 1,7,-1
 542 127 l 1,8,-1
 612 407 l 1,9,-1
 577 407 l 1,10,-1
 569 479 l 1,11,-1
 699 491 l 1,12,-1
 721 455 l 1,13,-1
 606 0 l 1,14,-1
 449 0 l 1,15,-1
 370 322 l 1,16,-1
 290 0 l 1,17,-1
 132 0 l 1,0,-1
EndSplineSet
EndChar

StartChar: x
Encoding: 120 120 23
Width: 471
Flags: HW
LayerCount: 2
Fore
SplineSet
26 0 m 1,0,-1
 26 73 l 1,1,-1
 68 73 l 1,2,-1
 165 243 l 1,3,-1
 69 418 l 1,4,-1
 27 418 l 1,5,-1
 27 491 l 1,6,-1
 169 491 l 1,7,-1
 256 335 l 1,8,-1
 335 491 l 1,9,-1
 445 491 l 1,10,-1
 445 418 l 1,11,-1
 403 418 l 1,12,-1
 305 247 l 1,13,-1
 402 73 l 1,14,-1
 444 73 l 1,15,-1
 444 0 l 1,16,-1
 298 0 l 1,17,-1
 218 145 l 1,18,-1
 138 0 l 1,19,-1
 26 0 l 1,0,-1
EndSplineSet
EndChar

StartChar: y
Encoding: 121 121 24
Width: 498
Flags: HW
LayerCount: 2
Fore
SplineSet
496 455 m 1,0,1
 479.636363636 411.363636364 479.636363636 411.363636364 425.818181818 257.181818182 c 128,-1,2
 372 103 372 103 354 51.5 c 128,-1,3
 336 0 336 0 320.5 -44 c 128,-1,4
 305 -88 305 -88 293 -120.5 c 128,-1,5
 281 -153 281 -153 271 -179.5 c 128,-1,6
 261 -206 261 -206 243.5 -227.5 c 128,-1,7
 226 -249 226 -249 208.5 -259.5 c 0,8,9
 184.333333333 -274 184.333333333 -274 150 -274 c 0,10,11
 106.222222222 -274 106.222222222 -274 61.5 -251 c 0,12,13
 44 -242 44 -242 29 -228 c 1,14,-1
 83 -144 l 1,15,16
 126.2 -180 126.2 -180 142.1 -180 c 128,-1,17
 158 -180 158 -180 169.5 -167 c 128,-1,18
 181 -154 181 -154 193 -121 c 2,19,-1
 215 -61 l 1,20,-1
 46 407 l 1,21,-1
 8 407 l 1,22,-1
 0 479 l 1,23,-1
 150 491 l 1,24,-1
 280 119 l 1,25,26
 299 172 299 172 317.5 222.5 c 128,-1,27
 336 273 336 273 352.5 318 c 128,-1,28
 369 363 369 363 384 407 c 1,29,-1
 338 407 l 1,30,-1
 330 480 l 1,31,-1
 476 491 l 1,32,-1
 496 455 l 1,0,1
EndSplineSet
EndChar

StartChar: z
Encoding: 122 122 25
Width: 421
Flags: HW
LayerCount: 2
Fore
SplineSet
38 96 m 1,0,-1
 246 397 l 1,1,-1
 118 397 l 1,2,-1
 106 329 l 1,3,-1
 38 329 l 1,4,-1
 38 491 l 1,5,-1
 382 491 l 1,6,-1
 382 395 l 1,7,-1
 180 97 l 1,8,-1
 301 97 l 1,9,-1
 313 163 l 1,10,-1
 382 163 l 1,11,-1
 382 0 l 1,12,-1
 39 0 l 1,13,-1
 38 96 l 1,0,-1
EndSplineSet
EndChar

StartChar: A
Encoding: 65 65 26
Width: 621
Flags: HW
LayerCount: 2
Fore
SplineSet
349 0 m 1,0,-1
 349 75 l 1,1,-1
 429 96 l 1,2,-1
 393 218 l 1,3,-1
 197 218 l 1,4,-1
 159 92 l 1,5,-1
 247 76 l 1,6,-1
 247 0 l 1,7,-1
 8 0 l 1,8,-1
 -5 78 l 1,9,-1
 50 96 l 1,10,-1
 248 690 l 1,11,-1
 372 690 l 1,12,-1
 573 96 l 1,13,-1
 619 78 l 1,14,-1
 609 0 l 1,15,-1
 349 0 l 1,0,-1
228 323 m 1,16,-1
 349 323 l 1,17,-1
 296 548 l 1,18,-1
 228 323 l 1,16,-1
EndSplineSet
EndChar

StartChar: B
Encoding: 66 66 27
Width: 596
Flags: HW
LayerCount: 2
Fore
SplineSet
55 0 m 1,0,-1
 41 85 l 1,1,-1
 105 100 l 1,2,-1
 105 593 l 1,3,-1
 35 600 l 1,4,-1
 35 690 l 1,5,-1
 312 690 l 2,6,7
 414.857142857 690 414.857142857 690 477 637.5 c 0,8,9
 536 587.655172414 536 587.655172414 536 509 c 0,10,11
 536 445.382352941 536 445.382352941 496 399.5 c 0,12,13
 464.229508197 363.057377049 464.229508197 363.057377049 424 353 c 1,14,15
 488 336 488 336 526 297 c 128,-1,16
 564 258 564 258 564 187 c 0,17,18
 564 48.5243902439 564 48.5243902439 432 11.5 c 0,19,20
 391 0 391 0 342 0 c 2,21,-1
 55 0 l 1,0,-1
427 199 m 0,22,23
 427 295 427 295 294 295 c 2,24,-1
 236 295 l 1,25,-1
 236 105 l 1,26,-1
 310 105 l 2,27,28
 391.638888889 105 391.638888889 105 417.5 154 c 0,29,30
 427 172 427 172 427 199 c 0,22,23
373 426 m 128,-1,32
 399 452 399 452 399 485.5 c 128,-1,33
 399 519 399 519 389.5 536 c 128,-1,34
 380 553 380 553 363.5 564 c 0,35,36
 332 585 332 585 281 585 c 2,37,-1
 236 585 l 1,38,-1
 236 400 l 1,39,-1
 295 400 l 2,40,31
 347 400 347 400 373 426 c 128,-1,32
EndSplineSet
EndChar

StartChar: C
Encoding: 67 67 28
Width: 587
Flags: HW
LayerCount: 2
Fore
SplineSet
417.5 568 m 128,-1,1
 412 580 412 580 409 583 c 128,-1,2
 406 586 406 586 366 586 c 128,-1,3
 326 586 326 586 289 569.5 c 128,-1,4
 252 553 252 553 224.5 522 c 0,5,6
 163.922038475 453.712116099 163.922038475 453.712116099 162 348 c 1,7,8
 164.039635216 237.859698351 164.039635216 237.859698351 220 170.5 c 0,9,10
 277.738461538 101 277.738461538 101 370 101 c 0,11,12
 411 101 411 101 452 116 c 128,-1,13
 493 131 493 131 522 160 c 1,14,-1
 564 71 l 1,15,16
 518.126550868 18.5732009926 518.126550868 18.5732009926 425 1.5 c 0,17,18
 395 -4 395 -4 346 -4 c 128,-1,19
 297 -4 297 -4 236 17 c 128,-1,20
 175 38 175 38 129 80.5 c 0,21,22
 28 173.815217391 28 173.815217391 28 334 c 0,23,24
 28 499.838709677 28 499.838709677 131.5 600 c 0,25,26
 225.533333333 691 225.533333333 691 358 691 c 0,27,28
 445.4 691 445.4 691 527 667 c 1,29,-1
 547 460 l 1,30,-1
 466 460 l 1,31,32
 445 506 445 506 434 531 c 128,-1,0
 423 556 423 556 417.5 568 c 128,-1,1
EndSplineSet
EndChar

StartChar: D
Encoding: 68 68 29
Width: 637
Flags: HW
LayerCount: 2
Fore
SplineSet
39 88 m 1,0,-1
 104 101 l 1,1,-1
 104 594 l 1,2,-1
 41 602 l 1,3,-1
 41 690 l 1,4,-1
 219 690 l 2,5,6
 500.417322835 690 500.417322835 690 579.5 500.5 c 0,7,8
 606 437 606 437 606 353 c 0,9,10
 606 183 606 183 519.5 91.5 c 128,-1,11
 433 0 433 0 262 0 c 2,12,-1
 53 0 l 1,13,-1
 39 88 l 1,0,-1
235 105 m 1,14,-1
 254 104 l 1,15,16
 360 104 360 104 414.5 166.5 c 128,-1,17
 469 229 469 229 469 349 c 128,-1,18
 469 469 469 469 409 527 c 128,-1,19
 349 585 349 585 235 585 c 1,20,-1
 235 105 l 1,14,-1
EndSplineSet
EndChar

StartChar: E
Encoding: 69 69 30
Width: 555
Flags: HW
LayerCount: 2
Fore
SplineSet
497 690 m 1,0,-1
 516 486 l 1,1,-1
 438 486 l 1,2,-1
 397 585 l 1,3,-1
 235 585 l 1,4,-1
 235 407 l 1,5,-1
 387 407 l 1,6,-1
 387 302 l 1,7,-1
 235 302 l 1,8,-1
 235 105 l 1,9,-1
 404 105 l 1,10,-1
 441 204 l 1,11,-1
 520 204 l 1,12,-1
 499 0 l 1,13,-1
 53 0 l 1,14,-1
 39 88 l 1,15,-1
 104 101 l 1,16,-1
 104 594 l 1,17,-1
 41 601 l 1,18,-1
 41 690 l 1,19,-1
 497 690 l 1,0,-1
EndSplineSet
EndChar

StartChar: F
Encoding: 70 70 31
Width: 528
Flags: HW
LayerCount: 2
Fore
SplineSet
398 0 m 1,0,-1
 53 0 l 1,1,-1
 39 88 l 1,2,-1
 104 101 l 1,3,-1
 104 594 l 1,4,-1
 41 601 l 1,5,-1
 41 690 l 1,6,-1
 497 690 l 1,7,-1
 516 485 l 1,8,-1
 440 485 l 1,9,-1
 397 585 l 1,10,-1
 235 585 l 1,11,-1
 235 407 l 1,12,-1
 387 407 l 1,13,-1
 387 302 l 1,14,-1
 235 302 l 1,15,-1
 235 105 l 1,16,-1
 405 79 l 1,17,-1
 398 0 l 1,0,-1
EndSplineSet
EndChar

StartChar: G
Encoding: 71 71 32
Width: 620
Flags: HW
LayerCount: 2
Fore
SplineSet
411 98 m 0,0,1
 431 98 431 98 441 100 c 1,2,-1
 441 229 l 1,3,-1
 338 243 l 1,4,-1
 356 324 l 1,5,-1
 572 324 l 1,6,-1
 572 9 l 1,7,8
 481 -4 481 -4 395.5 -4 c 128,-1,9
 310 -4 310 -4 246 16 c 128,-1,10
 182 36 182 36 133.5 78 c 0,11,12
 27 170.226804124 27 170.226804124 27 337 c 0,13,14
 27 501.11827957 27 501.11827957 125.5 597.5 c 0,15,16
 222.076923077 692 222.076923077 692 374 692 c 0,17,18
 454.666666667 692 454.666666667 692 522.5 673.5 c 0,19,20
 539 669 539 669 547 667 c 1,21,-1
 565 461 l 1,22,-1
 484 461 l 1,23,-1
 433 584 l 1,24,25
 406 587 406 587 368 587 c 128,-1,26
 330 587 330 587 292 569.5 c 128,-1,27
 254 552 254 552 225.5 519 c 0,28,29
 164 447.789473684 164 447.789473684 164 337 c 0,30,31
 164 230.032258065 164 230.032258065 227 165 c 0,32,33
 291.90625 98 291.90625 98 411 98 c 0,0,1
EndSplineSet
EndChar

StartChar: H
Encoding: 72 72 33
Width: 702
Flags: HW
LayerCount: 2
Fore
SplineSet
665 68 m 1,0,-1
 664 15 l 1,1,-1
 664 0 l 1,2,-1
 418 0 l 1,3,-1
 403 89 l 1,4,-1
 461 102 l 1,5,-1
 461 302 l 1,6,-1
 236 302 l 1,7,-1
 236 99 l 1,8,-1
 299 87 l 1,9,-1
 299 68 l 1,10,-1
 300 15 l 1,11,-1
 300 0 l 1,12,-1
 55 0 l 1,13,-1
 40 89 l 1,14,-1
 105 102 l 1,15,-1
 105 592 l 1,16,-1
 42 599 l 1,17,-1
 42 690 l 1,18,-1
 286 690 l 1,19,-1
 301 597 l 1,20,-1
 236 585 l 1,21,-1
 236 407 l 1,22,-1
 461 407 l 1,23,-1
 461 592 l 1,24,-1
 405 599 l 1,25,-1
 405 690 l 1,26,-1
 652 690 l 1,27,-1
 667 597 l 1,28,-1
 592 585 l 1,29,-1
 592 99 l 1,30,-1
 665 87 l 1,31,-1
 665 68 l 1,0,-1
EndSplineSet
EndChar

StartChar: I
Encoding: 73 73 34
Width: 348
Flags: HW
LayerCount: 2
Fore
SplineSet
312 68 m 1,0,-1
 311 15 l 1,1,-1
 311 0 l 1,2,-1
 51 0 l 1,3,-1
 37 89 l 1,4,-1
 107 102 l 1,5,-1
 107 592 l 1,6,-1
 39 599 l 1,7,-1
 39 690 l 1,8,-1
 299 690 l 1,9,-1
 314 597 l 1,10,-1
 238 585 l 1,11,-1
 238 99 l 1,12,-1
 312 87 l 1,13,-1
 312 68 l 1,0,-1
EndSplineSet
EndChar

StartChar: J
Encoding: 74 74 35
Width: 397
Flags: HW
LayerCount: 2
Fore
SplineSet
304 175 m 2,0,1
 304 71.1818181818 304 71.1818181818 254 28 c 0,2,3
 216.947368421 -4 216.947368421 -4 159 -4 c 0,4,5
 94.3636363636 -4 94.3636363636 -4 31 37 c 0,6,7
 14 48 14 48 2 59 c 1,8,-1
 72 160 l 1,9,10
 101 137 101 137 121.5 123.5 c 128,-1,11
 142 110 142 110 156 110 c 0,12,13
 173 110 173 110 173 136 c 2,14,-1
 173 585 l 1,15,-1
 93 597 l 1,16,-1
 108 690 l 1,17,-1
 372 690 l 1,18,-1
 372 599 l 1,19,-1
 304 592 l 1,20,-1
 304 175 l 2,0,1
EndSplineSet
EndChar

StartChar: K
Encoding: 75 75 36
Width: 635
Flags: HW
LayerCount: 2
Fore
SplineSet
304 68 m 1,0,-1
 305 15 l 1,1,-1
 305 0 l 1,2,-1
 51 0 l 1,3,-1
 37 89 l 1,4,-1
 107 102 l 1,5,-1
 107 592 l 1,6,-1
 39 597 l 1,7,-1
 39 690 l 1,8,-1
 292 690 l 1,9,-1
 307 600 l 1,10,-1
 238 585 l 1,11,-1
 238 345 l 1,12,-1
 439 585 l 1,13,-1
 362 601 l 1,14,-1
 362 690 l 1,15,-1
 614 690 l 1,16,-1
 614 601 l 1,17,-1
 575 593 l 1,18,19
 544.094339623 552.58490566 544.094339623 552.58490566 511.547169811 515.79245283 c 0,20,21
 442.857142857 438.142857143 442.857142857 438.142857143 402 391 c 1,22,-1
 564 97 l 1,23,-1
 618 87 l 1,24,-1
 618 0 l 1,25,-1
 460 0 l 1,26,-1
 314 291 l 1,27,28
 274.814814815 246.703703704 274.814814815 246.703703704 238 202 c 1,29,-1
 238 99 l 1,30,-1
 304 87 l 1,31,-1
 304 68 l 1,0,-1
EndSplineSet
EndChar

StartChar: L
Encoding: 76 76 37
Width: 524
Flags: HW
LayerCount: 2
Fore
SplineSet
295 690 m 1,0,-1
 310 599 l 1,1,-1
 235 585 l 1,2,-1
 235 105 l 1,3,-1
 404 105 l 1,4,-1
 441 204 l 1,5,-1
 520 204 l 1,6,-1
 499 0 l 1,7,-1
 53 0 l 1,8,-1
 39 88 l 1,9,-1
 104 101 l 1,10,-1
 104 594 l 1,11,-1
 41 601 l 1,12,-1
 41 690 l 1,13,-1
 295 690 l 1,0,-1
EndSplineSet
EndChar

StartChar: M
Encoding: 77 77 38
Width: 895
Flags: HW
LayerCount: 2
Fore
SplineSet
250 87 m 1,0,-1
 251 40 l 1,1,-1
 251 0 l 1,2,-1
 51 0 l 1,3,-1
 45 87 l 1,4,-1
 104 95 l 1,5,-1
 104 590 l 1,6,-1
 49 596 l 1,7,-1
 49 690 l 1,8,-1
 306 690 l 1,9,-1
 450 178 l 1,10,-1
 595 690 l 1,11,-1
 834 690 l 1,12,-1
 849 597 l 1,13,-1
 794 585 l 1,14,-1
 794 94 l 1,15,-1
 845 87 l 1,16,-1
 845 0 l 1,17,-1
 633 0 l 1,18,-1
 624 90 l 1,19,-1
 668 103 l 1,20,-1
 668 596 l 1,21,-1
 501 13 l 1,22,-1
 367 13 l 1,23,-1
 204 589 l 1,24,-1
 204 98 l 1,25,-1
 250 87 l 1,0,-1
EndSplineSet
EndChar

StartChar: N
Encoding: 78 78 39
Width: 727
Flags: HW
LayerCount: 2
Fore
SplineSet
262 65 m 1,0,-1
 261 13 l 1,1,-1
 261 0 l 1,2,-1
 53 0 l 1,3,-1
 37 87 l 1,4,-1
 106 100 l 1,5,-1
 106 590 l 1,6,-1
 42 597 l 1,7,-1
 42 690 l 1,8,-1
 298 690 l 1,9,-1
 525 96 l 1,10,-1
 525 592 l 1,11,-1
 467 599 l 1,12,-1
 467 690 l 1,13,-1
 682 690 l 1,14,-1
 697 597 l 1,15,-1
 630 585 l 1,16,-1
 630 0 l 1,17,-1
 428 0 l 1,18,-1
 211 562 l 1,19,-1
 211 104 l 1,20,-1
 262 88 l 1,21,-1
 262 65 l 1,0,-1
EndSplineSet
EndChar

StartChar: O
Encoding: 79 79 40
Width: 655
Flags: HW
LayerCount: 2
Fore
SplineSet
328 -4 m 256,0,1
 189.826086957 -4 189.826086957 -4 111 94 c 0,2,3
 36 187.243243243 36 187.243243243 36 345 c 256,4,5
 36 502.756756757 36 502.756756757 111 596 c 0,6,7
 189.02173913 693 189.02173913 693 328 693 c 256,8,9
 467.532608696 693 467.532608696 693 544.5 596 c 0,10,11
 619 502.109589041 619 502.109589041 619 345 c 256,12,13
 619 187.890410959 619 187.890410959 544.5 94 c 0,14,15
 466.739130435 -4 466.739130435 -4 328 -4 c 256,0,1
173 343 m 256,16,17
 173 240.3 173 240.3 215 171 c 0,18,19
 257.424242424 101 257.424242424 101 328 101 c 0,20,21
 397.575757576 101 397.575757576 101 440 171 c 0,22,23
 482 240.3 482 240.3 482 343 c 256,24,25
 482 447.7 482 447.7 440 517 c 0,26,27
 396.96969697 588 396.96969697 588 328 588 c 0,28,29
 258.03030303 588 258.03030303 588 215 517 c 0,30,31
 173 447.7 173 447.7 173 343 c 256,16,17
EndSplineSet
EndChar

StartChar: P
Encoding: 80 80 41
Width: 585
Flags: HW
LayerCount: 2
Fore
SplineSet
238 327 m 1,0,1
 402.8 327 402.8 327 426.5 406 c 0,2,3
 434 431 434 431 434 463 c 0,4,5
 434 519 434 519 400 552 c 128,-1,6
 366 585 366 585 293 585 c 2,7,-1
 238 585 l 1,8,-1
 238 327 l 1,0,1
37 86 m 1,9,-1
 107 100 l 1,10,-1
 107 592 l 1,11,-1
 39 599 l 1,12,-1
 39 690 l 1,13,-1
 289 690 l 2,14,15
 498.117647059 690 498.117647059 690 553.5 555.5 c 0,16,17
 571 513 571 513 571 460 c 256,18,19
 571 349.625 571 349.625 500 287.5 c 0,20,21
 425.142857143 222 425.142857143 222 285 222 c 2,22,-1
 238 222 l 1,23,-1
 238 114 l 2,24,25
 238 106 238 106 242.5 104.5 c 128,-1,26
 247 103 247 103 257 101.5 c 128,-1,27
 267 100 267 100 285.5 98 c 128,-1,28
 304 96 304 96 323 93 c 128,-1,29
 342 90 342 90 360 87.5 c 128,-1,30
 378 85 378 85 390 83 c 1,31,-1
 384 0 l 1,32,-1
 51 0 l 1,33,-1
 37 86 l 1,9,-1
EndSplineSet
EndChar

StartChar: Q
Encoding: 81 81 42
Width: 655
Flags: HW
LayerCount: 2
Fore
SplineSet
314 -15 m 1,0,-1
 522 -91 l 1,1,-1
 529 -129 l 1,2,-1
 435 -227 l 1,3,-1
 259 -72 l 1,4,-1
 314 -15 l 1,0,-1
328 -4 m 256,5,6
 189.826086957 -4 189.826086957 -4 111 94 c 0,7,8
 36 187.243243243 36 187.243243243 36 345 c 256,9,10
 36 502.756756757 36 502.756756757 111 596 c 0,11,12
 189.02173913 693 189.02173913 693 328 693 c 256,13,14
 467.532608696 693 467.532608696 693 544.5 596 c 0,15,16
 619 502.109589041 619 502.109589041 619 345 c 256,17,18
 619 187.890410959 619 187.890410959 544.5 94 c 0,19,20
 466.739130435 -4 466.739130435 -4 328 -4 c 256,5,6
173 343 m 256,21,22
 173 240.3 173 240.3 215 171 c 0,23,24
 257.424242424 101 257.424242424 101 328 101 c 0,25,26
 397.575757576 101 397.575757576 101 440 171 c 0,27,28
 482 240.3 482 240.3 482 343 c 256,29,30
 482 447.7 482 447.7 440 517 c 0,31,32
 396.96969697 588 396.96969697 588 328 588 c 0,33,34
 258.03030303 588 258.03030303 588 215 517 c 0,35,36
 173 447.7 173 447.7 173 343 c 256,21,22
EndSplineSet
EndChar

StartChar: R
Encoding: 82 82 43
Width: 612
Flags: HW
LayerCount: 2
Fore
SplineSet
572 465 m 0,0,1
 572 320.863636364 572 320.863636364 433 264 c 1,2,-1
 521 97 l 1,3,-1
 584 87 l 1,4,-1
 584 0 l 1,5,-1
 415 0 l 1,6,-1
 311 234 l 1,7,8
 276 231 276 231 238 231 c 1,9,-1
 238 95 l 1,10,-1
 290 87 l 1,11,-1
 290 0 l 1,12,-1
 47 0 l 1,13,-1
 38 85 l 1,14,-1
 107 99 l 1,15,-1
 107 592 l 1,16,-1
 39 599 l 1,17,-1
 39 690 l 1,18,-1
 284 690 l 2,19,20
 426.95 690 426.95 690 501.5 627 c 0,21,22
 572 567.422535211 572 567.422535211 572 465 c 0,0,1
238 337 m 1,23,24
 244 336 244 336 253 336 c 2,25,-1
 271 336 l 2,26,27
 354.470588235 336 354.470588235 336 398 373 c 0,28,29
 437 406.15 437 406.15 437 462 c 0,30,31
 437 524.869565217 437 524.869565217 396 552.5 c 0,32,33
 349.258064516 584 349.258064516 584 238 584 c 1,34,-1
 238 337 l 1,23,24
EndSplineSet
EndChar

StartChar: S
Encoding: 83 83 44
Width: 528
Flags: HW
LayerCount: 2
Fore
SplineSet
342.5 145.5 m 128,-1,1
 352 161 352 161 352 182 c 128,-1,2
 352 203 352 203 344.5 217.5 c 128,-1,3
 337 232 337 232 321 244.5 c 0,4,5
 301.9 259.421875 301.9 259.421875 244.45 286.2109375 c 128,-1,6
 187 313 187 313 154 331 c 128,-1,7
 121 349 121 349 96.5 372.5 c 0,8,9
 44 422.857142857 44 422.857142857 44 504 c 0,10,11
 44 588.222222222 44 588.222222222 112.5 641.5 c 0,12,13
 177.428571429 692 177.428571429 692 278 692 c 0,14,15
 372.272727273 692 372.272727273 692 468 665 c 1,16,-1
 483 475 l 1,17,-1
 399 475 l 1,18,-1
 350 581 l 1,19,20
 311 587 311 587 270 587 c 128,-1,21
 229 587 229 587 204.5 565 c 128,-1,22
 180 543 180 543 180 517 c 128,-1,23
 180 491 180 491 193 475.5 c 128,-1,24
 206 460 206 460 226 447.5 c 0,25,26
 249.733333333 432.666666667 249.733333333 432.666666667 304.366666667 407.333333333 c 128,-1,27
 359 382 359 382 392 361.5 c 128,-1,28
 425 341 425 341 446.5 317 c 0,29,30
 489 269.558139535 489 269.558139535 489 207.279069767 c 128,-1,31
 489 145 489 145 467 106 c 128,-1,32
 445 67 445 67 410 42.5 c 0,33,34
 343.571428571 -4 343.571428571 -4 240 -4 c 0,35,36
 148.5 -4 148.5 -4 36 41 c 1,37,-1
 56 234 l 1,38,-1
 140 227 l 1,39,-1
 148 116 l 1,40,41
 161 113 161 113 183.5 107 c 128,-1,42
 206 101 206 101 232 101 c 128,-1,43
 258 101 258 101 279 105.5 c 128,-1,44
 300 110 300 110 316.5 120 c 128,-1,0
 333 130 333 130 342.5 145.5 c 128,-1,1
EndSplineSet
EndChar

StartChar: T
Encoding: 84 84 45
Width: 615
Flags: HW
LayerCount: 2
Fore
SplineSet
128 80 m 1,0,-1
 243 102 l 1,1,-1
 243 585 l 1,2,-1
 130 585 l 1,3,-1
 87 485 l 1,4,-1
 10 485 l 1,5,-1
 29 690 l 1,6,-1
 584 690 l 1,7,-1
 606 486 l 1,8,-1
 530 486 l 1,9,-1
 486 585 l 1,10,-1
 372 585 l 1,11,-1
 372 102 l 1,12,-1
 488 80 l 1,13,-1
 478 0 l 1,14,-1
 138 0 l 1,15,-1
 128 80 l 1,0,-1
EndSplineSet
EndChar

StartChar: U
Encoding: 85 85 46
Width: 670
Flags: HW
LayerCount: 2
Fore
SplineSet
353 101 m 0,0,1
 479 101 479 101 479 251 c 2,2,-1
 479 593 l 1,3,-1
 415 602 l 1,4,-1
 415 690 l 1,5,-1
 643 690 l 1,6,-1
 643 599 l 1,7,-1
 584 586 l 1,8,-1
 584 248 l 2,9,10
 584 131 584 131 525 63.5 c 128,-1,11
 466 -4 466 -4 353 -4 c 0,12,13
 207.907692308 -4 207.907692308 -4 145.5 62.5 c 0,14,15
 88 123.770491803 88 123.770491803 88 248 c 2,16,-1
 88 592 l 1,17,-1
 21 601 l 1,18,-1
 21 690 l 1,19,-1
 290 690 l 1,20,-1
 290 602 l 1,21,-1
 219 591 l 1,22,-1
 219 250 l 2,23,24
 219 175 219 175 248.5 138 c 128,-1,25
 278 101 278 101 353 101 c 0,0,1
EndSplineSet
EndChar

StartChar: V
Encoding: 86 86 47
Width: 639
Flags: HW
LayerCount: 2
Fore
SplineSet
244 690 m 1,0,-1
 258 611 l 1,1,-1
 181 594 l 1,2,-1
 338 130 l 1,3,4
 341 141 341 141 352 172.5 c 0,5,6
 377.142857143 244.5 377.142857143 244.5 408 339 c 2,7,-1
 441 437 l 2,8,9
 457 485 457 485 471 526.5 c 128,-1,10
 485 568 485 568 493 594 c 1,11,-1
 402 612 l 1,12,-1
 402 690 l 1,13,-1
 635 690 l 1,14,-1
 635 601 l 1,15,-1
 598 594 l 1,16,-1
 391 0 l 1,17,-1
 250 0 l 1,18,-1
 40 594 l 1,19,-1
 4 601 l 1,20,-1
 4 690 l 1,21,-1
 244 690 l 1,0,-1
EndSplineSet
EndChar

StartChar: W
Encoding: 87 87 48
Width: 985
Flags: HW
LayerCount: 2
Fore
SplineSet
988 690 m 1,0,-1
 988 602 l 1,1,-1
 910 582 l 1,2,-1
 800 0 l 1,3,-1
 632 0 l 1,4,-1
 491 506 l 1,5,-1
 355 0 l 1,6,-1
 181 0 l 1,7,-1
 71 587 l 1,8,-1
 16 600 l 1,9,-1
 16 690 l 1,10,-1
 260 690 l 1,11,-1
 277 611 l 1,12,-1
 207 601 l 1,13,-1
 289 143 l 1,14,-1
 443 677 l 1,15,-1
 585 677 l 1,16,-1
 734 129 l 1,17,-1
 812 601 l 1,18,-1
 728 614 l 1,19,-1
 739 690 l 1,20,-1
 988 690 l 1,0,-1
EndSplineSet
EndChar

StartChar: X
Encoding: 88 88 49
Width: 594
Flags: HW
LayerCount: 2
Fore
SplineSet
577 690 m 1,0,-1
 577 600 l 1,1,-1
 536 592 l 1,2,-1
 370 334 l 1,3,4
 433.243243243 224.905405405 433.243243243 224.905405405 513 93 c 1,5,-1
 577 71 l 1,6,-1
 577 0 l 1,7,-1
 306 0 l 1,8,-1
 306 71 l 1,9,-1
 363 77 l 1,10,-1
 273 232 l 1,11,-1
 183 76 l 1,12,-1
 238 70 l 1,13,-1
 238 0 l 1,14,-1
 13 0 l 1,15,-1
 13 71 l 1,16,-1
 59 79 l 1,17,-1
 216 331 l 1,18,-1
 66 591 l 1,19,-1
 24 603 l 1,20,-1
 24 690 l 1,21,-1
 277 690 l 1,22,-1
 291 612 l 1,23,-1
 221 597 l 1,24,25
 235 572 235 572 259 530 c 128,-1,26
 283 488 283 488 312 436 c 1,27,-1
 412 595 l 1,28,-1
 354 613 l 1,29,-1
 354 690 l 1,30,-1
 577 690 l 1,0,-1
EndSplineSet
EndChar

StartChar: Y
Encoding: 89 89 50
Width: 583
Flags: HW
LayerCount: 2
Fore
SplineSet
242 690 m 1,0,-1
 257 611 l 1,1,-1
 186 597 l 1,2,-1
 310 381 l 1,3,-1
 422 600 l 1,4,-1
 361 611 l 1,5,-1
 361 690 l 1,6,-1
 582 690 l 1,7,-1
 582 602 l 1,8,-1
 538 591 l 1,9,-1
 360 251 l 1,10,-1
 360 96 l 1,11,-1
 475 73 l 1,12,-1
 466 0 l 1,13,-1
 125 0 l 1,14,-1
 115 73 l 1,15,-1
 229 96 l 1,16,-1
 229 252 l 1,17,-1
 38 591 l 1,18,-1
 -2 601 l 1,19,-1
 -2 690 l 1,20,-1
 242 690 l 1,0,-1
EndSplineSet
EndChar

StartChar: Z
Encoding: 90 90 51
Width: 562
Flags: HW
LayerCount: 2
Fore
SplineSet
28 79 m 1,0,-1
 365 585 l 1,1,-1
 144 585 l 1,2,-1
 125 475 l 1,3,-1
 47 475 l 1,4,-1
 47 690 l 1,5,-1
 507 690 l 1,6,-1
 527 597 l 1,7,8
 477.615853659 513.426829268 477.615853659 513.426829268 383.307926829 372.713414634 c 128,-1,9
 289 232 289 232 259.5 187 c 128,-1,10
 230 142 230 142 205 105 c 1,11,-1
 420 105 l 1,12,-1
 438 215 l 1,13,-1
 518 215 l 1,14,-1
 518 0 l 1,15,-1
 47 0 l 1,16,-1
 28 79 l 1,0,-1
EndSplineSet
EndChar

StartChar: colon
Encoding: 58 58 52
Width: 241
Flags: HW
LayerCount: 2
Fore
SplineSet
54 193 m 256,0,1
 54 221 54 221 74 240 c 128,-1,2
 94 259 94 259 121.5 259 c 128,-1,3
 149 259 149 259 168.5 240 c 128,-1,4
 188 221 188 221 188 193 c 256,5,6
 188 165 188 165 168.5 145.5 c 128,-1,7
 149 126 149 126 121.5 126 c 128,-1,8
 94 126 94 126 74 145.5 c 128,-1,9
 54 165 54 165 54 193 c 256,0,1
74 408 m 128,-1,11
 54 428 54 428 54 455.5 c 128,-1,12
 54 483 54 483 74 502.5 c 128,-1,13
 94 522 94 522 121.5 522 c 128,-1,14
 149 522 149 522 168.5 502.5 c 128,-1,15
 188 483 188 483 188 455.5 c 128,-1,16
 188 428 188 428 168.5 408 c 128,-1,17
 149 388 149 388 121.5 388 c 128,-1,10
 94 388 94 388 74 408 c 128,-1,11
EndSplineSet
EndChar

StartChar: semicolon
Encoding: 59 59 53
Width: 248
Flags: HW
LayerCount: 2
Fore
SplineSet
186 133 m 1,0,1
 194 101 194 101 194 57.5 c 128,-1,2
 194 14 194 14 186 -18 c 128,-1,3
 178 -50 178 -50 166 -78.5 c 0,4,5
 144.163934426 -130.360655738 144.163934426 -130.360655738 111 -173 c 1,6,-1
 27 -134 l 1,7,-1
 24 -123 l 1,8,-1
 75 -11 l 1,9,-1
 49 114 l 1,10,-1
 186 133 l 1,0,1
78 248 m 128,-1,12
 58 268 58 268 58 295.5 c 128,-1,13
 58 323 58 323 78 342.5 c 128,-1,14
 98 362 98 362 125.5 362 c 128,-1,15
 153 362 153 362 172.5 342.5 c 128,-1,16
 192 323 192 323 192 295.5 c 128,-1,17
 192 268 192 268 172.5 248 c 128,-1,18
 153 228 153 228 125.5 228 c 128,-1,11
 98 228 98 228 78 248 c 128,-1,12
EndSplineSet
EndChar

StartChar: period
Encoding: 46 46 54
Width: 211
Flags: HW
LayerCount: 2
Fore
SplineSet
38 63 m 256,0,1
 38 91 38 91 58 110 c 128,-1,2
 78 129 78 129 105.5 129 c 0,3,4
 133 129 133 129 152.5 110 c 128,-1,5
 172 91 172 91 172 63 c 256,6,7
 172 35 172 35 152.5 15.5 c 128,-1,8
 133 -4 133 -4 105.5 -4 c 0,9,10
 78 -4 78 -4 58 15.5 c 128,-1,11
 38 35 38 35 38 63 c 256,0,1
EndSplineSet
EndChar

StartChar: comma
Encoding: 44 44 55
Width: 234
Flags: HW
LayerCount: 2
Fore
SplineSet
178 133 m 1,0,1
 186 101 186 101 186 57.5 c 128,-1,2
 186 14 186 14 178 -18 c 128,-1,3
 170 -50 170 -50 158 -78.5 c 0,4,5
 136.163934426 -130.360655738 136.163934426 -130.360655738 103 -173 c 1,6,-1
 19 -134 l 1,7,-1
 16 -123 l 1,8,-1
 67 -11 l 1,9,-1
 41 114 l 1,10,-1
 178 133 l 1,0,1
EndSplineSet
EndChar

StartChar: hyphen
Encoding: 45 45 56
Width: 423
Flags: HW
LayerCount: 2
Fore
SplineSet
53 250 m 1,0,-1
 53 332 l 1,1,-1
 71 344 l 1,2,-1
 363 344 l 2,3,4
 369 344 369 344 369 337 c 2,5,-1
 369 250 l 1,6,-1
 53 250 l 1,0,-1
EndSplineSet
EndChar

StartChar: equal
Encoding: 61 61 57
Width: 463
Flags: HW
LayerCount: 2
Fore
SplineSet
54 304 m 1,0,-1
 409 304 l 1,1,-1
 409 205 l 1,2,-1
 54 205 l 1,3,-1
 54 304 l 1,0,-1
54 460 m 1,4,-1
 409 460 l 1,5,-1
 409 360 l 1,6,-1
 54 360 l 1,7,-1
 54 460 l 1,4,-1
EndSplineSet
EndChar

StartChar: d
Encoding: 100 100 58
Width: 514
Flags: HW
LayerCount: 2
Fore
SplineSet
246.25 491 m 0,0,1
 281.5 491 281.5 491 314 478 c 1,2,-1
 314 648 l 1,3,-1
 263 648 l 1,4,-1
 252 716 l 1,5,-1
 400 737 l 1,6,-1
 435 700 l 1,7,-1
 435 105 l 2,8,9
 435 83 435 83 454 83 c 256,10,11
 464 83 464 83 476 89 c 1,12,-1
 495 37 l 1,13,14
 477.666666667 13.8888888889 477.666666667 13.8888888889 439 1 c 0,15,16
 424 -4 424 -4 406 -4 c 0,17,18
 350.1 -4 350.1 -4 327 38 c 1,19,20
 291 -4 291 -4 221 -4 c 0,21,22
 136.322580645 -4 136.322580645 -4 84.5 59 c 0,23,24
 31 124.039215686 31 124.039215686 31 234 c 0,25,26
 31 369.666666667 31 369.666666667 104.5 438.5 c 0,27,28
 160.559322034 491 160.559322034 491 246.25 491 c 0,0,1
314 378 m 1,29,30
 291.5 398 291.5 398 255 398 c 256,31,32
 187.34375 398 187.34375 398 164 315 c 0,33,34
 155 283 155 283 155 222.5 c 128,-1,35
 155 162 155 162 178.5 126.5 c 128,-1,36
 202 91 202 91 244 91 c 0,37,38
 265 91 265 91 287 105 c 128,-1,39
 309 119 309 119 314 140 c 1,40,-1
 314 378 l 1,29,30
EndSplineSet
EndChar

StartChar: exclam
Encoding: 33 33 59
Width: 276
Flags: HW
LayerCount: 2
Fore
SplineSet
97 247 m 1,0,-1
 58 675 l 1,1,-1
 202 689 l 1,2,-1
 223 651 l 1,3,-1
 175 247 l 1,4,-1
 97 247 l 1,0,-1
70 63 m 256,5,6
 70 91 70 91 90 110 c 128,-1,7
 110 129 110 129 137.5 129 c 0,8,9
 165 129 165 129 184.5 110 c 128,-1,10
 204 91 204 91 204 63 c 256,11,12
 204 35 204 35 184.5 15.5 c 128,-1,13
 165 -4 165 -4 137.5 -4 c 0,14,15
 110 -4 110 -4 90 15.5 c 128,-1,16
 70 35 70 35 70 63 c 256,5,6
EndSplineSet
EndChar

StartChar: question
Encoding: 63 63 60
Width: 429
Flags: HW
LayerCount: 2
Fore
SplineSet
226 247 m 1,0,-1
 227 236 l 1,1,-1
 128 235 l 1,2,3
 118 260 118 260 118 296 c 128,-1,4
 118 332 118 332 129 354.5 c 128,-1,5
 140 377 140 377 156 395.5 c 128,-1,6
 172 414 172 414 191 429.5 c 128,-1,7
 210 445 210 445 226 460.5 c 0,8,9
 264 497.3125 264 497.3125 264 532.65625 c 128,-1,10
 264 568 264 568 244 583.5 c 128,-1,11
 224 599 224 599 203 599 c 0,12,13
 159.333333333 599 159.333333333 599 138 591 c 1,14,-1
 113 495 l 1,15,-1
 32 495 l 1,16,-1
 48 670 l 1,17,18
 141.090909091 702 141.090909091 702 222.045454545 702 c 128,-1,19
 303 702 303 702 352 660.5 c 128,-1,20
 401 619 401 619 401 551 c 0,21,22
 401 444.444444444 401 444.444444444 313.5 372.5 c 0,23,24
 258.536806342 327.30804077 258.536806342 327.30804077 242.268403171 301.654020385 c 128,-1,25
 226 276 226 276 226 247 c 1,0,-1
111 63 m 256,26,27
 111 91 111 91 130.5 110 c 128,-1,28
 150 129 150 129 178 129 c 256,29,30
 206 129 206 129 225 110 c 128,-1,31
 244 91 244 91 244 63 c 256,32,33
 244 35 244 35 225 15.5 c 128,-1,34
 206 -4 206 -4 178 -4 c 256,35,36
 150 -4 150 -4 130.5 15.5 c 128,-1,37
 111 35 111 35 111 63 c 256,26,27
EndSplineSet
EndChar

StartChar: bar
Encoding: 124 124 61
Width: 270
Flags: HW
LayerCount: 2
Fore
SplineSet
195 689 m 1,0,-1
 195 -201 l 1,1,-1
 75 -201 l 1,2,-1
 75 689 l 1,3,-1
 195 689 l 1,0,-1
EndSplineSet
EndChar

StartChar: zero
Encoding: 48 48 62
Width: 590
Flags: HW
LayerCount: 2
Fore
SplineSet
37 343 m 256,0,1
 37 576.12244898 37 576.12244898 174 660 c 0,2,3
 223 690 223 690 294 690 c 256,4,5
 426.268041237 690 426.268041237 690 494.5 581.5 c 0,6,7
 553 488.475409836 553 488.475409836 553 343 c 256,8,9
 553 198.983606557 553 198.983606557 494.5 105 c 0,10,11
 426.653061224 -4 426.653061224 -4 294 -4 c 256,12,13
 162.346938776 -4 162.346938776 -4 94.5 105 c 0,14,15
 37 197.37704918 37 197.37704918 37 343 c 256,0,1
175 343 m 256,16,17
 175 243.153846154 175 243.153846154 192 196.076923077 c 128,-1,18
 209 149 209 149 232.5 125 c 128,-1,19
 256 101 256 101 294.5 101 c 128,-1,20
 333 101 333 101 356.5 125 c 128,-1,21
 380 149 380 149 393 185 c 0,22,23
 415 245.923076923 415 245.923076923 415 343 c 256,24,25
 415 440.076923077 415 440.076923077 397.5 488.538461538 c 128,-1,26
 380 537 380 537 356.5 561 c 128,-1,27
 333 585 333 585 294.5 585 c 128,-1,28
 256 585 256 585 232.5 561 c 128,-1,29
 209 537 209 537 196 501 c 0,30,31
 175 442.846153846 175 442.846153846 175 343 c 256,16,17
EndSplineSet
EndChar

StartChar: one
Encoding: 49 49 63
Width: 365
Flags: HW
LayerCount: 2
Fore
SplineSet
347 38 m 1,0,-1
 346 1 l 1,1,-1
 37 1 l 1,2,-1
 34 83 l 1,3,-1
 133 98 l 1,4,-1
 133 555 l 1,5,-1
 40 538 l 1,6,-1
 20 625 l 1,7,-1
 249 694 l 1,8,-1
 264 685 l 1,9,-1
 264 93 l 1,10,-1
 349 80 l 1,11,12
 349 74 349 74 348 62 c 2,13,-1
 347 38 l 1,0,-1
EndSplineSet
EndChar

StartChar: two
Encoding: 50 50 64
Width: 538
Flags: HW
LayerCount: 2
Fore
SplineSet
53 0 m 1,0,-1
 38 81 l 1,1,2
 52 98 52 98 79.5 126.5 c 128,-1,3
 107 155 107 155 139.5 190.5 c 128,-1,4
 172 226 172 226 206.5 266.5 c 128,-1,5
 241 307 241 307 268.5 347.5 c 0,6,7
 332 441.018181818 332 441.018181818 332 492.509090909 c 128,-1,8
 332 544 332 544 307.5 564 c 128,-1,9
 283 584 283 584 254.5 584 c 0,10,11
 208 584 208 584 186 574 c 1,12,-1
 142 470 l 1,13,-1
 14 535 l 1,14,15
 74.192 642.008 74.192 642.008 185 677 c 0,16,17
 223 689 223 689 261.5 689 c 128,-1,18
 300 689 300 689 336.5 678.5 c 128,-1,19
 373 668 373 668 402.5 645.5 c 0,20,21
 470 594.016949153 470 594.016949153 470 500 c 0,22,23
 470 375.633333333 470 375.633333333 301 201 c 0,24,25
 271 170 271 170 245.5 145.5 c 128,-1,26
 220 121 220 121 204 105 c 1,27,-1
 391 105 l 1,28,-1
 432 215 l 1,29,-1
 510 215 l 1,30,-1
 488 0 l 1,31,-1
 53 0 l 1,0,-1
EndSplineSet
EndChar

StartChar: three
Encoding: 51 51 65
Width: 522
Flags: HW
LayerCount: 2
Fore
SplineSet
17 535 m 1,0,1
 101.545454545 690 101.545454545 690 264 690 c 0,2,3
 344.782608696 690 344.782608696 690 402.5 645 c 0,4,5
 470 592.372881356 470 592.372881356 470 505 c 0,6,7
 470 449.172413793 470 449.172413793 439.5 405 c 0,8,9
 407.696132597 358.939226519 407.696132597 358.939226519 358 349 c 1,10,11
 408.703703704 338.325536062 408.703703704 338.325536062 433.851851852 315.162768031 c 0,12,13
 484 268.973684211 484 268.973684211 484 201 c 0,14,15
 484 103.970149254 484 103.970149254 408.5 46.5 c 0,16,17
 342.156862745 -4 342.156862745 -4 253 -4 c 0,18,19
 172.863636364 -4 172.863636364 -4 105.5 22 c 0,20,21
 57.4571428571 40.5428571429 57.4571428571 40.5428571429 25 73 c 1,22,-1
 96 176 l 1,23,24
 128 146 128 146 165 123 c 128,-1,25
 202 100 202 100 242.5 100 c 128,-1,26
 283 100 283 100 302 112 c 128,-1,27
 321 124 321 124 331 139.5 c 0,28,29
 346 162.75 346 162.75 346 183.375 c 128,-1,30
 346 204 346 204 341 221.5 c 128,-1,31
 336 239 336 239 321 254 c 0,32,33
 285 290 285 290 202 290 c 2,34,-1
 135 290 l 1,35,-1
 135 395 l 1,36,-1
 182 395 l 2,37,38
 331 395 331 395 331 500 c 0,39,40
 331 542.923076923 331 542.923076923 301 566 c 0,41,42
 276.3 585 276.3 585 251.65 585 c 0,43,44
 201.5 585 201.5 585 184 578 c 1,45,-1
 138 470 l 1,46,-1
 17 535 l 1,0,1
EndSplineSet
EndChar

StartChar: four
Encoding: 52 52 66
Width: 539
Flags: HW
LayerCount: 2
Fore
SplineSet
500 62 m 2,0,1
 500 9 500 9 503 0 c 1,2,-1
 152 0 l 1,3,-1
 152 83 l 1,4,-1
 295 98 l 1,5,-1
 295 187 l 1,6,-1
 33 187 l 1,7,-1
 -5 275 l 1,8,-1
 278 691 l 1,9,-1
 425 691 l 1,10,-1
 425 292 l 1,11,-1
 503 292 l 1,12,-1
 503 187 l 1,13,-1
 425 187 l 1,14,-1
 425 94 l 1,15,-1
 500 81 l 1,16,-1
 500 62 l 2,0,1
295 292 m 1,17,-1
 295 549 l 1,18,-1
 117 292 l 1,19,-1
 295 292 l 1,17,-1
EndSplineSet
EndChar

StartChar: five
Encoding: 53 53 67
Width: 517
Flags: HW
LayerCount: 2
Fore
SplineSet
173.125 372 m 0,0,1
 129.25 372 129.25 372 74 355 c 1,2,-1
 74 658 l 1,3,-1
 104 691 l 1,4,-1
 467 691 l 1,5,-1
 467 585 l 1,6,-1
 205 585 l 1,7,-1
 205 470 l 1,8,9
 223 472 223 472 259 472 c 128,-1,10
 295 472 295 472 339.5 456 c 128,-1,11
 384 440 384 440 416 410 c 0,12,13
 483 347.1875 483 347.1875 483 240 c 0,14,15
 483 126.428571429 483 126.428571429 408 60 c 0,16,17
 335.741935484 -4 335.741935484 -4 220 -4 c 0,18,19
 88 -4 88 -4 11 73 c 1,20,-1
 71 171 l 1,21,22
 110.116022099 124.060773481 110.116022099 124.060773481 165.5 106.5 c 0,23,24
 186 100 186 100 211.5 100 c 128,-1,25
 237 100 237 100 262 110 c 128,-1,26
 287 120 287 120 305.5 138.5 c 0,27,28
 345 178 345 178 345 237 c 0,29,30
 345 300.6 345 300.6 295.5 338 c 0,31,32
 250.5 372 250.5 372 173.125 372 c 0,0,1
EndSplineSet
EndChar

StartChar: six
Encoding: 54 54 68
Width: 554
Flags: HW
LayerCount: 2
Fore
SplineSet
202 664 m 128,-1,1
 254 691 254 691 308.5 691.5 c 128,-1,2
 363 692 363 692 396.5 680 c 128,-1,3
 430 668 430 668 453 651.5 c 0,4,5
 486.861111111 627.208333333 486.861111111 627.208333333 513 588 c 1,6,-1
 398 514 l 1,7,-1
 349 582 l 1,8,9
 331.5 587 331.5 587 309.25 587 c 128,-1,10
 287 587 287 587 264.5 574.5 c 128,-1,11
 242 562 242 562 222.5 536 c 0,12,13
 177.44 475.92 177.44 475.92 172 378 c 1,14,15
 195 404 195 404 234 419 c 128,-1,16
 273 434 273 434 312.5 434 c 128,-1,17
 352 434 352 434 388.5 421.5 c 128,-1,18
 425 409 425 409 454.5 383.5 c 0,19,20
 522 325.152542373 522 325.152542373 522 222 c 0,21,22
 522 120.542372881 522 120.542372881 460.5 58 c 0,23,24
 399.533333333 -4 399.533333333 -4 294 -4 c 0,25,26
 158.96969697 -4 158.96969697 -4 92 106.5 c 0,27,28
 36 198.9 36 198.9 36 350 c 0,29,30
 36 495.27027027 36 495.27027027 113 591 c 0,31,0
 150 637 150 637 202 664 c 128,-1,1
189 207 m 1,32,33
 218.956521739 101 218.956521739 101 292 101 c 0,34,35
 342 101 342 101 363.5 134 c 128,-1,36
 385 167 385 167 385 205 c 128,-1,37
 385 243 385 243 376 263.5 c 128,-1,38
 367 284 367 284 353 298.5 c 0,39,40
 325.482758621 327 325.482758621 327 286.74137931 327 c 128,-1,41
 248 327 248 327 218.5 298 c 128,-1,42
 189 269 189 269 189 207 c 1,32,33
EndSplineSet
EndChar

StartChar: seven
Encoding: 55 55 69
Width: 455
Flags: HW
LayerCount: 2
Fore
SplineSet
129 567 m 1,0,-1
 108 454 l 1,1,-1
 24 454 l 1,2,-1
 24 691 l 1,3,-1
 440 691 l 1,4,-1
 458 665 l 1,5,-1
 251 0 l 1,6,-1
 115 0 l 1,7,-1
 104 20 l 1,8,-1
 324 567 l 1,9,-1
 129 567 l 1,0,-1
EndSplineSet
EndChar

StartChar: eight
Encoding: 56 56 70
Width: 545
Flags: HW
LayerCount: 2
Fore
SplineSet
149 376 m 1,0,1
 69 433.142857143 69 433.142857143 69 521 c 0,2,3
 69 608.4 69 608.4 137 656 c 0,4,5
 194.142857143 696 194.142857143 696 276 696 c 0,6,7
 357.45 696 357.45 696 414 657 c 0,8,9
 480 611.482758621 480 611.482758621 480 528 c 0,10,11
 480 478 480 478 452 440.5 c 128,-1,12
 424 403 424 403 384 374 c 1,13,14
 447.504273504 338.437606838 447.504273504 338.437606838 469.252136752 311.718803419 c 0,15,16
 512 259.2 512 259.2 512 202.1 c 128,-1,17
 512 145 512 145 492 108 c 128,-1,18
 472 71 472 71 438 46 c 0,19,20
 368.64 -5 368.64 -5 270 -5 c 256,21,22
 170.191489362 -5 170.191489362 -5 104.5 42.5 c 0,23,24
 33 94.2 33 94.2 33 184 c 0,25,26
 33 247 33 247 63.5 297 c 128,-1,27
 94 347 94 347 149 376 c 1,0,1
193 264 m 128,-1,29
 171 232 171 232 171 198 c 128,-1,30
 171 164 171 164 184 144.5 c 128,-1,31
 197 125 197 125 214.5 115.5 c 0,32,33
 243.052631579 100 243.052631579 100 265.526315789 100 c 128,-1,34
 288 100 288 100 305.5 105 c 128,-1,35
 323 110 323 110 338 121.5 c 0,36,37
 374 149.1 374 149.1 374 198 c 0,38,39
 374 257.4 374 257.4 297.5 296.5 c 0,40,41
 275 308 275 308 251 320 c 1,42,28
 215 296 215 296 193 264 c 128,-1,29
282 424 m 1,43,44
 355 480.153846154 355 480.153846154 355 532 c 0,45,46
 355 562 355 562 335.5 586 c 128,-1,47
 316 610 316 610 276 610 c 128,-1,48
 236 610 236 610 215.5 587.5 c 128,-1,49
 195 565 195 565 195 529.5 c 128,-1,50
 195 494 195 494 220 469 c 128,-1,51
 245 444 245 444 282 424 c 1,43,44
EndSplineSet
EndChar

StartChar: nine
Encoding: 57 57 71
Width: 543
Flags: HW
LayerCount: 2
Fore
SplineSet
367 289 m 1,0,1
 321.782608696 249 321.782608696 249 253 249 c 0,2,3
 155.962264151 249 155.962264151 249 99.5 301.5 c 0,4,5
 39 357.754385965 39 357.754385965 39 458 c 0,6,7
 39 558.561403509 39 558.561403509 95.5 622 c 0,8,9
 156.953125 691 156.953125 691 271 691 c 0,10,11
 389.15625 691 389.15625 691 451.5 586 c 0,12,13
 506 494.210526316 506 494.210526316 506 338 c 0,14,15
 506 191.52173913 506 191.52173913 435.5 96.5 c 0,16,17
 360.935483871 -4 360.935483871 -4 234 -4 c 0,18,19
 137.703703704 -4 137.703703704 -4 59.5 47.5 c 0,20,21
 39 61 39 61 27 73 c 1,22,-1
 98 167 l 1,23,24
 165 104.466666667 165 104.466666667 243 101 c 1,25,26
 333.859416446 103.75331565 333.859416446 103.75331565 357.5 212.5 c 0,27,28
 365 247 365 247 367 289 c 1,0,1
262 354 m 0,29,30
 291 354 291 354 321.5 373 c 128,-1,31
 352 392 352 392 366 427 c 1,32,33
 359.119601329 540.526578073 359.119601329 540.526578073 309 573.5 c 0,34,35
 290 586 290 586 264 586 c 128,-1,36
 238 586 238 586 221 574.5 c 128,-1,37
 204 563 204 563 194 546 c 0,38,39
 175 513.7 175 513.7 175 466.35 c 128,-1,40
 175 419 175 419 196 386.5 c 128,-1,41
 217 354 217 354 262 354 c 0,29,30
EndSplineSet
EndChar

StartChar: quotedbl
Encoding: 34 34 72
Width: 371
Flags: HW
LayerCount: 2
Fore
SplineSet
28 689 m 1,0,-1
 151 699 l 1,1,-1
 168 669 l 1,2,-1
 139 442 l 1,3,-1
 64 442 l 1,4,-1
 28 689 l 1,0,-1
199 689 m 1,5,-1
 322 699 l 1,6,-1
 339 669 l 1,7,-1
 310 442 l 1,8,-1
 235 442 l 1,9,-1
 199 689 l 1,5,-1
EndSplineSet
EndChar

StartChar: bracketleft
Encoding: 91 91 73
Width: 336
Flags: HW
LayerCount: 2
Fore
SplineSet
194 640 m 1,0,-1
 194 -102 l 1,1,-1
 346 -102 l 1,2,-1
 346 -181 l 2,3,4
 346 -189 346 -189 339 -189 c 2,5,-1
 81 -189 l 1,6,-1
 74 -177 l 1,7,-1
 74 714 l 1,8,-1
 81 726 l 1,9,-1
 339 726 l 2,10,11
 346 726 346 726 346 719 c 2,12,-1
 346 640 l 1,13,-1
 194 640 l 1,0,-1
EndSplineSet
EndChar

StartChar: bracketright
Encoding: 93 93 74
Width: 336
Flags: HW
LayerCount: 2
Fore
SplineSet
-10 640 m 1,0,-1
 -10 719 l 2,1,2
 -10 726 -10 726 -4 726 c 2,3,-1
 254 726 l 1,4,-1
 262 714 l 1,5,-1
 262 -167 l 1,6,-1
 254 -179 l 1,7,-1
 -4 -179 l 2,8,9
 -10 -179 -10 -179 -10 -171 c 2,10,-1
 -10 -92 l 1,11,-1
 141 -92 l 1,12,-1
 141 640 l 1,13,-1
 -10 640 l 1,0,-1
EndSplineSet
EndChar

StartChar: plus
Encoding: 43 43 75
Width: 431
Flags: HW
LayerCount: 2
Fore
SplineSet
258 558 m 1,0,-1
 258 400 l 1,1,-1
 400 400 l 1,2,-1
 400 314 l 1,3,-1
 258 314 l 1,4,-1
 258 141 l 1,5,-1
 184 141 l 1,6,-1
 171 148 l 1,7,-1
 171 314 l 1,8,-1
 29 314 l 1,9,-1
 29 387 l 1,10,-1
 36 400 l 1,11,-1
 171 400 l 1,12,-1
 171 558 l 1,13,-1
 258 558 l 1,0,-1
EndSplineSet
EndChar

StartChar: asterisk
Encoding: 42 42 76
Width: 367
Flags: HW
LayerCount: 2
Fore
SplineSet
206 608 m 1,0,-1
 289 679 l 1,1,-1
 339 635 l 1,2,-1
 329 602 l 1,3,-1
 225 568 l 1,4,-1
 334 532 l 1,5,-1
 319 468 l 1,6,-1
 287 459 l 1,7,-1
 206 528 l 1,8,-1
 227 421 l 1,9,-1
 164 400 l 1,10,-1
 141 424 l 1,11,-1
 161 527 l 1,12,-1
 80 456 l 1,13,-1
 27 501 l 1,14,-1
 38 533 l 1,15,-1
 137 566 l 1,16,-1
 35 602 l 1,17,-1
 48 669 l 1,18,-1
 81 677 l 1,19,-1
 161 607 l 1,20,-1
 140 715 l 1,21,-1
 204 736 l 1,22,-1
 227 712 l 1,23,-1
 206 608 l 1,0,-1
178 559 m 1,24,-1
 189 560 l 1,25,-1
 193 567 l 1,26,-1
 188 576 l 1,27,-1
 179 575 l 1,28,-1
 174 566 l 1,29,-1
 178 559 l 1,24,-1
EndSplineSet
EndChar

StartChar: quotesingle
Encoding: 39 39 77
Width: 203
Flags: HW
LayerCount: 2
Fore
SplineSet
30 659 m 1,0,-1
 153 669 l 1,1,-1
 170 639 l 1,2,-1
 141 412 l 1,3,-1
 66 412 l 1,4,-1
 30 659 l 1,0,-1
EndSplineSet
EndChar

StartChar: plusminus
Encoding: 177 177 78
Width: 453
Flags: HW
LayerCount: 2
Fore
SplineSet
271 517 m 1,0,-1
 271 401 l 1,1,-1
 404 401 l 1,2,-1
 404 304 l 1,3,-1
 271 304 l 1,4,-1
 271 187 l 1,5,-1
 177 187 l 1,6,-1
 177 304 l 1,7,-1
 46 304 l 1,8,-1
 46 378 l 1,9,-1
 62 401 l 1,10,-1
 177 401 l 1,11,-1
 177 517 l 1,12,-1
 271 517 l 1,0,-1
404 51 m 1,13,-1
 46 51 l 1,14,-1
 46 125 l 1,15,-1
 62 148 l 1,16,-1
 404 148 l 1,17,-1
 404 51 l 1,13,-1
EndSplineSet
EndChar

StartChar: dieresis
Encoding: 168 168 79
Width: 417
Flags: HW
LayerCount: 2
Fore
SplineSet
52 531 m 256,0,1
 52 560 52 560 72 580 c 128,-1,2
 92 600 92 600 120.5 600 c 0,3,4
 149 600 149 600 169 580 c 128,-1,5
 189 560 189 560 189 531 c 256,6,7
 189 502 189 502 169 482.5 c 128,-1,8
 149 463 149 463 120.5 463 c 0,9,10
 92 463 92 463 72 482.5 c 128,-1,11
 52 502 52 502 52 531 c 256,0,1
230 531 m 256,12,13
 230 560 230 560 249.5 580 c 128,-1,14
 269 600 269 600 298 600 c 256,15,16
 327 600 327 600 346 580 c 128,-1,17
 365 560 365 560 365 531 c 256,18,19
 365 502 365 502 346 482.5 c 128,-1,20
 327 463 327 463 298 463 c 256,21,22
 269 463 269 463 249.5 482.5 c 128,-1,23
 230 502 230 502 230 531 c 256,12,13
EndSplineSet
EndChar

StartChar: grave
Encoding: 96 96 80
Width: 338
Flags: HW
LayerCount: 2
Fore
SplineSet
240 447 m 1,0,-1
 57 591 l 1,1,-1
 134 682 l 1,2,-1
 169 665 l 1,3,-1
 281 488 l 1,4,-1
 240 447 l 1,0,-1
EndSplineSet
EndChar

StartChar: acute
Encoding: 180 180 81
Width: 348
Flags: HW
LayerCount: 2
Fore
SplineSet
52 513 m 1,0,-1
 181 677 l 1,1,-1
 218 692 l 1,2,-1
 296 583 l 1,3,-1
 99 459 l 1,4,-1
 52 513 l 1,0,-1
EndSplineSet
EndChar

StartChar: underscore
Encoding: 95 95 82
Width: 553
Flags: HW
LayerCount: 2
Fore
SplineSet
0 -86 m 1,0,-1
 0 -13 l 1,1,-1
 11 0 l 1,2,-1
 547 0 l 2,3,4
 553 0 553 0 553 -7 c 2,5,-1
 553 -86 l 1,6,-1
 0 -86 l 1,0,-1
EndSplineSet
EndChar

StartChar: exclamdown
Encoding: 161 161 83
Width: 264
Flags: HW
LayerCount: 2
Fore
SplineSet
168 241 m 1,0,-1
 216 -163 l 1,1,-1
 195 -201 l 1,2,-1
 51 -187 l 1,3,-1
 90 241 l 1,4,-1
 168 241 l 1,0,-1
63 425 m 256,5,6
 63 453 63 453 83 472.5 c 128,-1,7
 103 492 103 492 130.5 492 c 0,8,9
 158 492 158 492 177.5 472.5 c 128,-1,10
 197 453 197 453 197 425 c 256,11,12
 197 397 197 397 177.5 378 c 128,-1,13
 158 359 158 359 130.5 359 c 0,14,15
 103 359 103 359 83 378 c 128,-1,16
 63 397 63 397 63 425 c 256,5,6
EndSplineSet
EndChar

StartChar: questiondown
Encoding: 191 191 84
Width: 407
Flags: HW
LayerCount: 2
Fore
SplineSet
295 253 m 1,0,1
 304 230.5 304 230.5 304 192.75 c 128,-1,2
 304 155 304 155 293.5 133 c 128,-1,3
 283 111 283 111 266.5 94.5 c 128,-1,4
 250 78 250 78 231.5 64 c 128,-1,5
 213 50 213 50 196.5 36 c 0,6,7
 159 4.18181818182 159 4.18181818182 159 -30.9090909091 c 128,-1,8
 159 -66 159 -66 177 -82.5 c 128,-1,9
 195 -99 195 -99 218 -99 c 0,10,11
 262.5 -99 262.5 -99 276 -90 c 1,12,-1
 302 5 l 1,13,-1
 373 5 l 1,14,-1
 357 -170 l 1,15,16
 325 -181 325 -181 288.5 -191.5 c 128,-1,17
 252 -202 252 -202 204.5 -202 c 128,-1,18
 157 -202 157 -202 123.5 -189.5 c 128,-1,19
 90 -177 90 -177 67.5 -156 c 0,20,21
 22 -113.533333333 22 -113.533333333 22 -50 c 0,22,23
 22 51.3777777778 22 51.3777777778 108.5 122.5 c 0,24,25
 161.983606557 166.475409836 161.983606557 166.475409836 178.491803279 191.237704918 c 128,-1,26
 195 216 195 216 195 243 c 2,27,-1
 195 252 l 1,28,-1
 295 253 l 1,0,1
312 425 m 256,29,30
 312 397 312 397 292.5 378 c 128,-1,31
 273 359 273 359 245 359 c 256,32,33
 217 359 217 359 198 378 c 128,-1,34
 179 397 179 397 179 425 c 256,35,36
 179 453 179 453 198 472.5 c 128,-1,37
 217 492 217 492 245 492 c 256,38,39
 273 492 273 492 292.5 472.5 c 128,-1,40
 312 453 312 453 312 425 c 256,29,30
EndSplineSet
EndChar

StartChar: Acircumflex
Encoding: 194 194 85
Width: 621
Flags: HW
LayerCount: 2
Fore
SplineSet
115 737 m 1,0,-1
 286 903 l 1,1,-1
 323 903 l 1,2,-1
 495 736 l 1,3,-1
 487 724 l 1,4,-1
 401 724 l 1,5,-1
 304 782 l 1,6,-1
 206 724 l 1,7,-1
 121 724 l 1,8,-1
 115 737 l 1,0,-1
349 0 m 1,9,-1
 349 75 l 1,10,-1
 429 96 l 1,11,-1
 393 218 l 1,12,-1
 197 218 l 1,13,-1
 159 92 l 1,14,-1
 247 76 l 1,15,-1
 247 0 l 1,16,-1
 8 0 l 1,17,-1
 -5 78 l 1,18,-1
 50 96 l 1,19,-1
 248 691 l 1,20,-1
 372 691 l 1,21,-1
 573 96 l 1,22,-1
 619 78 l 1,23,-1
 609 0 l 1,24,-1
 349 0 l 1,9,-1
228 323 m 1,25,-1
 349 323 l 1,26,-1
 296 549 l 1,27,-1
 228 323 l 1,25,-1
EndSplineSet
EndChar

StartChar: at
Encoding: 64 64 86
Width: 879
Flags: HW
LayerCount: 2
Fore
SplineSet
548 132 m 1,0,1
 505.727272727 101 505.727272727 101 436 101 c 0,2,3
 360.714285714 101 360.714285714 101 305 146.5 c 0,4,5
 235 203.666666667 235 203.666666667 235 308 c 0,6,7
 235 424.7 235 424.7 319 483.5 c 0,8,9
 379.714285714 526 379.714285714 526 451.357142857 526 c 128,-1,10
 523 526 523 526 575 500 c 1,11,-1
 602 509 l 1,12,-1
 635 498 l 1,13,-1
 635 244 l 2,14,15
 635 216 635 216 644 210.5 c 128,-1,16
 653 205 653 205 663 205 c 128,-1,17
 673 205 673 205 684 214.5 c 128,-1,18
 695 224 695 224 705 244 c 0,19,20
 729 292 729 292 729 357.5 c 128,-1,21
 729 423 729 423 710 467.5 c 128,-1,22
 691 512 691 512 655 544 c 0,23,24
 578.5 612 578.5 612 449 612 c 0,25,26
 326.64 612 326.64 612 243 535.5 c 0,27,28
 153 453.182926829 153 453.182926829 153 320 c 0,29,30
 153 182.487804878 153 182.487804878 242 100 c 0,31,32
 325.078947368 23 325.078947368 23 460 23 c 0,33,34
 540.181818182 23 540.181818182 23 586 44 c 1,35,-1
 609 40 l 1,36,-1
 573 -76 l 1,37,38
 521 -92 521 -92 440.5 -92 c 128,-1,39
 360 -92 360 -92 285.5 -65 c 128,-1,40
 211 -38 211 -38 155 14.5 c 128,-1,41
 99 67 99 67 65.5 144 c 128,-1,42
 32 221 32 221 32 321.5 c 128,-1,43
 32 422 32 422 69 498 c 128,-1,44
 106 574 106 574 166.5 625.5 c 128,-1,45
 227 677 227 677 304 703 c 128,-1,46
 381 729 381 729 461 729 c 256,47,48
 541 729 541 729 612 703 c 128,-1,49
 683 677 683 677 736 629.5 c 128,-1,50
 789 582 789 582 819.5 516 c 128,-1,51
 850 450 850 450 850 381 c 128,-1,52
 850 312 850 312 834 262.5 c 128,-1,53
 818 213 818 213 790.5 177 c 0,54,55
 731.680555556 100 731.680555556 100 645 100 c 0,56,57
 580 100 580 100 548 132 c 1,0,1
459 186 m 0,58,59
 488.4 186 488.4 186 515 205 c 1,60,61
 514 212 514 212 514 218 c 2,62,-1
 514 432 l 1,63,64
 492 442 492 442 464 442 c 0,65,66
 414 442 414 442 386.5 409.5 c 128,-1,67
 359 377 359 377 359 314.5 c 128,-1,68
 359 252 359 252 385.5 219 c 128,-1,69
 412 186 412 186 459 186 c 0,58,59
EndSplineSet
EndChar

StartChar: slash
Encoding: 47 47 87
Width: 486
Flags: HW
LayerCount: 2
Fore
SplineSet
148 0 m 1,0,-1
 23 0 l 1,1,-1
 20 13 l 1,2,-1
 338 691 l 1,3,-1
 466 691 l 1,4,-1
 465 677 l 1,5,-1
 148 0 l 1,0,-1
EndSplineSet
EndChar

StartChar: backslash
Encoding: 92 92 88
Width: 486
Flags: HW
LayerCount: 2
Fore
SplineSet
21 676 m 1,0,-1
 20 690 l 1,1,-1
 148 690 l 1,2,-1
 466 13 l 1,3,-1
 463 0 l 1,4,-1
 338 0 l 1,5,-1
 21 676 l 1,0,-1
EndSplineSet
EndChar

StartChar: numbersign
Encoding: 35 35 89
Width: 675
Flags: HW
LayerCount: 2
Fore
SplineSet
355 512 m 1,0,-1
 433 512 l 1,1,-1
 485 670 l 1,2,-1
 595 670 l 1,3,-1
 608 656 l 1,4,-1
 561 512 l 1,5,-1
 636 512 l 2,6,7
 642 512 642 512 642 504 c 2,8,-1
 642 407 l 1,9,-1
 526 407 l 1,10,-1
 487 288 l 1,11,-1
 594 288 l 2,12,13
 600 288 600 288 600 279 c 2,14,-1
 600 183 l 1,15,-1
 453 183 l 1,16,-1
 409 48 l 1,17,-1
 302 48 l 1,18,-1
 286 61 l 1,19,-1
 326 183 l 1,20,-1
 244 183 l 1,21,-1
 199 48 l 1,22,-1
 92 48 l 1,23,-1
 76 61 l 1,24,-1
 117 183 l 1,25,-1
 47 183 l 1,26,-1
 29 254 l 1,27,-1
 47 288 l 1,28,-1
 152 288 l 1,29,-1
 192 407 l 1,30,-1
 78 407 l 1,31,-1
 60 479 l 1,32,-1
 78 512 l 1,33,-1
 228 512 l 1,34,-1
 281 670 l 1,35,-1
 390 670 l 1,36,-1
 404 656 l 1,37,-1
 355 512 l 1,0,-1
280 288 m 1,38,-1
 360 288 l 1,39,-1
 399 407 l 1,40,-1
 320 407 l 1,41,-1
 280 288 l 1,38,-1
EndSplineSet
EndChar

StartChar: ampersand
Encoding: 38 38 90
Width: 710
Flags: HW
LayerCount: 2
Fore
SplineSet
439 587 m 0,0,1
 439 479.547169811 439 479.547169811 322 378 c 1,2,3
 334 364 334 364 345.5 350 c 128,-1,4
 357 336 357 336 371.5 320 c 0,5,6
 415 272 415 272 447 240 c 1,7,8
 463 274 463 274 471 314 c 1,9,-1
 424 314 l 1,10,-1
 403 399 l 1,11,-1
 594 399 l 1,12,-1
 609 383 l 1,13,14
 593.474885845 266.561643836 593.474885845 266.561643836 535 165 c 1,15,-1
 531 157 l 1,16,17
 581.953846154 108.169230769 581.953846154 108.169230769 598 99 c 1,18,-1
 642 148 l 1,19,-1
 718 52 l 1,20,21
 704 33 704 33 676 15.5 c 128,-1,22
 648 -2 648 -2 593 -2 c 0,23,24
 501 -2 501 -2 446 53 c 1,25,26
 374.75 -4 374.75 -4 274 -4 c 0,27,28
 170.846153846 -4 170.846153846 -4 104.5 46 c 0,29,30
 28 103.652173913 28 103.652173913 28 212.280632411 c 128,-1,31
 28 320.909090909 28 320.909090909 144 400 c 1,32,33
 88 481.666666667 88 481.666666667 88 555 c 0,34,35
 88 673.98630137 88 673.98630137 182.5 718 c 0,36,37
 219 735 219 735 276 735 c 0,38,39
 354 735 354 735 396.5 694 c 128,-1,40
 439 653 439 653 439 587 c 0,0,1
208 320 m 1,41,42
 159 271 159 271 159 210 c 0,43,44
 159 163 159 163 191.5 130.5 c 0,45,46
 226 96 226 96 275.5 96 c 128,-1,47
 325 96 325 96 367 130 c 1,48,49
 303.824034335 195.150214592 303.824034335 195.150214592 252 265 c 1,50,-1
 208 320 l 1,41,42
252 471 m 1,51,52
 316 530.428571429 316 530.428571429 316 580 c 0,53,54
 316 604 316 604 302 619.5 c 128,-1,55
 288 635 288 635 262.5 635 c 128,-1,56
 237 635 237 635 222.5 618 c 128,-1,57
 208 601 208 601 208 578.5 c 0,58,59
 208 537 208 537 252 471 c 1,51,52
EndSplineSet
EndChar

StartChar: parenleft
Encoding: 40 40 91
Width: 310
Flags: HW
LayerCount: 2
Fore
SplineSet
183 291 m 256,0,1
 183 77.25 183 77.25 282 -162 c 1,2,-1
 156 -162 l 1,3,4
 47 65.9090909091 47 65.9090909091 47 290 c 0,5,6
 47 433.848484848 47 433.848484848 86.5 571.5 c 0,7,8
 113.446043165 665.402877698 113.446043165 665.402877698 156 742 c 1,9,-1
 282 742 l 1,10,11
 217.58974359 621.230769231 217.58974359 621.230769231 192.5 439 c 0,12,13
 183 370 183 370 183 291 c 256,0,1
EndSplineSet
EndChar

StartChar: parenright
Encoding: 41 41 92
Width: 311
Flags: HW
LayerCount: 2
Fore
SplineSet
264 290 m 0,0,1
 264 68 264 68 154 -162 c 1,2,-1
 28 -162 l 1,3,4
 127 77.25 127 77.25 127 291 c 256,5,6
 127 430.642857143 127 430.642857143 94 565 c 0,7,8
 69.756097561 663.707317073 69.756097561 663.707317073 28 742 c 1,9,-1
 154 742 l 1,10,11
 198.622302158 661.679856115 198.622302158 661.679856115 219.811151079 587.839928058 c 0,12,13
 264 433.848484848 264 433.848484848 264 290 c 0,0,1
EndSplineSet
EndChar

StartChar: less
Encoding: 60 60 93
Width: 415
Flags: HW
LayerCount: 2
Fore
SplineSet
356 471 m 1,0,-1
 130 339 l 1,1,-1
 356 206 l 1,2,-1
 356 75 l 1,3,-1
 29 279 l 1,4,-1
 29 400 l 1,5,-1
 356 603 l 1,6,-1
 356 471 l 1,0,-1
EndSplineSet
EndChar

StartChar: greater
Encoding: 62 62 94
Width: 415
Flags: HW
LayerCount: 2
Fore
SplineSet
59 603 m 1,0,-1
 386 400 l 1,1,-1
 386 279 l 1,2,-1
 59 75 l 1,3,-1
 59 206 l 1,4,-1
 285 339 l 1,5,-1
 59 471 l 1,6,-1
 59 603 l 1,0,-1
EndSplineSet
EndChar

StartChar: asciicircum
Encoding: 94 94 95
Width: 514
Flags: HW
LayerCount: 2
Fore
SplineSet
82 561 m 1,0,-1
 253 726 l 1,1,-1
 290 726 l 1,2,-1
 462 560 l 1,3,-1
 455 548 l 1,4,-1
 369 548 l 1,5,-1
 271 616 l 1,6,-1
 173 548 l 1,7,-1
 88 548 l 1,8,-1
 82 561 l 1,0,-1
EndSplineSet
EndChar

StartChar: braceleft
Encoding: 123 123 96
Width: 367
Flags: HW
LayerCount: 2
Fore
SplineSet
109 49 m 1,0,-1
 113 140 l 257,1,2
 113 183.75 113 183.75 78 210 c 0,3,4
 46 234 46 234 2 234 c 1,5,-1
 2 316 l 1,6,7
 46 316 46 316 78 340 c 0,8,9
 113 366.25 113 366.25 113 408 c 1,10,-1
 109 503 l 1,11,12
 109 599.631578947 109 599.631578947 142 650 c 0,13,14
 183.275862069 713 183.275862069 713 285 713 c 0,15,16
 340 713 340 713 376 698 c 1,17,-1
 340 582 l 1,18,-1
 262 615 l 1,19,20
 242 607 242 607 237 576.5 c 128,-1,21
 232 546 232 546 232 507 c 2,22,-1
 233 426 l 1,23,24
 233 316.459459459 233 316.459459459 180.5 289.5 c 0,25,26
 162 280 162 280 137 277 c 1,27,-1
 129 274 l 1,28,29
 188.279503106 266.590062112 188.279503106 266.590062112 210.639751553 233.795031056 c 128,-1,30
 233 201 233 201 233 124 c 2,31,-1
 232 44 l 1,32,33
 232 -52 232 -52 262 -64 c 1,34,-1
 340 -30 l 1,35,-1
 376 -147 l 1,36,37
 340 -162 340 -162 284.5 -162 c 128,-1,38
 229 -162 229 -162 195 -144.5 c 128,-1,39
 161 -127 161 -127 141.5 -98 c 0,40,41
 109 -49.6666666667 109 -49.6666666667 109 49 c 1,0,-1
EndSplineSet
EndChar

StartChar: braceright
Encoding: 125 125 97
Width: 368
Flags: HW
LayerCount: 2
Fore
SplineSet
259 503 m 1,0,-1
 255 408 l 1,1,2
 255 366.25 255 366.25 290 340 c 0,3,4
 322 316 322 316 366 316 c 1,5,-1
 366 234 l 1,6,7
 322 234 322 234 290 210 c 0,8,9
 255 183.75 255 183.75 255 140 c 257,10,-1
 259 49 l 1,11,12
 259 -49.6666666667 259 -49.6666666667 226.5 -98 c 0,13,14
 183.465517241 -162 183.465517241 -162 83 -162 c 0,15,16
 30 -162 30 -162 -9 -147 c 1,17,-1
 28 -30 l 1,18,-1
 106 -64 l 1,19,20
 125 -56 125 -56 130.5 -25 c 128,-1,21
 136 6 136 6 136 44 c 2,22,-1
 135 124 l 2,23,24
 135 201 135 201 157.5 234 c 128,-1,25
 180 267 180 267 231 273 c 1,26,-1
 239 276 l 1,27,28
 204.379310345 280.327586207 204.379310345 280.327586207 186.689655172 289.663793103 c 128,-1,29
 169 299 169 299 157.5 316.5 c 0,30,31
 135 350.739130435 135 350.739130435 135 426 c 2,32,-1
 136 507 l 2,33,34
 136 546 136 546 131 576.5 c 128,-1,35
 126 607 126 607 106 615 c 1,36,-1
 28 582 l 1,37,-1
 -9 698 l 1,38,39
 30 713 30 713 84 713 c 128,-1,40
 138 713 138 713 172.5 696 c 128,-1,41
 207 679 207 679 226 650 c 0,42,43
 259 599.631578947 259 599.631578947 259 503 c 1,0,-1
EndSplineSet
EndChar

StartChar: asciitilde
Encoding: 126 126 98
Width: 436
Flags: HW
LayerCount: 2
Fore
SplineSet
343 697 m 1,0,-1
 424 622 l 1,1,2
 366.066666667 543 366.066666667 543 303 543 c 0,3,4
 269.705882353 543 269.705882353 543 230 565.5 c 0,5,6
 215 574 215 574 199.5 581 c 128,-1,7
 184 588 184 588 159 588 c 128,-1,8
 134 588 134 588 117 571 c 128,-1,9
 100 554 100 554 94 534 c 1,10,-1
 20 579 l 1,11,-1
 20 597 l 1,12,13
 30.4117647059 628.235294118 30.4117647059 628.235294118 53.7058823529 648.617647059 c 0,14,15
 99.8571428571 689 99.8571428571 689 152 689 c 0,16,17
 203.875 689 203.875 689 269.5 647 c 0,18,19
 282 639 282 639 289 639 c 1,20,-1
 343 697 l 1,0,-1
EndSplineSet
EndChar

StartChar: dollar
Encoding: 36 36 99
Width: 511
Flags: HW
LayerCount: 2
Fore
SplineSet
214 -154 m 1,0,-1
 214 -2 l 1,1,2
 138.597014925 4.28358208955 138.597014925 4.28358208955 47 42 c 1,3,-1
 33 232 l 1,4,-1
 120 232 l 1,5,-1
 151 115 l 1,6,7
 193 101 193 101 242 101 c 128,-1,8
 291 101 291 101 317.5 124 c 128,-1,9
 344 147 344 147 344 191 c 0,10,11
 344 242.119047619 344 242.119047619 268 276.5 c 0,12,13
 247 286 247 286 216.5 298.5 c 128,-1,14
 186 311 186 311 151.5 329 c 128,-1,15
 117 347 117 347 91.5 371 c 0,16,17
 37 422.294117647 37 422.294117647 37 503 c 0,18,19
 37 579.166666667 37 579.166666667 89 629 c 0,20,21
 137.644978784 675.618104668 137.644978784 675.618104668 214 688 c 1,22,-1
 214 807 l 1,23,-1
 313 807 l 1,24,-1
 313 692 l 1,25,26
 389.464530892 686.405034325 389.464530892 686.405034325 452 661 c 1,27,-1
 467 474 l 1,28,-1
 383 474 l 1,29,-1
 338 577 l 1,30,31
 309.4 588 309.4 588 268.2 588 c 128,-1,32
 227 588 227 588 200.5 570 c 128,-1,33
 174 552 174 552 174 513 c 0,34,35
 174 475.923076923 174 475.923076923 214.5 451 c 0,36,37
 234 439 234 439 262 426.5 c 128,-1,38
 290 414 290 414 324 397 c 0,39,40
 395 361 395 361 438 314.5 c 128,-1,41
 481 268 481 268 481 203 c 0,42,43
 481 117.260869565 481 117.260869565 432 64 c 0,44,45
 388.931372549 17.1862745098 388.931372549 17.1862745098 313 2 c 1,46,-1
 313 -154 l 1,47,-1
 214 -154 l 1,0,-1
EndSplineSet
EndChar

StartChar: divide
Encoding: 247 247 100
Width: 419
Flags: HW
LayerCount: 2
Fore
SplineSet
136 84 m 256,0,1
 136 112 136 112 155.5 131 c 128,-1,2
 175 150 175 150 203 150 c 256,3,4
 231 150 231 150 250 131 c 128,-1,5
 269 112 269 112 269 84 c 256,6,7
 269 56 269 56 250 36.5 c 128,-1,8
 231 17 231 17 203 17 c 256,9,10
 175 17 175 17 155.5 36.5 c 128,-1,11
 136 56 136 56 136 84 c 256,0,1
155.5 358 m 128,-1,13
 136 378 136 378 136 405.5 c 128,-1,14
 136 433 136 433 155.5 452 c 128,-1,15
 175 471 175 471 203 471 c 256,16,17
 231 471 231 471 250 452 c 128,-1,18
 269 433 269 433 269 405.5 c 128,-1,19
 269 378 269 378 250 358 c 128,-1,20
 231 338 231 338 203 338 c 256,21,12
 175 338 175 338 155.5 358 c 128,-1,13
32 294 m 1,22,-1
 387 294 l 1,23,-1
 387 194 l 1,24,-1
 32 194 l 1,25,-1
 32 294 l 1,22,-1
EndSplineSet
EndChar

StartChar: cent
Encoding: 162 162 101
Width: 438
Flags: HW
LayerCount: 2
Fore
SplineSet
405 52 m 1,0,1
 368.614624506 13.6996047431 368.614624506 13.6996047431 303 1 c 1,2,-1
 303 -200 l 1,3,-1
 182 -200 l 1,4,-1
 182 5 l 1,5,6
 74.6757631822 36.1586493987 74.6757631822 36.1586493987 39.5 144.5 c 0,7,8
 27 183 27 183 27 237.5 c 128,-1,9
 27 292 27 292 40 335.5 c 128,-1,10
 53 379 53 379 74.5 409 c 0,11,12
 114.664835165 465.043956044 114.664835165 465.043956044 182 483 c 1,13,-1
 182 689 l 1,14,-1
 303 689 l 1,15,-1
 303 484 l 1,16,17
 369 467.5 369 467.5 403 416.5 c 0,18,19
 410 406 410 406 412 402 c 1,20,-1
 291 337 l 1,21,-1
 248 397 l 1,22,23
 202 397 202 397 176.5 354 c 128,-1,24
 151 311 151 311 151 238 c 0,25,26
 151 137.363636364 151 137.363636364 214 103 c 0,27,28
 236 91 236 91 262 91 c 128,-1,29
 288 91 288 91 306 96.5 c 128,-1,30
 324 102 324 102 338.5 109.5 c 128,-1,31
 353 117 353 117 363 125.5 c 128,-1,32
 373 134 373 134 379 139 c 1,33,34
 381 132 381 132 385 120 c 128,-1,35
 389 108 389 108 393 95 c 128,-1,36
 397 82 397 82 400 70 c 128,-1,37
 403 58 403 58 405 52 c 1,0,1
EndSplineSet
EndChar

StartChar: oslash
Encoding: 248 248 102
Width: 499
Flags: HW
LayerCount: 2
Fore
SplineSet
107 51 m 1,0,1
 29 122.314285714 29 122.314285714 29 246 c 0,2,3
 29 360 29 360 98 429 c 0,4,5
 160 491 160 491 249 491 c 0,6,7
 267 491 267 491 285 488 c 1,8,-1
 325 585 l 1,9,-1
 443 585 l 1,10,-1
 442 572 l 1,11,-1
 388 440 l 1,12,13
 470 371.666666667 470 371.666666667 470 246 c 0,14,15
 470 129.612903226 470 129.612903226 401 59.5 c 0,16,17
 338.507936508 -4 338.507936508 -4 249 -4 c 0,18,19
 229 -4 229 -4 209 0 c 1,20,-1
 167 -105 l 1,21,-1
 52 -105 l 1,22,-1
 49 -92 l 1,23,-1
 107 51 l 1,0,1
338.5 169.5 m 0,24,25
 346 198 346 198 346 240.5 c 128,-1,26
 346 283 346 283 337 315 c 1,27,-1
 249 90 l 1,28,29
 317.578947368 90 317.578947368 90 338.5 169.5 c 0,24,25
160.5 311.5 m 0,30,31
 153 282 153 282 153 242.5 c 128,-1,32
 153 203 153 203 159 178 c 1,33,-1
 248 397 l 1,34,35
 182.237288136 397 182.237288136 397 160.5 311.5 c 0,30,31
EndSplineSet
EndChar

StartChar: percent
Encoding: 37 37 103
Width: 823
Flags: HW
LayerCount: 2
Fore
SplineSet
593 242.5 m 128,-1,1
 581 217 581 217 581 179.5 c 128,-1,2
 581 142 581 142 593 116 c 128,-1,3
 605 90 605 90 630.5 90 c 128,-1,4
 656 90 656 90 668.5 116 c 128,-1,5
 681 142 681 142 681 179.5 c 128,-1,6
 681 217 681 217 668.5 242.5 c 128,-1,7
 656 268 656 268 630.5 268 c 128,-1,0
 605 268 605 268 593 242.5 c 128,-1,1
465 180 m 256,8,9
 465 257.159090909 465 257.159090909 512 309.5 c 128,-1,10
 559.142857143 362 559.142857143 362 631 362 c 256,11,12
 704.127659574 362 704.127659574 362 748.5 313.5 c 0,13,14
 795 262.674418605 795 262.674418605 795 180 c 0,15,16
 795 103.069767442 795 103.069767442 748.5 49 c 0,17,18
 702.92 -4 702.92 -4 631 -4 c 256,19,20
 558.64 -4 558.64 -4 512 49 c 0,21,22
 465 102.409090909 465 102.409090909 465 180 c 256,8,9
254 0 m 1,23,-1
 130 0 l 1,24,-1
 120 13 l 1,25,-1
 564 691 l 1,26,-1
 688 691 l 1,27,-1
 698 677 l 1,28,-1
 254 0 l 1,23,-1
156 579.5 m 128,-1,30
 144 554 144 554 144 516.5 c 128,-1,31
 144 479 144 479 156 453 c 128,-1,32
 168 427 168 427 193.5 427 c 128,-1,33
 219 427 219 427 231.5 453 c 128,-1,34
 244 479 244 479 244 516.5 c 128,-1,35
 244 554 244 554 231.5 579.5 c 128,-1,36
 219 605 219 605 193.5 605 c 128,-1,29
 168 605 168 605 156 579.5 c 128,-1,30
28 517 m 256,37,38
 28 594.159090909 28 594.159090909 75 646.5 c 128,-1,39
 122.142857143 699 122.142857143 699 194 699 c 256,40,41
 267.127659574 699 267.127659574 699 311.5 650.5 c 0,42,43
 358 599.674418605 358 599.674418605 358 517 c 0,44,45
 358 440.069767442 358 440.069767442 311.5 386 c 0,46,47
 265.92 333 265.92 333 194 333 c 256,48,49
 121.64 333 121.64 333 75 386 c 0,50,51
 28 439.409090909 28 439.409090909 28 517 c 256,37,38
EndSplineSet
EndChar

StartChar: sterling
Encoding: 163 163 104
Width: 528
Flags: HW
LayerCount: 2
Fore
SplineSet
163 451 m 1,0,-1
 162 508 l 1,1,2
 162 603.673469388 162 603.673469388 216.5 651.5 c 0,3,4
 262.651162791 692 262.651162791 692 333 692 c 128,-1,5
 403.333333333 692 403.333333333 692 474 639 c 1,6,-1
 383 538 l 1,7,-1
 341 586 l 1,8,9
 307.32 586 307.32 586 298.5 561.5 c 0,10,11
 292 543.444444444 292 543.444444444 292 485 c 2,12,-1
 292 448 l 2,13,14
 292 431 292 431 291 413 c 1,15,-1
 416 413 l 2,16,17
 423 413 423 413 423 405 c 2,18,-1
 423 318 l 1,19,-1
 283 318 l 1,20,21
 272.369918699 215.951219512 272.369918699 215.951219512 244 143 c 1,22,23
 278.666666667 135.777777778 278.666666667 135.777777778 315.833333333 123.388888889 c 0,24,25
 380 102 380 102 393 102 c 1,26,-1
 429 144 l 1,27,-1
 498 34 l 1,28,29
 463.454545455 -4 463.454545455 -4 385 -4 c 0,30,31
 335.823529412 -4 335.823529412 -4 288.411764706 11.5 c 128,-1,32
 241 27 241 27 218 34 c 128,-1,33
 195 41 195 41 168 41 c 128,-1,34
 141 41 141 41 124.5 27 c 128,-1,35
 108 13 108 13 103 -4 c 1,36,-1
 28 3 l 1,37,-1
 25 48 l 1,38,39
 37.4285714286 75.9642857143 37.4285714286 75.9642857143 72.2142857143 112.982142857 c 0,40,41
 136.098755187 180.965975104 136.098755187 180.965975104 155 318 c 1,42,-1
 90 318 l 1,43,-1
 90 404 l 1,44,-1
 98 413 l 1,45,-1
 162 413 l 1,46,47
 163 422 163 422 163 431 c 2,48,-1
 163 451 l 1,0,-1
EndSplineSet
EndChar

StartChar: Agrave
Encoding: 192 192 105
Width: 621
Flags: HW
LayerCount: 2
Fore
SplineSet
349 0 m 1,0,-1
 349 75 l 1,1,-1
 429 96 l 1,2,-1
 393 218 l 1,3,-1
 197 218 l 1,4,-1
 159 92 l 1,5,-1
 247 76 l 1,6,-1
 247 0 l 1,7,-1
 8 0 l 1,8,-1
 -5 78 l 1,9,-1
 50 96 l 1,10,-1
 248 691 l 1,11,-1
 372 691 l 1,12,-1
 573 96 l 1,13,-1
 619 78 l 1,14,-1
 609 0 l 1,15,-1
 349 0 l 1,0,-1
228 323 m 1,16,-1
 349 323 l 1,17,-1
 296 549 l 1,18,-1
 228 323 l 1,16,-1
377 724 m 1,19,-1
 194 868 l 1,20,-1
 271 959 l 1,21,-1
 306 942 l 1,22,-1
 418 765 l 1,23,-1
 377 724 l 1,19,-1
EndSplineSet
EndChar

StartChar: Egrave
Encoding: 200 200 106
Width: 555
Flags: HW
LayerCount: 2
Fore
SplineSet
497 691 m 1,0,-1
 516 487 l 1,1,-1
 438 487 l 1,2,-1
 397 586 l 1,3,-1
 235 586 l 1,4,-1
 235 408 l 1,5,-1
 387 408 l 1,6,-1
 387 303 l 1,7,-1
 235 303 l 1,8,-1
 235 105 l 1,9,-1
 404 105 l 1,10,-1
 441 204 l 1,11,-1
 520 204 l 1,12,-1
 499 0 l 1,13,-1
 53 0 l 1,14,-1
 39 88 l 1,15,-1
 104 101 l 1,16,-1
 104 595 l 1,17,-1
 41 602 l 1,18,-1
 41 691 l 1,19,-1
 497 691 l 1,0,-1
353 724 m 1,20,-1
 170 868 l 1,21,-1
 247 959 l 1,22,-1
 282 942 l 1,23,-1
 394 765 l 1,24,-1
 353 724 l 1,20,-1
EndSplineSet
EndChar

StartChar: Igrave
Encoding: 204 204 107
Width: 348
Flags: HW
LayerCount: 2
Fore
SplineSet
312 68 m 1,0,-1
 311 15 l 1,1,-1
 311 0 l 1,2,-1
 51 0 l 1,3,-1
 37 89 l 1,4,-1
 107 102 l 1,5,-1
 107 593 l 1,6,-1
 39 600 l 1,7,-1
 39 691 l 1,8,-1
 299 691 l 1,9,-1
 314 598 l 1,10,-1
 238 586 l 1,11,-1
 238 99 l 1,12,-1
 312 87 l 1,13,-1
 312 68 l 1,0,-1
241 724 m 1,14,-1
 58 868 l 1,15,-1
 135 959 l 1,16,-1
 170 942 l 1,17,-1
 282 765 l 1,18,-1
 241 724 l 1,14,-1
EndSplineSet
EndChar

StartChar: Ograve
Encoding: 210 210 108
Width: 655
Flags: HW
LayerCount: 2
Fore
SplineSet
328 -4 m 256,0,1
 189.826086957 -4 189.826086957 -4 111 94 c 0,2,3
 36 187.243243243 36 187.243243243 36 345 c 256,4,5
 36 502.756756757 36 502.756756757 111 596 c 0,6,7
 189.02173913 693 189.02173913 693 328 693 c 256,8,9
 467.532608696 693 467.532608696 693 544.5 596 c 0,10,11
 619 502.109589041 619 502.109589041 619 345 c 256,12,13
 619 187.890410959 619 187.890410959 544.5 94 c 0,14,15
 466.739130435 -4 466.739130435 -4 328 -4 c 256,0,1
173 343 m 256,16,17
 173 240.3 173 240.3 215 171 c 0,18,19
 257.424242424 101 257.424242424 101 328 101 c 0,20,21
 397.575757576 101 397.575757576 101 440 171 c 0,22,23
 482 240.3 482 240.3 482 343 c 256,24,25
 482 447.7 482 447.7 440 517 c 0,26,27
 396.96969697 588 396.96969697 588 328 588 c 0,28,29
 258.03030303 588 258.03030303 588 215 517 c 0,30,31
 173 447.7 173 447.7 173 343 c 256,16,17
388 724 m 1,32,-1
 205 868 l 1,33,-1
 282 959 l 1,34,-1
 317 942 l 1,35,-1
 429 765 l 1,36,-1
 388 724 l 1,32,-1
EndSplineSet
EndChar

StartChar: Ugrave
Encoding: 217 217 109
Width: 670
Flags: HW
LayerCount: 2
Fore
SplineSet
353 101 m 0,0,1
 479 101 479 101 479 251 c 2,2,-1
 479 594 l 1,3,-1
 415 603 l 1,4,-1
 415 691 l 1,5,-1
 643 691 l 1,6,-1
 643 600 l 1,7,-1
 584 587 l 1,8,-1
 584 248 l 2,9,10
 584 131 584 131 525 63.5 c 128,-1,11
 466 -4 466 -4 353 -4 c 0,12,13
 207.907692308 -4 207.907692308 -4 145.5 62.5 c 0,14,15
 88 123.770491803 88 123.770491803 88 248 c 2,16,-1
 88 593 l 1,17,-1
 21 602 l 1,18,-1
 21 691 l 1,19,-1
 290 691 l 1,20,-1
 290 603 l 1,21,-1
 219 592 l 1,22,-1
 219 250 l 2,23,24
 219 175 219 175 248.5 138 c 128,-1,25
 278 101 278 101 353 101 c 0,0,1
395 724 m 1,26,-1
 212 868 l 1,27,-1
 289 959 l 1,28,-1
 324 942 l 1,29,-1
 436 765 l 1,30,-1
 395 724 l 1,26,-1
EndSplineSet
EndChar

StartChar: Aacute
Encoding: 193 193 110
Width: 621
Flags: HW
LayerCount: 2
Fore
SplineSet
349 0 m 1,0,-1
 349 75 l 1,1,-1
 429 96 l 1,2,-1
 393 218 l 1,3,-1
 197 218 l 1,4,-1
 159 92 l 1,5,-1
 247 76 l 1,6,-1
 247 0 l 1,7,-1
 8 0 l 1,8,-1
 -5 78 l 1,9,-1
 50 96 l 1,10,-1
 248 691 l 1,11,-1
 372 691 l 1,12,-1
 573 96 l 1,13,-1
 619 78 l 1,14,-1
 609 0 l 1,15,-1
 349 0 l 1,0,-1
228 323 m 1,16,-1
 349 323 l 1,17,-1
 296 549 l 1,18,-1
 228 323 l 1,16,-1
187 795 m 1,19,-1
 316 959 l 1,20,-1
 353 974 l 1,21,-1
 431 865 l 1,22,-1
 234 741 l 1,23,-1
 187 795 l 1,19,-1
EndSplineSet
EndChar

StartChar: Eacute
Encoding: 201 201 111
Width: 555
Flags: HW
LayerCount: 2
Fore
SplineSet
497 690 m 1,0,-1
 516 486 l 1,1,-1
 438 486 l 1,2,-1
 397 585 l 1,3,-1
 235 585 l 1,4,-1
 235 407 l 1,5,-1
 387 407 l 1,6,-1
 387 302 l 1,7,-1
 235 302 l 1,8,-1
 235 105 l 1,9,-1
 404 105 l 1,10,-1
 441 204 l 1,11,-1
 520 204 l 1,12,-1
 499 0 l 1,13,-1
 53 0 l 1,14,-1
 39 88 l 1,15,-1
 104 101 l 1,16,-1
 104 594 l 1,17,-1
 41 601 l 1,18,-1
 41 690 l 1,19,-1
 497 690 l 1,0,-1
205 795 m 1,20,-1
 334 959 l 1,21,-1
 371 974 l 1,22,-1
 449 865 l 1,23,-1
 252 741 l 1,24,-1
 205 795 l 1,20,-1
EndSplineSet
EndChar

StartChar: Iacute
Encoding: 205 205 112
Width: 348
Flags: HW
LayerCount: 2
Fore
SplineSet
312 68 m 1,0,-1
 311 15 l 1,1,-1
 311 0 l 1,2,-1
 51 0 l 1,3,-1
 37 89 l 1,4,-1
 107 102 l 1,5,-1
 107 593 l 1,6,-1
 39 600 l 1,7,-1
 39 691 l 1,8,-1
 299 691 l 1,9,-1
 314 598 l 1,10,-1
 238 586 l 1,11,-1
 238 99 l 1,12,-1
 312 87 l 1,13,-1
 312 68 l 1,0,-1
71 795 m 1,14,-1
 200 959 l 1,15,-1
 237 974 l 1,16,-1
 315 865 l 1,17,-1
 118 741 l 1,18,-1
 71 795 l 1,14,-1
EndSplineSet
EndChar

StartChar: Oacute
Encoding: 211 211 113
Width: 655
Flags: HW
LayerCount: 2
Fore
SplineSet
328 -4 m 256,0,1
 189.826086957 -4 189.826086957 -4 111 94 c 0,2,3
 36 187.243243243 36 187.243243243 36 345 c 256,4,5
 36 502.756756757 36 502.756756757 111 596 c 0,6,7
 189.02173913 693 189.02173913 693 328 693 c 256,8,9
 467.532608696 693 467.532608696 693 544.5 596 c 0,10,11
 619 502.109589041 619 502.109589041 619 345 c 256,12,13
 619 187.890410959 619 187.890410959 544.5 94 c 0,14,15
 466.739130435 -4 466.739130435 -4 328 -4 c 256,0,1
173 343 m 256,16,17
 173 240.3 173 240.3 215 171 c 0,18,19
 257.424242424 101 257.424242424 101 328 101 c 0,20,21
 397.575757576 101 397.575757576 101 440 171 c 0,22,23
 482 240.3 482 240.3 482 343 c 256,24,25
 482 447.7 482 447.7 440 517 c 0,26,27
 396.96969697 588 396.96969697 588 328 588 c 0,28,29
 258.03030303 588 258.03030303 588 215 517 c 0,30,31
 173 447.7 173 447.7 173 343 c 256,16,17
229 795 m 1,32,-1
 358 959 l 1,33,-1
 395 974 l 1,34,-1
 473 865 l 1,35,-1
 276 741 l 1,36,-1
 229 795 l 1,32,-1
EndSplineSet
EndChar

StartChar: Uacute
Encoding: 218 218 114
Width: 670
Flags: HW
LayerCount: 2
Fore
SplineSet
353 101 m 0,0,1
 479 101 479 101 479 251 c 2,2,-1
 479 594 l 1,3,-1
 415 603 l 1,4,-1
 415 691 l 1,5,-1
 643 691 l 1,6,-1
 643 600 l 1,7,-1
 584 587 l 1,8,-1
 584 248 l 2,9,10
 584 131 584 131 525 63.5 c 128,-1,11
 466 -4 466 -4 353 -4 c 0,12,13
 207.907692308 -4 207.907692308 -4 145.5 62.5 c 0,14,15
 88 123.770491803 88 123.770491803 88 248 c 2,16,-1
 88 593 l 1,17,-1
 21 602 l 1,18,-1
 21 691 l 1,19,-1
 290 691 l 1,20,-1
 290 603 l 1,21,-1
 219 592 l 1,22,-1
 219 250 l 2,23,24
 219 175 219 175 248.5 138 c 128,-1,25
 278 101 278 101 353 101 c 0,0,1
247 795 m 1,26,-1
 376 959 l 1,27,-1
 413 974 l 1,28,-1
 491 865 l 1,29,-1
 294 741 l 1,30,-1
 247 795 l 1,26,-1
EndSplineSet
EndChar

StartChar: agrave
Encoding: 224 224 115
Width: 463
Flags: HW
LayerCount: 2
Fore
SplineSet
413 83 m 1,0,1
 395 83 395 83 395 105 c 2,2,-1
 395 330 l 2,3,4
 395 413.25 395 413.25 341 456 c 0,5,6
 296.789473684 491 296.789473684 491 223 491 c 0,7,8
 156.6875 491 156.6875 491 102 456 c 0,9,10
 50.4090909091 422.981818182 50.4090909091 422.981818182 30 374 c 1,11,-1
 154 320 l 1,12,-1
 180 394 l 1,13,14
 187.5 397 187.5 397 215.25 397 c 128,-1,15
 243 397 243 397 258.5 387.5 c 128,-1,16
 274 378 274 378 274 367 c 2,17,-1
 274 288 l 1,18,19
 114.178127589 284.101905551 114.178127589 284.101905551 52 203 c 0,20,21
 29 173 29 173 29 137 c 128,-1,22
 29 101 29 101 38.5 76.5 c 128,-1,23
 48 52 48 52 66.5 34 c 0,24,25
 105.555555556 -4 105.555555556 -4 174 -4 c 256,26,27
 238 -4 238 -4 286 44 c 1,28,29
 310 -4 310 -4 366 -4 c 0,30,31
 407.5 -4 407.5 -4 446 29 c 1,32,-1
 428 85 l 1,33,-1
 413 83 l 1,0,1
246 107 m 128,-1,35
 226 92 226 92 200.5 92 c 128,-1,36
 175 92 175 92 164 106.5 c 128,-1,37
 153 121 153 121 153 139 c 128,-1,38
 153 157 153 157 165 169.5 c 128,-1,39
 177 182 177 182 195 189.5 c 0,40,41
 223.409638554 201.337349398 223.409638554 201.337349398 274 204 c 1,42,-1
 274 139 l 1,43,34
 266 122 266 122 246 107 c 128,-1,35
282 509 m 1,44,-1
 89 630 l 1,45,-1
 166 736 l 1,46,-1
 202 722 l 1,47,-1
 328 561 l 1,48,-1
 282 509 l 1,44,-1
EndSplineSet
EndChar

StartChar: egrave
Encoding: 232 232 116
Width: 454
Flags: HW
LayerCount: 2
Fore
SplineSet
248.5 491 m 0,0,1
 213 491 213 491 173 476.5 c 128,-1,2
 133 462 133 462 101.5 431 c 0,3,4
 30 360.634920635 30 360.634920635 30 239 c 0,5,6
 30 122.5625 30 122.5625 101 56 c 0,7,8
 165 -4 165 -4 257 -4 c 0,9,10
 312.333333333 -4 312.333333333 -4 362.5 17 c 0,11,12
 402.781609195 33.8620689655 402.781609195 33.8620689655 420 56 c 1,13,-1
 397 143 l 1,14,15
 379 126 379 126 351 108.5 c 128,-1,16
 323 91 323 91 285 91 c 128,-1,17
 247 91 247 91 225 99.5 c 128,-1,18
 203 108 203 108 189 122 c 0,19,20
 162.45 148.55 162.45 148.55 156 198 c 1,21,22
 167 197 167 197 180 197 c 2,23,-1
 207 197 l 2,24,25
 300.578947368 197 300.578947368 197 359 234 c 0,26,27
 424 275.166666667 424 275.166666667 424 354 c 0,28,29
 424 420.183673469 424 420.183673469 369.5 458 c 0,30,31
 321.941176471 491 321.941176471 491 248.5 491 c 0,0,1
295 509 m 1,32,-1
 102 630 l 1,33,-1
 179 736 l 1,34,-1
 215 722 l 1,35,-1
 341 561 l 1,36,-1
 295 509 l 1,32,-1
157 282 m 1,37,38
 161.171735242 329.974955277 161.171735242 329.974955277 189.5 362.5 c 0,39,40
 218.677419355 396 218.677419355 396 255 396 c 0,41,42
 275 396 275 396 288 384.5 c 128,-1,43
 301 373 301 373 301 351.5 c 128,-1,44
 301 330 301 330 291 317 c 128,-1,45
 281 304 281 304 265 296 c 0,46,47
 235 281 235 281 190 281 c 2,48,-1
 172 281 l 2,49,50
 162 281 162 281 157 282 c 1,37,38
EndSplineSet
EndChar

StartChar: igrave
Encoding: 236 236 117
Width: 288
Flags: HW
LayerCount: 2
Fore
SplineSet
175 492 m 1,0,1
 26 466 l 1,2,-1
 37 398 l 1,3,-1
 88 398 l 1,4,-1
 88 77 l 1,5,-1
 32 64 l 1,6,-1
 43 0 l 1,7,-1
 264 0 l 1,8,-1
 264 64 l 1,9,-1
 209 75 l 1,10,-1
 209 456 l 1,11,-1
 175 492 l 1,0,1
215 509 m 1,12,-1
 22 630 l 1,13,-1
 99 736 l 1,14,-1
 135 722 l 1,15,-1
 261 561 l 1,16,-1
 215 509 l 1,12,-1
EndSplineSet
EndChar

StartChar: ograve
Encoding: 242 242 118
Width: 499
Flags: HW
LayerCount: 2
Fore
SplineSet
29 246 m 256,0,1
 29 129.612903226 29 129.612903226 98 59.5 c 0,2,3
 160.492063492 -4 160.492063492 -4 249 -4 c 256,4,5
 338.507936508 -4 338.507936508 -4 401 59.5 c 0,6,7
 470 129.612903226 470 129.612903226 470 246 c 256,8,9
 470 360 470 360 401 429 c 0,10,11
 339 491 339 491 249 491 c 256,12,13
 160 491 160 491 98 429 c 0,14,15
 29 360 29 360 29 246 c 256,0,1
153 240 m 256,16,17
 153 359 153 359 212 388.5 c 0,18,19
 229 397 229 397 249 397 c 256,20,21
 317.25 397 317.25 397 338.5 312 c 0,22,23
 346 282 346 282 346 240 c 256,24,25
 346 123 346 123 286.5 97.5 c 0,26,27
 269 90 269 90 249 90 c 256,28,29
 181.421052632 90 181.421052632 90 160.5 169.5 c 0,30,31
 153 198 153 198 153 240 c 256,16,17
310 509 m 1,32,-1
 117 630 l 1,33,-1
 194 736 l 1,34,-1
 230 722 l 1,35,-1
 356 561 l 1,36,-1
 310 509 l 1,32,-1
EndSplineSet
EndChar

StartChar: ugrave
Encoding: 249 249 119
Width: 539
Flags: HW
LayerCount: 2
Fore
SplineSet
482 83 m 1,0,1
 466 83 466 83 466 105 c 2,2,-1
 466 454 l 1,3,-1
 431 492 l 1,4,-1
 288 465 l 1,5,-1
 300 398 l 1,6,-1
 345 401 l 1,7,-1
 345 144 l 1,8,9
 337 124 337 124 314 108 c 128,-1,10
 291 92 291 92 262 92 c 128,-1,11
 233 92 233 92 214.5 111 c 128,-1,12
 196 130 196 130 196 169 c 2,13,-1
 196 454 l 1,14,-1
 161 492 l 1,15,-1
 13 465 l 1,16,-1
 24 398 l 1,17,-1
 75 398 l 1,18,-1
 75 146 l 2,19,20
 75 69 75 69 117 32.5 c 128,-1,21
 159 -4 159 -4 230 -4 c 0,22,23
 263 -4 263 -4 298 7.5 c 128,-1,24
 333 19 333 19 356 44 c 1,25,26
 378.153846154 -4 378.153846154 -4 437 -4 c 0,27,28
 468 -4 468 -4 488.5 9 c 128,-1,29
 509 22 509 22 515 29 c 1,30,-1
 496 85 l 1,31,-1
 482 83 l 1,0,1
304 509 m 1,32,-1
 111 630 l 1,33,-1
 188 736 l 1,34,-1
 224 722 l 1,35,-1
 350 561 l 1,36,-1
 304 509 l 1,32,-1
EndSplineSet
EndChar

StartChar: aacute
Encoding: 225 225 120
Width: 463
Flags: HW
LayerCount: 2
Fore
SplineSet
286 44 m 1,0,1
 238 -4 238 -4 174 -4 c 256,2,3
 105.555555556 -4 105.555555556 -4 66.5 34 c 0,4,5
 29 70.4864864865 29 70.4864864865 29 121.743243243 c 128,-1,6
 29 173 29 173 52 203 c 128,-1,7
 75 233 75 233 110.5 251.5 c 0,8,9
 175.951590595 285.60857538 175.951590595 285.60857538 274 288 c 1,10,-1
 274 367 l 2,11,12
 274 378 274 378 258.5 387.5 c 128,-1,13
 243 397 243 397 222 397 c 0,14,15
 187.5 397 187.5 397 180 394 c 1,16,-1
 154 320 l 1,17,-1
 30 374 l 1,18,19
 50.4090909091 422.981818182 50.4090909091 422.981818182 102 456 c 0,20,21
 156.6875 491 156.6875 491 223 491 c 0,22,23
 338.442622951 491 338.442622951 491 380 406.5 c 0,24,25
 395 376 395 376 395 330 c 2,26,-1
 395 105 l 2,27,28
 395 83 395 83 413 83 c 1,29,-1
 428 85 l 1,30,-1
 446 29 l 1,31,32
 407.5 -4 407.5 -4 366 -4 c 0,33,34
 310 -4 310 -4 286 44 c 1,0,1
274 204 m 1,35,36
 153 197.631578947 153 197.631578947 153 138 c 0,37,38
 153 121 153 121 164 106.5 c 128,-1,39
 175 92 175 92 200.5 92 c 128,-1,40
 226 92 226 92 246 107 c 128,-1,41
 266 122 266 122 274 139 c 1,42,-1
 274 204 l 1,35,36
112 561 m 1,43,-1
 238 722 l 1,44,-1
 274 736 l 1,45,-1
 351 630 l 1,46,-1
 158 509 l 1,47,-1
 112 561 l 1,43,-1
EndSplineSet
EndChar

StartChar: eacute
Encoding: 233 233 121
Width: 454
Flags: HW
LayerCount: 2
Fore
SplineSet
156 198 m 1,0,1
 169.956521739 91 169.956521739 91 277 91 c 0,2,3
 323 91 323 91 351 108.5 c 128,-1,4
 379 126 379 126 397 143 c 1,5,-1
 420 56 l 1,6,7
 391.572519084 19.4503816794 391.572519084 19.4503816794 314.5 2 c 0,8,9
 288 -4 288 -4 251 -4 c 128,-1,10
 214 -4 214 -4 173.5 11 c 128,-1,11
 133 26 133 26 101 56 c 0,12,13
 30 122.5625 30 122.5625 30 239 c 0,14,15
 30 360.634920635 30 360.634920635 101.5 431 c 0,16,17
 162.467741935 491 162.467741935 491 253 491 c 0,18,19
 321.941176471 491 321.941176471 491 369.5 458 c 0,20,21
 424 420.183673469 424 420.183673469 424 354 c 0,22,23
 424 275.166666667 424 275.166666667 359 234 c 0,24,25
 300.578947368 197 300.578947368 197 207 197 c 2,26,-1
 180 197 l 2,27,28
 167 197 167 197 156 198 c 1,0,1
135 561 m 1,29,-1
 261 722 l 1,30,-1
 297 736 l 1,31,-1
 374 630 l 1,32,-1
 181 509 l 1,33,-1
 135 561 l 1,29,-1
157 282 m 1,34,35
 162 281 162 281 172 281 c 2,36,-1
 190 281 l 2,37,38
 263.307692308 281 263.307692308 281 291 317 c 0,39,40
 301 330 301 330 301 351.5 c 128,-1,41
 301 373 301 373 288 384.5 c 128,-1,42
 275 396 275 396 256 396 c 128,-1,43
 237 396 237 396 220 387 c 128,-1,44
 203 378 203 378 189.5 362.5 c 0,45,46
 161.171735242 329.974955277 161.171735242 329.974955277 157 282 c 1,34,35
EndSplineSet
EndChar

StartChar: iacute
Encoding: 237 237 122
Width: 288
Flags: HW
LayerCount: 2
Fore
SplineSet
26 466 m 1,0,-1
 175 492 l 1,1,-1
 209 456 l 1,2,-1
 209 75 l 1,3,-1
 264 64 l 1,4,-1
 264 0 l 1,5,-1
 43 0 l 1,6,-1
 32 64 l 1,7,-1
 88 77 l 1,8,-1
 88 398 l 1,9,-1
 37 398 l 1,10,-1
 26 466 l 1,0,-1
26 561 m 1,11,-1
 152 722 l 1,12,-1
 188 736 l 1,13,-1
 265 630 l 1,14,-1
 72 509 l 1,15,-1
 26 561 l 1,11,-1
EndSplineSet
EndChar

StartChar: oacute
Encoding: 243 243 123
Width: 499
Flags: HW
LayerCount: 2
Fore
SplineSet
29 246 m 256,0,1
 29 360 29 360 98 429 c 0,2,3
 160 491 160 491 249 491 c 256,4,5
 339 491 339 491 401 429 c 0,6,7
 470 360 470 360 470 246 c 256,8,9
 470 129.612903226 470 129.612903226 401 59.5 c 0,10,11
 338.507936508 -4 338.507936508 -4 249 -4 c 256,12,13
 160.492063492 -4 160.492063492 -4 98 59.5 c 0,14,15
 29 129.612903226 29 129.612903226 29 246 c 256,0,1
153 240 m 256,16,17
 153 123.529411765 153 123.529411765 212 97.5 c 0,18,19
 229 90 229 90 249 90 c 256,20,21
 317.578947368 90 317.578947368 90 338.5 169.5 c 0,22,23
 346 198 346 198 346 240 c 256,24,25
 346 359.6 346 359.6 286.5 388.5 c 0,26,27
 269 397 269 397 249 397 c 256,28,29
 181.75 397 181.75 397 160.5 312 c 0,30,31
 153 282 153 282 153 240 c 256,16,17
143 561 m 1,32,-1
 269 722 l 1,33,-1
 305 736 l 1,34,-1
 382 630 l 1,35,-1
 189 509 l 1,36,-1
 143 561 l 1,32,-1
EndSplineSet
EndChar

StartChar: uacute
Encoding: 250 250 124
Width: 539
Flags: HW
LayerCount: 2
Fore
SplineSet
437 -4 m 0,0,1
 378.153846154 -4 378.153846154 -4 356 44 c 1,2,3
 333 19 333 19 298 7.5 c 128,-1,4
 263 -4 263 -4 230 -4 c 0,5,6
 159 -4 159 -4 117 32.5 c 128,-1,7
 75 69 75 69 75 146 c 2,8,-1
 75 398 l 1,9,-1
 24 398 l 1,10,-1
 13 465 l 1,11,-1
 161 492 l 1,12,-1
 196 454 l 1,13,-1
 196 169 l 2,14,15
 196 130 196 130 214.5 111 c 128,-1,16
 233 92 233 92 262 92 c 128,-1,17
 291 92 291 92 314 108 c 128,-1,18
 337 124 337 124 345 144 c 1,19,-1
 345 401 l 1,20,-1
 300 398 l 1,21,-1
 288 465 l 1,22,-1
 431 492 l 1,23,-1
 466 454 l 1,24,-1
 466 105 l 2,25,26
 466 83 466 83 482 83 c 1,27,-1
 496 85 l 1,28,-1
 515 29 l 1,29,30
 509 22 509 22 488.5 9 c 128,-1,31
 468 -4 468 -4 437 -4 c 0,0,1
137 561 m 1,32,-1
 263 722 l 1,33,-1
 299 736 l 1,34,-1
 376 630 l 1,35,-1
 183 509 l 1,36,-1
 137 561 l 1,32,-1
EndSplineSet
EndChar

StartChar: Ecircumflex
Encoding: 202 202 125
Width: 555
Flags: HW
LayerCount: 2
Fore
SplineSet
92 737 m 1,0,-1
 263 903 l 1,1,-1
 300 903 l 1,2,-1
 472 736 l 1,3,-1
 465 724 l 1,4,-1
 379 724 l 1,5,-1
 281 782 l 1,6,-1
 184 724 l 1,7,-1
 99 724 l 1,8,-1
 92 737 l 1,0,-1
497 691 m 1,9,-1
 516 487 l 1,10,-1
 438 487 l 1,11,-1
 397 586 l 1,12,-1
 235 586 l 1,13,-1
 235 408 l 1,14,-1
 387 408 l 1,15,-1
 387 303 l 1,16,-1
 235 303 l 1,17,-1
 235 105 l 1,18,-1
 404 105 l 1,19,-1
 441 204 l 1,20,-1
 520 204 l 1,21,-1
 499 0 l 1,22,-1
 53 0 l 1,23,-1
 39 88 l 1,24,-1
 104 101 l 1,25,-1
 104 595 l 1,26,-1
 41 602 l 1,27,-1
 41 691 l 1,28,-1
 497 691 l 1,9,-1
EndSplineSet
EndChar

StartChar: Icircumflex
Encoding: 206 206 126
Width: 348
Flags: HW
LayerCount: 2
Fore
SplineSet
312 68 m 1,0,-1
 311 15 l 1,1,-1
 311 0 l 1,2,-1
 51 0 l 1,3,-1
 37 89 l 1,4,-1
 107 102 l 1,5,-1
 107 593 l 1,6,-1
 39 600 l 1,7,-1
 39 691 l 1,8,-1
 299 691 l 1,9,-1
 314 598 l 1,10,-1
 238 586 l 1,11,-1
 238 99 l 1,12,-1
 312 87 l 1,13,-1
 312 68 l 1,0,-1
-14 737 m 1,14,-1
 157 903 l 1,15,-1
 194 903 l 1,16,-1
 366 736 l 1,17,-1
 359 724 l 1,18,-1
 273 724 l 1,19,-1
 175 782 l 1,20,-1
 77 724 l 1,21,-1
 -8 724 l 1,22,-1
 -14 737 l 1,14,-1
EndSplineSet
EndChar

StartChar: Ocircumflex
Encoding: 212 212 127
Width: 655
Flags: HW
LayerCount: 2
Fore
SplineSet
147 737 m 1,0,-1
 318 903 l 1,1,-1
 355 903 l 1,2,-1
 527 736 l 1,3,-1
 520 724 l 1,4,-1
 434 724 l 1,5,-1
 336 782 l 1,6,-1
 238 724 l 1,7,-1
 153 724 l 1,8,-1
 147 737 l 1,0,-1
328 -4 m 256,9,10
 189.826086957 -4 189.826086957 -4 111 94 c 0,11,12
 36 187.243243243 36 187.243243243 36 345 c 256,13,14
 36 502.756756757 36 502.756756757 111 596 c 0,15,16
 189.02173913 693 189.02173913 693 328 693 c 256,17,18
 467.532608696 693 467.532608696 693 544.5 596 c 0,19,20
 619 502.109589041 619 502.109589041 619 345 c 256,21,22
 619 187.890410959 619 187.890410959 544.5 94 c 0,23,24
 466.739130435 -4 466.739130435 -4 328 -4 c 256,9,10
173 343 m 256,25,26
 173 240.3 173 240.3 215 171 c 0,27,28
 257.424242424 101 257.424242424 101 328 101 c 0,29,30
 397.575757576 101 397.575757576 101 440 171 c 0,31,32
 482 240.3 482 240.3 482 343 c 256,33,34
 482 447.7 482 447.7 440 517 c 0,35,36
 396.96969697 588 396.96969697 588 328 588 c 0,37,38
 258.03030303 588 258.03030303 588 215 517 c 0,39,40
 173 447.7 173 447.7 173 343 c 256,25,26
EndSplineSet
EndChar

StartChar: Ucircumflex
Encoding: 219 219 128
Width: 670
Flags: HW
LayerCount: 2
Fore
SplineSet
151 737 m 1,0,-1
 322 903 l 1,1,-1
 359 903 l 1,2,-1
 531 736 l 1,3,-1
 524 724 l 1,4,-1
 438 724 l 1,5,-1
 340 782 l 1,6,-1
 242 724 l 1,7,-1
 157 724 l 1,8,-1
 151 737 l 1,0,-1
353 101 m 0,9,10
 479 101 479 101 479 251 c 2,11,-1
 479 594 l 1,12,-1
 415 603 l 1,13,-1
 415 691 l 1,14,-1
 643 691 l 1,15,-1
 643 600 l 1,16,-1
 584 587 l 1,17,-1
 584 248 l 2,18,19
 584 131 584 131 525 63.5 c 128,-1,20
 466 -4 466 -4 353 -4 c 0,21,22
 207.907692308 -4 207.907692308 -4 145.5 62.5 c 0,23,24
 88 123.770491803 88 123.770491803 88 248 c 2,25,-1
 88 593 l 1,26,-1
 21 602 l 1,27,-1
 21 691 l 1,28,-1
 290 691 l 1,29,-1
 290 603 l 1,30,-1
 219 592 l 1,31,-1
 219 250 l 2,32,33
 219 175 219 175 248.5 138 c 128,-1,34
 278 101 278 101 353 101 c 0,9,10
EndSplineSet
EndChar

StartChar: Adieresis
Encoding: 196 196 129
Width: 621
Flags: HW
LayerCount: 2
Fore
SplineSet
349 0 m 1,0,-1
 349 75 l 1,1,-1
 429 96 l 1,2,-1
 393 218 l 1,3,-1
 197 218 l 1,4,-1
 159 92 l 1,5,-1
 247 76 l 1,6,-1
 247 0 l 1,7,-1
 8 0 l 1,8,-1
 -5 78 l 1,9,-1
 50 96 l 1,10,-1
 248 690 l 1,11,-1
 372 690 l 1,12,-1
 573 96 l 1,13,-1
 619 78 l 1,14,-1
 609 0 l 1,15,-1
 349 0 l 1,0,-1
228 323 m 1,16,-1
 349 323 l 1,17,-1
 296 548 l 1,18,-1
 228 323 l 1,16,-1
155 804 m 256,19,20
 155 833 155 833 175 853 c 128,-1,21
 195 873 195 873 223.5 873 c 0,22,23
 252 873 252 873 272 853 c 128,-1,24
 292 833 292 833 292 804 c 256,25,26
 292 775 292 775 272 755.5 c 128,-1,27
 252 736 252 736 223.5 736 c 0,28,29
 195 736 195 736 175 755.5 c 128,-1,30
 155 775 155 775 155 804 c 256,19,20
333 804 m 256,31,32
 333 833 333 833 352.5 853 c 128,-1,33
 372 873 372 873 401 873 c 256,34,35
 430 873 430 873 449 853 c 128,-1,36
 468 833 468 833 468 804 c 256,37,38
 468 775 468 775 449 755.5 c 128,-1,39
 430 736 430 736 401 736 c 256,40,41
 372 736 372 736 352.5 755.5 c 128,-1,42
 333 775 333 775 333 804 c 256,31,32
EndSplineSet
EndChar

StartChar: Edieresis
Encoding: 203 203 130
Width: 555
Flags: HW
LayerCount: 2
Fore
SplineSet
497 691 m 1,0,-1
 516 487 l 1,1,-1
 438 487 l 1,2,-1
 397 586 l 1,3,-1
 235 586 l 1,4,-1
 235 408 l 1,5,-1
 387 408 l 1,6,-1
 387 303 l 1,7,-1
 235 303 l 1,8,-1
 235 105 l 1,9,-1
 404 105 l 1,10,-1
 441 204 l 1,11,-1
 520 204 l 1,12,-1
 499 0 l 1,13,-1
 53 0 l 1,14,-1
 39 88 l 1,15,-1
 104 101 l 1,16,-1
 104 595 l 1,17,-1
 41 602 l 1,18,-1
 41 691 l 1,19,-1
 497 691 l 1,0,-1
131 804 m 256,20,21
 131 833 131 833 151 853 c 128,-1,22
 171 873 171 873 199.5 873 c 0,23,24
 228 873 228 873 248 853 c 128,-1,25
 268 833 268 833 268 804 c 256,26,27
 268 775 268 775 248 755.5 c 128,-1,28
 228 736 228 736 199.5 736 c 0,29,30
 171 736 171 736 151 755.5 c 128,-1,31
 131 775 131 775 131 804 c 256,20,21
309 804 m 256,32,33
 309 833 309 833 328.5 853 c 128,-1,34
 348 873 348 873 377 873 c 256,35,36
 406 873 406 873 425 853 c 128,-1,37
 444 833 444 833 444 804 c 256,38,39
 444 775 444 775 425 755.5 c 128,-1,40
 406 736 406 736 377 736 c 256,41,42
 348 736 348 736 328.5 755.5 c 128,-1,43
 309 775 309 775 309 804 c 256,32,33
EndSplineSet
EndChar

StartChar: Odieresis
Encoding: 214 214 131
Width: 655
Flags: HW
LayerCount: 2
Fore
SplineSet
328 -4 m 256,0,1
 189.826086957 -4 189.826086957 -4 111 94 c 0,2,3
 36 187.243243243 36 187.243243243 36 345 c 256,4,5
 36 502.756756757 36 502.756756757 111 596 c 0,6,7
 189.02173913 693 189.02173913 693 328 693 c 256,8,9
 467.532608696 693 467.532608696 693 544.5 596 c 0,10,11
 619 502.109589041 619 502.109589041 619 345 c 256,12,13
 619 187.890410959 619 187.890410959 544.5 94 c 0,14,15
 466.739130435 -4 466.739130435 -4 328 -4 c 256,0,1
173 343 m 256,16,17
 173 240.3 173 240.3 215 171 c 0,18,19
 257.424242424 101 257.424242424 101 328 101 c 0,20,21
 397.575757576 101 397.575757576 101 440 171 c 0,22,23
 482 240.3 482 240.3 482 343 c 256,24,25
 482 447.7 482 447.7 440 517 c 0,26,27
 396.96969697 588 396.96969697 588 328 588 c 0,28,29
 258.03030303 588 258.03030303 588 215 517 c 0,30,31
 173 447.7 173 447.7 173 343 c 256,16,17
174 804 m 256,32,33
 174 833 174 833 194 853 c 128,-1,34
 214 873 214 873 242.5 873 c 128,-1,35
 271 873 271 873 291 853 c 128,-1,36
 311 833 311 833 311 804 c 256,37,38
 311 775 311 775 291 755.5 c 128,-1,39
 271 736 271 736 242.5 736 c 128,-1,40
 214 736 214 736 194 755.5 c 128,-1,41
 174 775 174 775 174 804 c 256,32,33
352 804 m 256,42,43
 352 833 352 833 371.5 853 c 128,-1,44
 391 873 391 873 420 873 c 256,45,46
 449 873 449 873 468 853 c 128,-1,47
 487 833 487 833 487 804 c 256,48,49
 487 775 487 775 468 755.5 c 128,-1,50
 449 736 449 736 420 736 c 256,51,52
 391 736 391 736 371.5 755.5 c 128,-1,53
 352 775 352 775 352 804 c 256,42,43
EndSplineSet
EndChar

StartChar: Udieresis
Encoding: 220 220 132
Width: 670
Flags: HW
LayerCount: 2
Fore
SplineSet
353 101 m 0,0,1
 479 101 479 101 479 251 c 2,2,-1
 479 593 l 1,3,-1
 415 602 l 1,4,-1
 415 690 l 1,5,-1
 643 690 l 1,6,-1
 643 599 l 1,7,-1
 584 586 l 1,8,-1
 584 248 l 2,9,10
 584 131 584 131 525 63.5 c 128,-1,11
 466 -4 466 -4 353 -4 c 0,12,13
 207.907692308 -4 207.907692308 -4 145.5 62.5 c 0,14,15
 88 123.770491803 88 123.770491803 88 248 c 2,16,-1
 88 592 l 1,17,-1
 21 601 l 1,18,-1
 21 690 l 1,19,-1
 290 690 l 1,20,-1
 290 602 l 1,21,-1
 219 591 l 1,22,-1
 219 250 l 2,23,24
 219 175 219 175 248.5 138 c 128,-1,25
 278 101 278 101 353 101 c 0,0,1
193 804 m 256,26,27
 193 833 193 833 213 853 c 128,-1,28
 233 873 233 873 261.5 873 c 128,-1,29
 290 873 290 873 310 853 c 128,-1,30
 330 833 330 833 330 804 c 256,31,32
 330 775 330 775 310 755.5 c 128,-1,33
 290 736 290 736 261.5 736 c 128,-1,34
 233 736 233 736 213 755.5 c 128,-1,35
 193 775 193 775 193 804 c 256,26,27
371 804 m 256,36,37
 371 833 371 833 390.5 853 c 128,-1,38
 410 873 410 873 439 873 c 256,39,40
 468 873 468 873 487 853 c 128,-1,41
 506 833 506 833 506 804 c 256,42,43
 506 775 506 775 487 755.5 c 128,-1,44
 468 736 468 736 439 736 c 256,45,46
 410 736 410 736 390.5 755.5 c 128,-1,47
 371 775 371 775 371 804 c 256,36,37
EndSplineSet
EndChar

StartChar: edieresis
Encoding: 235 235 133
Width: 454
Flags: HW
LayerCount: 2
Fore
SplineSet
156 198 m 1,0,1
 169.956521739 91 169.956521739 91 277 91 c 0,2,3
 323 91 323 91 351 108.5 c 128,-1,4
 379 126 379 126 397 143 c 1,5,-1
 420 56 l 1,6,7
 391.572519084 19.4503816794 391.572519084 19.4503816794 314.5 2 c 0,8,9
 288 -4 288 -4 251 -4 c 128,-1,10
 214 -4 214 -4 173.5 11 c 128,-1,11
 133 26 133 26 101 56 c 0,12,13
 30 122.5625 30 122.5625 30 239 c 0,14,15
 30 360.634920635 30 360.634920635 101.5 431 c 0,16,17
 162.467741935 491 162.467741935 491 253 491 c 0,18,19
 321.941176471 491 321.941176471 491 369.5 458 c 0,20,21
 424 420.183673469 424 420.183673469 424 354 c 0,22,23
 424 275.166666667 424 275.166666667 359 234 c 0,24,25
 300.578947368 197 300.578947368 197 207 197 c 2,26,-1
 180 197 l 2,27,28
 167 197 167 197 156 198 c 1,0,1
263 634 m 256,29,30
 263 660 263 660 281 678 c 128,-1,31
 299 696 299 696 325 696 c 256,32,33
 351 696 351 696 369 678 c 128,-1,34
 387 660 387 660 387 634 c 256,35,36
 387 608 387 608 369 590 c 128,-1,37
 351 572 351 572 325 572 c 256,38,39
 299 572 299 572 281 590 c 128,-1,40
 263 608 263 608 263 634 c 256,29,30
102 634 m 256,41,42
 102 660 102 660 120 678 c 128,-1,43
 138 696 138 696 164 696 c 256,44,45
 190 696 190 696 208 678 c 128,-1,46
 226 660 226 660 226 634 c 256,47,48
 226 608 226 608 208 590 c 128,-1,49
 190 572 190 572 164 572 c 256,50,51
 138 572 138 572 120 590 c 128,-1,52
 102 608 102 608 102 634 c 256,41,42
157 282 m 1,53,54
 162 281 162 281 172 281 c 2,55,-1
 190 281 l 2,56,57
 263.307692308 281 263.307692308 281 291 317 c 0,58,59
 301 330 301 330 301 351.5 c 128,-1,60
 301 373 301 373 288 384.5 c 128,-1,61
 275 396 275 396 256 396 c 128,-1,62
 237 396 237 396 220 387 c 128,-1,63
 203 378 203 378 189.5 362.5 c 0,64,65
 161.171735242 329.974955277 161.171735242 329.974955277 157 282 c 1,53,54
EndSplineSet
EndChar

StartChar: adieresis
Encoding: 228 228 134
Width: 463
Flags: HW
LayerCount: 2
Fore
SplineSet
70 634 m 256,0,1
 70 660 70 660 88 678 c 128,-1,2
 106 696 106 696 132 696 c 256,3,4
 158 696 158 696 176 678 c 128,-1,5
 194 660 194 660 194 634 c 256,6,7
 194 608 194 608 176 590 c 128,-1,8
 158 572 158 572 132 572 c 256,9,10
 106 572 106 572 88 590 c 128,-1,11
 70 608 70 608 70 634 c 256,0,1
231 634 m 256,12,13
 231 660 231 660 249 678 c 128,-1,14
 267 696 267 696 293 696 c 256,15,16
 319 696 319 696 337 678 c 128,-1,17
 355 660 355 660 355 634 c 256,18,19
 355 608 355 608 337 590 c 128,-1,20
 319 572 319 572 293 572 c 256,21,22
 267 572 267 572 249 590 c 128,-1,23
 231 608 231 608 231 634 c 256,12,13
286 44 m 1,24,25
 238 -4 238 -4 174 -4 c 256,26,27
 105.555555556 -4 105.555555556 -4 66.5 34 c 0,28,29
 29 70.4864864865 29 70.4864864865 29 121.743243243 c 128,-1,30
 29 173 29 173 52 203 c 128,-1,31
 75 233 75 233 110.5 251.5 c 0,32,33
 175.951590595 285.60857538 175.951590595 285.60857538 274 288 c 1,34,-1
 274 367 l 2,35,36
 274 378 274 378 258.5 387.5 c 128,-1,37
 243 397 243 397 222 397 c 0,38,39
 187.5 397 187.5 397 180 394 c 1,40,-1
 154 320 l 1,41,-1
 30 374 l 1,42,43
 50.4090909091 422.981818182 50.4090909091 422.981818182 102 456 c 0,44,45
 156.6875 491 156.6875 491 223 491 c 0,46,47
 338.442622951 491 338.442622951 491 380 406.5 c 0,48,49
 395 376 395 376 395 330 c 2,50,-1
 395 105 l 2,51,52
 395 83 395 83 413 83 c 1,53,-1
 428 85 l 1,54,-1
 446 29 l 1,55,56
 407.5 -4 407.5 -4 366 -4 c 0,57,58
 310 -4 310 -4 286 44 c 1,24,25
274 204 m 1,59,60
 153 197.631578947 153 197.631578947 153 138 c 0,61,62
 153 121 153 121 164 106.5 c 128,-1,63
 175 92 175 92 200.5 92 c 128,-1,64
 226 92 226 92 246 107 c 128,-1,65
 266 122 266 122 274 139 c 1,66,-1
 274 204 l 1,59,60
EndSplineSet
EndChar

StartChar: odieresis
Encoding: 246 246 135
Width: 499
Flags: HW
LayerCount: 2
Fore
SplineSet
105 634 m 256,0,1
 105 660 105 660 123 678 c 128,-1,2
 141 696 141 696 167 696 c 256,3,4
 193 696 193 696 211 678 c 128,-1,5
 229 660 229 660 229 634 c 256,6,7
 229 608 229 608 211 590 c 128,-1,8
 193 572 193 572 167 572 c 256,9,10
 141 572 141 572 123 590 c 128,-1,11
 105 608 105 608 105 634 c 256,0,1
267 634 m 256,12,13
 267 660 267 660 285 678 c 128,-1,14
 303 696 303 696 329 696 c 256,15,16
 355 696 355 696 373 678 c 128,-1,17
 391 660 391 660 391 634 c 256,18,19
 391 608 391 608 373 590 c 128,-1,20
 355 572 355 572 329 572 c 256,21,22
 303 572 303 572 285 590 c 128,-1,23
 267 608 267 608 267 634 c 256,12,13
29 246 m 256,24,25
 29 360 29 360 98 429 c 0,26,27
 160 491 160 491 249 491 c 256,28,29
 339 491 339 491 401 429 c 0,30,31
 470 360 470 360 470 246 c 256,32,33
 470 129.612903226 470 129.612903226 401 59.5 c 0,34,35
 338.507936508 -4 338.507936508 -4 249 -4 c 256,36,37
 160.492063492 -4 160.492063492 -4 98 59.5 c 0,38,39
 29 129.612903226 29 129.612903226 29 246 c 256,24,25
153 240 m 256,40,41
 153 123.529411765 153 123.529411765 212 97.5 c 0,42,43
 229 90 229 90 249 90 c 256,44,45
 317.578947368 90 317.578947368 90 338.5 169.5 c 0,46,47
 346 198 346 198 346 240 c 256,48,49
 346 359.6 346 359.6 286.5 388.5 c 0,50,51
 269 397 269 397 249 397 c 256,52,53
 181.75 397 181.75 397 160.5 312 c 0,54,55
 153 282 153 282 153 240 c 256,40,41
EndSplineSet
EndChar

StartChar: udieresis
Encoding: 252 252 136
Width: 539
Flags: HW
LayerCount: 2
Fore
SplineSet
121 634 m 256,0,1
 121 660 121 660 139 678 c 128,-1,2
 157 696 157 696 183 696 c 256,3,4
 209 696 209 696 227 678 c 128,-1,5
 245 660 245 660 245 634 c 256,6,7
 245 608 245 608 227 590 c 128,-1,8
 209 572 209 572 183 572 c 256,9,10
 157 572 157 572 139 590 c 128,-1,11
 121 608 121 608 121 634 c 256,0,1
283 634 m 256,12,13
 283 660 283 660 301 678 c 128,-1,14
 319 696 319 696 345 696 c 256,15,16
 371 696 371 696 389 678 c 128,-1,17
 407 660 407 660 407 634 c 256,18,19
 407 608 407 608 389 590 c 128,-1,20
 371 572 371 572 345 572 c 256,21,22
 319 572 319 572 301 590 c 128,-1,23
 283 608 283 608 283 634 c 256,12,13
437 -4 m 0,24,25
 378.153846154 -4 378.153846154 -4 356 44 c 1,26,27
 333 19 333 19 298 7.5 c 128,-1,28
 263 -4 263 -4 230 -4 c 0,29,30
 159 -4 159 -4 117 32.5 c 128,-1,31
 75 69 75 69 75 146 c 2,32,-1
 75 398 l 1,33,-1
 24 398 l 1,34,-1
 13 465 l 1,35,-1
 161 492 l 1,36,-1
 196 454 l 1,37,-1
 196 169 l 2,38,39
 196 130 196 130 214.5 111 c 128,-1,40
 233 92 233 92 262 92 c 128,-1,41
 291 92 291 92 314 108 c 128,-1,42
 337 124 337 124 345 144 c 1,43,-1
 345 401 l 1,44,-1
 300 398 l 1,45,-1
 288 465 l 1,46,-1
 431 492 l 1,47,-1
 466 454 l 1,48,-1
 466 105 l 2,49,50
 466 83 466 83 482 83 c 1,51,-1
 496 85 l 1,52,-1
 515 29 l 1,53,54
 509 22 509 22 488.5 9 c 128,-1,55
 468 -4 468 -4 437 -4 c 0,24,25
EndSplineSet
EndChar

StartChar: ydieresis
Encoding: 255 255 137
Width: 499
Flags: HW
LayerCount: 2
Fore
SplineSet
496 455 m 1,0,1
 479.636363636 411.363636364 479.636363636 411.363636364 425.818181818 257.181818182 c 128,-1,2
 372 103 372 103 354 51.5 c 128,-1,3
 336 0 336 0 320.5 -44 c 128,-1,4
 305 -88 305 -88 293 -120.5 c 128,-1,5
 281 -153 281 -153 271 -179.5 c 128,-1,6
 261 -206 261 -206 243.5 -227.5 c 128,-1,7
 226 -249 226 -249 208.5 -259.5 c 0,8,9
 184.333333333 -274 184.333333333 -274 150 -274 c 0,10,11
 106.222222222 -274 106.222222222 -274 61.5 -251 c 0,12,13
 44 -242 44 -242 29 -228 c 1,14,-1
 83 -144 l 1,15,16
 126.2 -180 126.2 -180 142.1 -180 c 128,-1,17
 158 -180 158 -180 169.5 -167 c 128,-1,18
 181 -154 181 -154 193 -121 c 2,19,-1
 215 -61 l 1,20,-1
 46 407 l 1,21,-1
 8 407 l 1,22,-1
 0 479 l 1,23,-1
 150 491 l 1,24,-1
 280 119 l 1,25,26
 299 172 299 172 317.5 222.5 c 128,-1,27
 336 273 336 273 352.5 318 c 128,-1,28
 369 363 369 363 384 407 c 1,29,-1
 338 407 l 1,30,-1
 330 480 l 1,31,-1
 476 491 l 1,32,-1
 496 455 l 1,0,1
110 634 m 256,33,34
 110 660 110 660 128 678 c 128,-1,35
 146 696 146 696 172 696 c 256,36,37
 198 696 198 696 216 678 c 128,-1,38
 234 660 234 660 234 634 c 256,39,40
 234 608 234 608 216 590 c 128,-1,41
 198 572 198 572 172 572 c 256,42,43
 146 572 146 572 128 590 c 128,-1,44
 110 608 110 608 110 634 c 256,33,34
271 634 m 256,45,46
 271 660 271 660 289 678 c 128,-1,47
 307 696 307 696 333 696 c 256,48,49
 359 696 359 696 377 678 c 128,-1,50
 395 660 395 660 395 634 c 256,51,52
 395 608 395 608 377 590 c 128,-1,53
 359 572 359 572 333 572 c 256,54,55
 307 572 307 572 289 590 c 128,-1,56
 271 608 271 608 271 634 c 256,45,46
EndSplineSet
EndChar

StartChar: Idieresis
Encoding: 207 207 138
Width: 348
Flags: HW
LayerCount: 2
Fore
SplineSet
312 68 m 1,0,-1
 311 15 l 1,1,-1
 311 0 l 1,2,-1
 51 0 l 1,3,-1
 37 89 l 1,4,-1
 107 102 l 1,5,-1
 107 593 l 1,6,-1
 39 600 l 1,7,-1
 39 691 l 1,8,-1
 299 691 l 1,9,-1
 314 598 l 1,10,-1
 238 586 l 1,11,-1
 238 99 l 1,12,-1
 312 87 l 1,13,-1
 312 68 l 1,0,-1
23 804 m 256,14,15
 23 833 23 833 43 853 c 128,-1,16
 63 873 63 873 91.5 873 c 128,-1,17
 120 873 120 873 140 853 c 128,-1,18
 160 833 160 833 160 804 c 256,19,20
 160 775 160 775 140 755.5 c 128,-1,21
 120 736 120 736 91.5 736 c 128,-1,22
 63 736 63 736 43 755.5 c 128,-1,23
 23 775 23 775 23 804 c 256,14,15
201 804 m 256,24,25
 201 833 201 833 220.5 853 c 128,-1,26
 240 873 240 873 269 873 c 256,27,28
 298 873 298 873 317 853 c 128,-1,29
 336 833 336 833 336 804 c 256,30,31
 336 775 336 775 317 755.5 c 128,-1,32
 298 736 298 736 269 736 c 256,33,34
 240 736 240 736 220.5 755.5 c 128,-1,35
 201 775 201 775 201 804 c 256,24,25
EndSplineSet
EndChar

StartChar: idieresis
Encoding: 239 239 139
Width: 288
Flags: HW
LayerCount: 2
Fore
SplineSet
-4 634 m 256,0,1
 -4 660 -4 660 14 678 c 128,-1,2
 32 696 32 696 58 696 c 256,3,4
 84 696 84 696 102 678 c 128,-1,5
 120 660 120 660 120 634 c 256,6,7
 120 608 120 608 102 590 c 128,-1,8
 84 572 84 572 58 572 c 256,9,10
 32 572 32 572 14 590 c 128,-1,11
 -4 608 -4 608 -4 634 c 256,0,1
147 634 m 256,12,13
 147 660 147 660 165 678 c 128,-1,14
 183 696 183 696 209 696 c 256,15,16
 235 696 235 696 253 678 c 128,-1,17
 271 660 271 660 271 634 c 256,18,19
 271 608 271 608 253 590 c 128,-1,20
 235 572 235 572 209 572 c 256,21,22
 183 572 183 572 165 590 c 128,-1,23
 147 608 147 608 147 634 c 256,12,13
26 466 m 1,24,-1
 175 492 l 1,25,-1
 209 456 l 1,26,-1
 209 75 l 1,27,-1
 264 64 l 1,28,-1
 264 0 l 1,29,-1
 43 0 l 1,30,-1
 32 64 l 1,31,-1
 88 77 l 1,32,-1
 88 398 l 1,33,-1
 37 398 l 1,34,-1
 26 466 l 1,24,-1
EndSplineSet
EndChar

StartChar: acircumflex
Encoding: 226 226 140
Width: 463
Flags: HW
LayerCount: 2
Fore
SplineSet
79 541 m 1,0,-1
 213 700 l 1,1,-1
 245 700 l 1,2,-1
 379 540 l 1,3,-1
 373 529 l 1,4,-1
 295 529 l 1,5,-1
 228 581 l 1,6,-1
 161 529 l 1,7,-1
 84 529 l 1,8,-1
 79 541 l 1,0,-1
286 44 m 1,9,10
 238 -4 238 -4 174 -4 c 256,11,12
 105.555555556 -4 105.555555556 -4 66.5 34 c 0,13,14
 29 70.4864864865 29 70.4864864865 29 121.743243243 c 128,-1,15
 29 173 29 173 52 203 c 128,-1,16
 75 233 75 233 110.5 251.5 c 0,17,18
 175.951590595 285.60857538 175.951590595 285.60857538 274 288 c 1,19,-1
 274 367 l 2,20,21
 274 378 274 378 258.5 387.5 c 128,-1,22
 243 397 243 397 222 397 c 0,23,24
 187.5 397 187.5 397 180 394 c 1,25,-1
 154 320 l 1,26,-1
 30 374 l 1,27,28
 50.4090909091 422.981818182 50.4090909091 422.981818182 102 456 c 0,29,30
 156.6875 491 156.6875 491 223 491 c 0,31,32
 338.442622951 491 338.442622951 491 380 406.5 c 0,33,34
 395 376 395 376 395 330 c 2,35,-1
 395 105 l 2,36,37
 395 83 395 83 413 83 c 1,38,-1
 428 85 l 1,39,-1
 446 29 l 1,40,41
 407.5 -4 407.5 -4 366 -4 c 0,42,43
 310 -4 310 -4 286 44 c 1,9,10
274 204 m 1,44,45
 153 197.631578947 153 197.631578947 153 138 c 0,46,47
 153 121 153 121 164 106.5 c 128,-1,48
 175 92 175 92 200.5 92 c 128,-1,49
 226 92 226 92 246 107 c 128,-1,50
 266 122 266 122 274 139 c 1,51,-1
 274 204 l 1,44,45
EndSplineSet
EndChar

StartChar: ecircumflex
Encoding: 234 234 141
Width: 454
Flags: HW
LayerCount: 2
Fore
SplineSet
156 198 m 1,0,1
 169.956521739 91 169.956521739 91 277 91 c 0,2,3
 323 91 323 91 351 108.5 c 128,-1,4
 379 126 379 126 397 143 c 1,5,-1
 420 56 l 1,6,7
 391.572519084 19.4503816794 391.572519084 19.4503816794 314.5 2 c 0,8,9
 288 -4 288 -4 251 -4 c 128,-1,10
 214 -4 214 -4 173.5 11 c 128,-1,11
 133 26 133 26 101 56 c 0,12,13
 30 122.5625 30 122.5625 30 239 c 0,14,15
 30 360.634920635 30 360.634920635 101.5 431 c 0,16,17
 162.467741935 491 162.467741935 491 253 491 c 0,18,19
 321.941176471 491 321.941176471 491 369.5 458 c 0,20,21
 424 420.183673469 424 420.183673469 424 354 c 0,22,23
 424 275.166666667 424 275.166666667 359 234 c 0,24,25
 300.578947368 197 300.578947368 197 207 197 c 2,26,-1
 180 197 l 2,27,28
 167 197 167 197 156 198 c 1,0,1
103 541 m 1,29,-1
 236 700 l 1,30,-1
 269 700 l 1,31,-1
 403 540 l 1,32,-1
 397 529 l 1,33,-1
 319 529 l 1,34,-1
 252 581 l 1,35,-1
 185 529 l 1,36,-1
 108 529 l 1,37,-1
 103 541 l 1,29,-1
157 282 m 1,38,39
 162 281 162 281 172 281 c 2,40,-1
 190 281 l 2,41,42
 263.307692308 281 263.307692308 281 291 317 c 0,43,44
 301 330 301 330 301 351.5 c 128,-1,45
 301 373 301 373 288 384.5 c 128,-1,46
 275 396 275 396 256 396 c 128,-1,47
 237 396 237 396 220 387 c 128,-1,48
 203 378 203 378 189.5 362.5 c 0,49,50
 161.171735242 329.974955277 161.171735242 329.974955277 157 282 c 1,38,39
EndSplineSet
EndChar

StartChar: icircumflex
Encoding: 238 238 142
Width: 288
Flags: HW
LayerCount: 2
Fore
SplineSet
-4 541 m 1,0,-1
 129 700 l 1,1,-1
 162 700 l 1,2,-1
 296 540 l 1,3,-1
 290 529 l 1,4,-1
 212 529 l 1,5,-1
 145 581 l 1,6,-1
 78 529 l 1,7,-1
 1 529 l 1,8,-1
 -4 541 l 1,0,-1
26 466 m 1,9,-1
 175 492 l 1,10,-1
 209 456 l 1,11,-1
 209 75 l 1,12,-1
 264 64 l 1,13,-1
 264 0 l 1,14,-1
 43 0 l 1,15,-1
 32 64 l 1,16,-1
 88 77 l 1,17,-1
 88 398 l 1,18,-1
 37 398 l 1,19,-1
 26 466 l 1,9,-1
EndSplineSet
EndChar

StartChar: ucircumflex
Encoding: 251 251 143
Width: 539
Flags: HW
LayerCount: 2
Fore
SplineSet
112 541 m 1,0,-1
 245 700 l 1,1,-1
 278 700 l 1,2,-1
 412 540 l 1,3,-1
 406 529 l 1,4,-1
 328 529 l 1,5,-1
 261 581 l 1,6,-1
 194 529 l 1,7,-1
 117 529 l 1,8,-1
 112 541 l 1,0,-1
437 -4 m 0,9,10
 378.153846154 -4 378.153846154 -4 356 44 c 1,11,12
 333 19 333 19 298 7.5 c 128,-1,13
 263 -4 263 -4 230 -4 c 0,14,15
 159 -4 159 -4 117 32.5 c 128,-1,16
 75 69 75 69 75 146 c 2,17,-1
 75 398 l 1,18,-1
 24 398 l 1,19,-1
 13 465 l 1,20,-1
 161 492 l 1,21,-1
 196 454 l 1,22,-1
 196 169 l 2,23,24
 196 130 196 130 214.5 111 c 128,-1,25
 233 92 233 92 262 92 c 128,-1,26
 291 92 291 92 314 108 c 128,-1,27
 337 124 337 124 345 144 c 1,28,-1
 345 401 l 1,29,-1
 300 398 l 1,30,-1
 288 465 l 1,31,-1
 431 492 l 1,32,-1
 466 454 l 1,33,-1
 466 105 l 2,34,35
 466 83 466 83 482 83 c 1,36,-1
 496 85 l 1,37,-1
 515 29 l 1,38,39
 509 22 509 22 488.5 9 c 128,-1,40
 468 -4 468 -4 437 -4 c 0,9,10
EndSplineSet
EndChar

StartChar: Oslash
Encoding: 216 216 144
Width: 655
Flags: HW
LayerCount: 2
Fore
SplineSet
515 627 m 1,0,1
 619 533.196078431 619 533.196078431 619 345 c 0,2,3
 619 187.890410959 619 187.890410959 544.5 94 c 0,4,5
 466.739130435 -4 466.739130435 -4 328 -4 c 0,6,7
 278 -4 278 -4 234 10 c 1,8,-1
 201 -63 l 1,9,-1
 76 -63 l 1,10,-1
 72 -40 l 1,11,-1
 125 77 l 1,12,13
 36 169.955555556 36 169.955555556 36 345 c 0,14,15
 36 502.756756757 36 502.756756757 111 596 c 0,16,17
 189.02173913 693 189.02173913 693 328 693 c 0,18,19
 368 693 368 693 403 684 c 1,20,-1
 436 757 l 1,21,-1
 563 757 l 1,22,-1
 563 733 l 1,23,-1
 515 627 l 1,0,1
453 492 m 1,24,-1
 280 111 l 1,25,26
 301 101 301 101 332 101 c 128,-1,27
 363 101 363 101 391.5 119.5 c 128,-1,28
 420 138 420 138 440 171 c 0,29,30
 482 240.3 482 240.3 482 334.65 c 128,-1,31
 482 429 482 429 453 492 c 1,24,-1
184 439 m 128,-1,33
 173 394 173 394 173 334.5 c 128,-1,34
 173 275 173 275 191 221 c 1,35,-1
 357 584 l 1,36,37
 344 588 344 588 318 588 c 128,-1,38
 292 588 292 588 263.5 569 c 128,-1,39
 235 550 235 550 215 517 c 128,-1,32
 195 484 195 484 184 439 c 128,-1,33
EndSplineSet
EndChar

StartChar: yen
Encoding: 165 165 145
Width: 634
Flags: HW
LayerCount: 2
Fore
SplineSet
269 691 m 1,0,-1
 284 612 l 1,1,-1
 213 598 l 1,2,-1
 338 418 l 1,3,-1
 449 601 l 1,4,-1
 388 612 l 1,5,-1
 388 691 l 1,6,-1
 609 691 l 1,7,-1
 609 603 l 1,8,-1
 565 592 l 1,9,-1
 395 315 l 1,10,-1
 494 315 l 1,11,-1
 494 226 l 1,12,-1
 387 226 l 1,13,-1
 387 212 l 1,14,-1
 494 212 l 1,15,-1
 494 123 l 1,16,-1
 387 123 l 1,17,-1
 387 96 l 1,18,-1
 502 73 l 1,19,-1
 493 0 l 1,20,-1
 152 0 l 1,21,-1
 142 73 l 1,22,-1
 256 96 l 1,23,-1
 256 123 l 1,24,-1
 139 123 l 1,25,-1
 139 212 l 1,26,-1
 256 212 l 1,27,-1
 256 226 l 1,28,-1
 139 226 l 1,29,-1
 139 315 l 1,30,-1
 248 315 l 1,31,-1
 65 592 l 1,32,-1
 25 602 l 1,33,-1
 25 691 l 1,34,-1
 269 691 l 1,0,-1
EndSplineSet
EndChar

StartChar: germandbls
Encoding: 223 223 146
Width: 562
Flags: HW
LayerCount: 2
Fore
SplineSet
132.5 680.5 m 128,-1,1
 186 735 186 735 280 735 c 0,2,3
 421.23880597 735 421.23880597 735 464.5 641.5 c 0,4,5
 480 608 480 608 480 561.5 c 128,-1,6
 480 515 480 515 464.5 486 c 128,-1,7
 449 457 449 457 431 438.5 c 128,-1,8
 413 420 413 420 397.5 408 c 128,-1,9
 382 396 382 396 382 386 c 128,-1,10
 382 376 382 376 386 369.5 c 128,-1,11
 390 363 390 363 398 356 c 128,-1,12
 406 349 406 349 419 340.5 c 128,-1,13
 432 332 432 332 455 315 c 128,-1,14
 478 298 478 298 497 278.5 c 128,-1,15
 516 259 516 259 527 240.5 c 0,16,17
 547 206.863636364 547 206.863636364 547 165.431818182 c 128,-1,18
 547 124 547 124 533 93.5 c 128,-1,19
 519 63 519 63 494.5 41 c 0,20,21
 444.386363636 -4 444.386363636 -4 362 -4 c 0,22,23
 313 -4 313 -4 284 5.5 c 128,-1,24
 255 15 255 15 239 20 c 1,25,-1
 290 141 l 1,26,-1
 346 90 l 1,27,28
 385.222222222 90 385.222222222 90 410.5 122.5 c 0,29,30
 421 136 421 136 421 160 c 128,-1,31
 421 184 421 184 409.5 202.5 c 128,-1,32
 398 221 398 221 381 236.5 c 128,-1,33
 364 252 364 252 343.5 266 c 128,-1,34
 323 280 323 280 306 296 c 0,35,36
 266 333.647058824 266 333.647058824 266 371.823529412 c 128,-1,37
 266 410 266 410 280 430.5 c 128,-1,38
 294 451 294 451 311.5 468 c 128,-1,39
 329 485 329 485 343 505 c 128,-1,40
 357 525 357 525 357 558.5 c 128,-1,41
 357 592 357 592 336.5 616 c 128,-1,42
 316 640 316 640 287 640 c 128,-1,43
 258 640 258 640 242.5 631 c 128,-1,44
 227 622 227 622 217.5 607 c 0,45,46
 200 579.368421053 200 579.368421053 200 532 c 2,47,-1
 200 0 l 1,48,-1
 36 0 l 1,49,-1
 29 72 l 1,50,-1
 79 83 l 1,51,-1
 79 531 l 2,52,0
 79 626 79 626 132.5 680.5 c 128,-1,1
EndSplineSet
EndChar

StartChar: paragraph
Encoding: 182 182 147
Width: 656
Flags: HW
LayerCount: 2
Fore
SplineSet
430 0 m 1,0,-1
 430 591 l 1,1,-1
 377 591 l 1,2,-1
 377 104 l 2,3,4
 377 77.1481481481 377 77.1481481481 346.5 41 c 0,5,6
 321.021126761 10.8028169014 321.021126761 10.8028169014 277 -17 c 1,7,-1
 197 88 l 1,8,-1
 259 130 l 1,9,-1
 259 299 l 1,10,11
 153.004282655 300.962883655 153.004282655 300.962883655 89 357.5 c 0,12,13
 27 412.266666667 27 412.266666667 27 500 c 0,14,15
 27 575.673076923 27 575.673076923 76 627.5 c 0,16,17
 136.036363636 691 136.036363636 691 246 691 c 2,18,-1
 595 691 l 1,19,-1
 595 591 l 1,20,-1
 561 591 l 1,21,-1
 561 0 l 1,22,-1
 430 0 l 1,0,-1
EndSplineSet
EndChar

StartChar: ntilde
Encoding: 241 241 148
Width: 555
Flags: HW
LayerCount: 2
Fore
SplineSet
465 628 m 1,0,1
 414.461538462 555 414.461538462 555 365 555 c 0,2,3
 341.266666667 555 341.266666667 555 315.133333333 569 c 128,-1,4
 289 583 289 583 275.5 589.5 c 128,-1,5
 262 596 262 596 241 596 c 128,-1,6
 220 596 220 596 205.5 580.5 c 128,-1,7
 191 565 191 565 186 548 c 1,8,-1
 122 590 l 1,9,-1
 123 609 l 1,10,11
 143.189349112 659.473372781 143.189349112 659.473372781 194.5 682 c 0,12,13
 215 691 215 691 238 691 c 128,-1,14
 261 691 261 691 279 684.5 c 128,-1,15
 297 678 297 678 312 670.5 c 128,-1,16
 327 663 327 663 338 655.5 c 128,-1,17
 349 648 349 648 355 647 c 1,18,-1
 392 698 l 1,19,-1
 465 628 l 1,0,1
26 466 m 1,20,-1
 174 492 l 1,21,-1
 209 455 l 1,22,23
 228 469 228 469 260 480 c 128,-1,24
 292 491 292 491 324 491 c 128,-1,25
 356 491 356 491 384 483 c 128,-1,26
 412 475 412 475 433 459 c 0,27,28
 479 423.952380952 479 423.952380952 479 359 c 2,29,-1
 479 73 l 1,30,-1
 534 64 l 1,31,-1
 533 0 l 1,32,-1
 308 0 l 1,33,-1
 308 64 l 1,34,-1
 358 75 l 1,35,-1
 358 331 l 2,36,37
 358 393 358 393 296 393 c 0,38,39
 255.153846154 393 255.153846154 393 220.5 366.5 c 0,40,41
 212 360 212 360 209 356 c 1,42,-1
 209 75 l 1,43,-1
 266 63 l 1,44,-1
 265 0 l 1,45,-1
 43 0 l 1,46,-1
 32 64 l 1,47,-1
 88 77 l 1,48,-1
 88 398 l 1,49,-1
 37 398 l 1,50,-1
 26 466 l 1,20,-1
EndSplineSet
EndChar

StartChar: section
Encoding: 167 167 149
Width: 512
Flags: HW
LayerCount: 2
Fore
SplineSet
108 387 m 1,0,1
 52 438.52 52 438.52 52 512 c 0,2,3
 52 589.894736842 52 589.894736842 111.5 640 c 0,4,5
 173.25 692 173.25 692 268 692 c 0,6,7
 361.272727273 692 361.272727273 692 457 665 c 1,8,-1
 472 474 l 1,9,-1
 388 474 l 1,10,-1
 343 589 l 1,11,12
 308.333333333 597 308.333333333 597 269.666666667 597 c 128,-1,13
 231 597 231 597 210 577.5 c 128,-1,14
 189 558 189 558 189 532.5 c 128,-1,15
 189 507 189 507 200.5 491 c 128,-1,16
 212 475 212 475 231.5 462.5 c 0,17,18
 251.340611354 449.781659389 251.340611354 449.781659389 314.170305677 420.890829694 c 128,-1,19
 377 392 377 392 403.5 372.5 c 128,-1,20
 430 353 430 353 444.5 333 c 0,21,22
 470 297.827586207 470 297.827586207 470 243.283358321 c 128,-1,23
 470 188.739130435 470 188.739130435 418 139 c 1,24,25
 463 95.875 463 95.875 463 36.4375 c 128,-1,26
 463 -23 463 -23 442.5 -59 c 128,-1,27
 422 -95 422 -95 388.5 -118 c 0,28,29
 325.869565217 -161 325.869565217 -161 223 -161 c 0,30,31
 165 -161 165 -161 119 -148 c 128,-1,32
 73 -135 73 -135 32 -119 c 1,33,-1
 52 75 l 1,34,-1
 136 67 l 1,35,-1
 145 -54 l 1,36,37
 193 -66 193 -66 232.5 -66 c 128,-1,38
 272 -66 272 -66 299.5 -49 c 128,-1,39
 327 -32 327 -32 327 -0.5 c 128,-1,40
 327 31 327 31 306.5 49.5 c 128,-1,41
 286 68 286 68 255.5 83 c 128,-1,42
 225 98 225 98 189 113 c 128,-1,43
 153 128 153 128 122.5 149.5 c 0,44,45
 51 199.901639344 51 199.901639344 51 276 c 0,46,47
 51 339.12 51 339.12 108 387 c 1,0,1
317 203 m 0,48,49
 334 220 334 220 334 239.5 c 128,-1,50
 334 259 334 259 317.5 272.5 c 128,-1,51
 301 286 301 286 277 297.5 c 128,-1,52
 253 309 253 309 236.5 316 c 128,-1,53
 220 323 220 323 202 331 c 1,54,55
 187 314 187 314 187 295 c 128,-1,56
 187 276 187 276 199 264 c 128,-1,57
 211 252 211 252 230 242 c 128,-1,58
 249 232 249 232 271 223.5 c 128,-1,59
 293 215 293 215 304.5 209 c 128,-1,60
 316 203 316 203 317 203 c 0,48,49
EndSplineSet
EndChar

StartChar: copyright
Encoding: 169 169 150
Width: 752
Flags: HW
LayerCount: 2
Fore
SplineSet
30 373 m 256,0,1
 30 444 30 444 57 507 c 128,-1,2
 84 570 84 570 131 617 c 128,-1,3
 178 664 178 664 241 691.5 c 128,-1,4
 304 719 304 719 375 719 c 256,5,6
 446 719 446 719 509 691.5 c 128,-1,7
 572 664 572 664 619.5 617 c 128,-1,8
 667 570 667 570 694.5 507 c 128,-1,9
 722 444 722 444 722 373 c 256,10,11
 722 302 722 302 694.5 239 c 128,-1,12
 667 176 667 176 619.5 129 c 128,-1,13
 572 82 572 82 509 54.5 c 128,-1,14
 446 27 446 27 375 27 c 256,15,16
 304 27 304 27 241 54.5 c 128,-1,17
 178 82 178 82 131 129 c 128,-1,18
 84 176 84 176 57 239 c 128,-1,19
 30 302 30 302 30 373 c 256,0,1
160 373.5 m 0,20,21
 160 329 160 329 177 289.5 c 128,-1,22
 194 250 194 250 223.5 220.5 c 0,23,24
 287 157 287 157 376 157 c 0,25,26
 465.576271186 157 465.576271186 157 528 220.5 c 0,27,28
 591 284.586206897 591 284.586206897 591 374 c 0,29,30
 591 461.413793103 591 461.413793103 528 525.5 c 0,31,32
 465.576271186 589 465.576271186 589 376 589 c 0,33,34
 287 589 287 589 223.5 525.5 c 128,-1,35
 160 462 160 462 160 373.5 c 0,20,21
323.5 312.5 m 128,-1,37
 350 289 350 289 381.5 289 c 128,-1,38
 413 289 413 289 447 306 c 1,39,-1
 482 220 l 1,40,41
 437.181818182 191 437.181818182 191 393.590909091 191 c 128,-1,42
 350 191 350 191 316.5 204 c 128,-1,43
 283 217 283 217 257.5 240.5 c 0,44,45
 203 290.725490196 203 290.725490196 203 371 c 0,46,47
 203 457.2 203 457.2 258 510 c 0,48,49
 308 558 308 558 387 558 c 0,50,51
 421 558 421 558 454 552 c 1,52,-1
 463 413 l 1,53,-1
 408 413 l 1,54,-1
 393 459 l 1,55,56
 388 460 388 460 384 460 c 2,57,-1
 377 460 l 2,58,59
 337 460 337 460 317 435.5 c 128,-1,60
 297 411 297 411 297 373.5 c 128,-1,36
 297 336 297 336 323.5 312.5 c 128,-1,37
EndSplineSet
EndChar

StartChar: guillemotleft
Encoding: 171 171 151
Width: 469
Flags: HW
LayerCount: 2
Fore
SplineSet
281 486 m 1,0,-1
 133 337 l 1,1,-1
 280 190 l 1,2,-1
 214 123 l 1,3,-1
 1 339 l 1,4,-1
 214 553 l 1,5,-1
 281 486 l 1,0,-1
436 465 m 1,6,-1
 309 337 l 1,7,-1
 435 211 l 1,8,-1
 369 144 l 1,9,-1
 176 339 l 1,10,-1
 369 532 l 1,11,-1
 436 465 l 1,6,-1
EndSplineSet
EndChar

StartChar: logicalnot
Encoding: 172 172 152
Width: 572
Flags: HW
LayerCount: 2
Fore
SplineSet
411 375 m 1,0,-1
 41 375 l 1,1,-1
 41 468 l 1,2,-1
 51 480 l 1,3,-1
 503 480 l 1,4,-1
 516 467 l 1,5,-1
 516 267 l 2,6,7
 516 260 516 260 508 260 c 2,8,-1
 411 260 l 1,9,-1
 411 375 l 1,0,-1
EndSplineSet
EndChar

StartChar: registered
Encoding: 174 174 153
Width: 752
Flags: HW
LayerCount: 2
Fore
SplineSet
30 373 m 256,0,1
 30 444 30 444 57 507 c 128,-1,2
 84 570 84 570 131 617 c 128,-1,3
 178 664 178 664 241 691.5 c 128,-1,4
 304 719 304 719 375 719 c 256,5,6
 446 719 446 719 509 691.5 c 128,-1,7
 572 664 572 664 619.5 617 c 128,-1,8
 667 570 667 570 694.5 507 c 128,-1,9
 722 444 722 444 722 373 c 256,10,11
 722 302 722 302 694.5 239 c 128,-1,12
 667 176 667 176 619.5 129 c 128,-1,13
 572 82 572 82 509 54.5 c 128,-1,14
 446 27 446 27 375 27 c 256,15,16
 304 27 304 27 241 54.5 c 128,-1,17
 178 82 178 82 131 129 c 128,-1,18
 84 176 84 176 57 239 c 128,-1,19
 30 302 30 302 30 373 c 256,0,1
160 373.5 m 0,20,21
 160 329 160 329 177 289.5 c 128,-1,22
 194 250 194 250 223.5 220.5 c 0,23,24
 287 157 287 157 376 157 c 0,25,26
 465.576271186 157 465.576271186 157 528 220.5 c 0,27,28
 591 284.586206897 591 284.586206897 591 374 c 0,29,30
 591 461.413793103 591 461.413793103 528 525.5 c 0,31,32
 465.576271186 589 465.576271186 589 376 589 c 0,33,34
 287 589 287 589 223.5 525.5 c 128,-1,35
 160 462 160 462 160 373.5 c 0,20,21
267 469 m 1,36,37
 252 470.5 252 470.5 246 472 c 1,38,-1
 246 540 l 1,39,-1
 353 540 l 2,40,41
 435.575757576 540 435.575757576 540 476.5 503.5 c 0,42,43
 510 473.621621622 510 473.621621622 510 417.310810811 c 128,-1,44
 510 361 510 361 462 331 c 1,45,-1
 485 269 l 1,46,-1
 512 265 l 1,47,-1
 512 208 l 1,48,-1
 413 208 l 1,49,-1
 383 307 l 1,50,51
 374 306 374 306 365 306 c 2,52,-1
 346 306 l 1,53,-1
 346 268 l 1,54,-1
 387 257 l 1,55,-1
 387 208 l 1,56,-1
 249 208 l 1,57,-1
 247 259 l 1,58,-1
 267 267 l 1,59,-1
 267 469 l 1,36,37
346 379 m 1,60,61
 415.0625 379 415.0625 379 423.5 406 c 0,62,63
 426 414 426 414 426 428 c 128,-1,64
 426 442 426 442 410 454 c 128,-1,65
 394 466 394 466 346 466 c 1,66,-1
 346 379 l 1,60,61
EndSplineSet
EndChar

StartChar: Atilde
Encoding: 195 195 154
Width: 621
Flags: HW
LayerCount: 2
Fore
SplineSet
433 881 m 1,0,-1
 514 805 l 1,1,2
 492 775 492 775 459 751 c 128,-1,3
 426 727 426 727 397 727 c 128,-1,4
 368 727 368 727 351.5 734 c 128,-1,5
 335 741 335 741 320 749.5 c 128,-1,6
 305 758 305 758 289.5 765 c 128,-1,7
 274 772 274 772 249 772 c 128,-1,8
 224 772 224 772 207 754.5 c 128,-1,9
 190 737 190 737 184 718 c 1,10,-1
 110 762 l 1,11,-1
 110 781 l 1,12,13
 120.411764706 812.235294118 120.411764706 812.235294118 143.705882353 832.617647059 c 0,14,15
 189.857142857 873 189.857142857 873 242 873 c 0,16,17
 293.875 873 293.875 873 359.5 831 c 0,18,19
 372 823 372 823 379 823 c 1,20,-1
 433 881 l 1,0,-1
349 0 m 1,21,-1
 349 75 l 1,22,-1
 429 96 l 1,23,-1
 393 218 l 1,24,-1
 197 218 l 1,25,-1
 159 92 l 1,26,-1
 247 76 l 1,27,-1
 247 0 l 1,28,-1
 8 0 l 1,29,-1
 -5 78 l 1,30,-1
 50 96 l 1,31,-1
 248 691 l 1,32,-1
 372 691 l 1,33,-1
 573 96 l 1,34,-1
 619 78 l 1,35,-1
 609 0 l 1,36,-1
 349 0 l 1,21,-1
228 323 m 1,37,-1
 349 323 l 1,38,-1
 296 549 l 1,39,-1
 228 323 l 1,37,-1
EndSplineSet
EndChar

StartChar: Ntilde
Encoding: 209 209 155
Width: 727
Flags: HW
LayerCount: 2
Fore
SplineSet
262 65 m 1,0,-1
 261 13 l 1,1,-1
 261 0 l 1,2,-1
 53 0 l 1,3,-1
 37 87 l 1,4,-1
 106 100 l 1,5,-1
 106 590 l 1,6,-1
 42 597 l 1,7,-1
 42 690 l 1,8,-1
 298 690 l 1,9,-1
 525 96 l 1,10,-1
 525 592 l 1,11,-1
 467 599 l 1,12,-1
 467 690 l 1,13,-1
 682 690 l 1,14,-1
 697 597 l 1,15,-1
 630 585 l 1,16,-1
 630 0 l 1,17,-1
 428 0 l 1,18,-1
 211 562 l 1,19,-1
 211 104 l 1,20,-1
 262 88 l 1,21,-1
 262 65 l 1,0,-1
486 881 m 1,22,-1
 567 805 l 1,23,24
 545 775 545 775 512 751 c 128,-1,25
 479 727 479 727 450 727 c 128,-1,26
 421 727 421 727 404.5 734 c 128,-1,27
 388 741 388 741 373 749.5 c 128,-1,28
 358 758 358 758 342.5 765 c 128,-1,29
 327 772 327 772 302 772 c 128,-1,30
 277 772 277 772 260 754.5 c 128,-1,31
 243 737 243 737 237 718 c 1,32,-1
 163 762 l 1,33,-1
 163 781 l 1,34,35
 173.411764706 812.235294118 173.411764706 812.235294118 196.705882353 832.617647059 c 0,36,37
 242.857142857 873 242.857142857 873 295 873 c 0,38,39
 346.875 873 346.875 873 412.5 831 c 0,40,41
 425 823 425 823 432 823 c 1,42,-1
 486 881 l 1,22,-1
EndSplineSet
EndChar

StartChar: Otilde
Encoding: 213 213 156
Width: 655
Flags: HW
LayerCount: 2
Fore
SplineSet
443 881 m 1,0,-1
 524 805 l 1,1,2
 503 775 503 775 470 751 c 128,-1,3
 437 727 437 727 407.5 727 c 128,-1,4
 378 727 378 727 361.5 734 c 128,-1,5
 345 741 345 741 330 749.5 c 128,-1,6
 315 758 315 758 299.5 765 c 128,-1,7
 284 772 284 772 259 772 c 128,-1,8
 234 772 234 772 217.5 754.5 c 128,-1,9
 201 737 201 737 194 718 c 1,10,-1
 121 762 l 1,11,-1
 121 781 l 1,12,13
 131.823529412 813.470588235 131.823529412 813.470588235 154.411764706 833.235294118 c 0,14,15
 199.857142857 873 199.857142857 873 252 873 c 0,16,17
 304.875 873 304.875 873 370.5 831 c 0,18,19
 383 823 383 823 390 823 c 1,20,-1
 443 881 l 1,0,-1
328 -4 m 256,21,22
 189.826086957 -4 189.826086957 -4 111 94 c 0,23,24
 36 187.243243243 36 187.243243243 36 345 c 256,25,26
 36 502.756756757 36 502.756756757 111 596 c 0,27,28
 189.02173913 693 189.02173913 693 328 693 c 256,29,30
 467.532608696 693 467.532608696 693 544.5 596 c 0,31,32
 619 502.109589041 619 502.109589041 619 345 c 256,33,34
 619 187.890410959 619 187.890410959 544.5 94 c 0,35,36
 466.739130435 -4 466.739130435 -4 328 -4 c 256,21,22
173 343 m 256,37,38
 173 240.3 173 240.3 215 171 c 0,39,40
 257.424242424 101 257.424242424 101 328 101 c 0,41,42
 397.575757576 101 397.575757576 101 440 171 c 0,43,44
 482 240.3 482 240.3 482 343 c 256,45,46
 482 447.7 482 447.7 440 517 c 0,47,48
 396.96969697 588 396.96969697 588 328 588 c 0,49,50
 258.03030303 588 258.03030303 588 215 517 c 0,51,52
 173 447.7 173 447.7 173 343 c 256,37,38
EndSplineSet
EndChar

StartChar: ae
Encoding: 230 230 157
Width: 698
Flags: HW
LayerCount: 2
Fore
SplineSet
356 442 m 1,0,1
 414.423076923 491 414.423076923 491 499 491 c 0,2,3
 564.666666667 491 564.666666667 491 614 454 c 0,4,5
 667 414.25 667 414.25 667 354 c 0,6,7
 667 269.355932203 667 269.355932203 602.5 230 c 0,8,9
 548.416666667 197 548.416666667 197 453 197 c 2,10,11
 426 197 l 2,12,13
 413 197 413 197 402 198 c 1,14,15
 408 153 408 153 435.5 122 c 128,-1,16
 463 91 463 91 517 91 c 0,17,18
 567.111111111 91 567.111111111 91 620 125 c 0,19,20
 634 134 634 134 643 143 c 1,21,-1
 666 56 l 1,22,23
 640.169491525 21.5593220339 640.169491525 21.5593220339 561 2.5 c 0,24,25
 534 -4 534 -4 503 -4 c 0,26,27
 387.071428571 -4 387.071428571 -4 325 75 c 1,28,29
 299 42 299 42 259 19 c 128,-1,30
 219 -4 219 -4 179 -4 c 128,-1,31
 139 -4 139 -4 112 6 c 128,-1,32
 85 16 85 16 66.5 34 c 0,33,34
 29 70.4864864865 29 70.4864864865 29 121.743243243 c 128,-1,35
 29 173 29 173 52 203 c 128,-1,36
 75 233 75 233 110.5 251.5 c 0,37,38
 175.951590595 285.60857538 175.951590595 285.60857538 274 288 c 1,39,-1
 274 367 l 2,40,41
 274 378 274 378 258.5 387.5 c 128,-1,42
 243 397 243 397 222 397 c 0,43,44
 187.5 397 187.5 397 180 394 c 1,45,-1
 154 320 l 1,46,-1
 30 374 l 1,47,48
 50.4090909091 422.981818182 50.4090909091 422.981818182 102 456 c 0,49,50
 156.6875 491 156.6875 491 223 491 c 0,51,52
 308.884615385 491 308.884615385 491 356 442 c 1,0,1
403 282 m 1,53,54
 408 281 408 281 418 281 c 2,55,-1
 436 281 l 2,56,57
 508.307692308 281 508.307692308 281 536 317 c 0,58,59
 546 330 546 330 546 351.5 c 128,-1,60
 546 373 546 373 533.5 385 c 128,-1,61
 521 397 521 397 502 397 c 128,-1,62
 483 397 483 397 466 387.5 c 128,-1,63
 449 378 449 378 435.5 362.5 c 0,64,65
 407.171735242 329.974955277 407.171735242 329.974955277 403 282 c 1,53,54
274 204 m 1,66,67
 153 197.631578947 153 197.631578947 153 138 c 0,68,69
 153 121 153 121 164 106.5 c 128,-1,70
 175 92 175 92 201 92 c 128,-1,71
 227 92 227 92 247 107.5 c 128,-1,72
 267 123 267 123 274 140 c 1,73,-1
 274 204 l 1,66,67
EndSplineSet
EndChar

StartChar: AE
Encoding: 198 198 158
Width: 803
Flags: HW
LayerCount: 2
Fore
SplineSet
1 0 m 1,0,-1
 -12 78 l 1,1,-1
 41 96 l 1,2,-1
 266 691 l 1,3,-1
 745 691 l 1,4,-1
 765 487 l 1,5,-1
 686 487 l 1,6,-1
 646 586 l 1,7,-1
 484 586 l 1,8,-1
 484 408 l 1,9,-1
 636 408 l 1,10,-1
 636 303 l 1,11,-1
 484 303 l 1,12,-1
 484 105 l 1,13,-1
 653 105 l 1,14,-1
 690 204 l 1,15,-1
 768 204 l 1,16,-1
 747 0 l 1,17,-1
 313 0 l 1,18,-1
 298 88 l 1,19,-1
 353 101 l 1,20,-1
 353 260 l 1,21,-1
 215 260 l 1,22,-1
 152 92 l 1,23,-1
 240 76 l 1,24,-1
 240 0 l 1,25,-1
 1 0 l 1,0,-1
342 596 m 1,26,-1
 255 365 l 1,27,-1
 353 365 l 1,28,-1
 353 595 l 1,29,-1
 342 596 l 1,26,-1
EndSplineSet
EndChar

StartChar: atilde
Encoding: 227 227 159
Width: 463
Flags: HW
LayerCount: 2
Fore
SplineSet
388 627 m 1,0,1
 337.461538462 554 337.461538462 554 287 554 c 0,2,3
 262.4 554 262.4 554 237.2 568 c 128,-1,4
 212 582 212 582 198.5 588.5 c 128,-1,5
 185 595 185 595 164 595 c 128,-1,6
 143 595 143 595 128.5 579.5 c 128,-1,7
 114 564 114 564 109 547 c 1,8,-1
 45 589 l 1,9,-1
 46 608 l 1,10,11
 66.0243902439 658.06097561 66.0243902439 658.06097561 117 681 c 0,12,13
 137 690 137 690 160.5 690 c 128,-1,14
 184 690 184 690 202 683.5 c 128,-1,15
 220 677 220 677 235 669.5 c 128,-1,16
 250 662 250 662 261 654.5 c 128,-1,17
 272 647 272 647 278 646 c 1,18,-1
 314 697 l 1,19,-1
 388 627 l 1,0,1
286 44 m 1,20,21
 238 -4 238 -4 174 -4 c 256,22,23
 105.555555556 -4 105.555555556 -4 66.5 34 c 0,24,25
 29 70.4864864865 29 70.4864864865 29 121.743243243 c 128,-1,26
 29 173 29 173 52 203 c 128,-1,27
 75 233 75 233 110.5 251.5 c 0,28,29
 175.951590595 285.60857538 175.951590595 285.60857538 274 288 c 1,30,-1
 274 367 l 2,31,32
 274 378 274 378 258.5 387.5 c 128,-1,33
 243 397 243 397 222 397 c 0,34,35
 187.5 397 187.5 397 180 394 c 1,36,-1
 154 320 l 1,37,-1
 30 374 l 1,38,39
 50.4090909091 422.981818182 50.4090909091 422.981818182 102 456 c 0,40,41
 156.6875 491 156.6875 491 223 491 c 0,42,43
 338.442622951 491 338.442622951 491 380 406.5 c 0,44,45
 395 376 395 376 395 330 c 2,46,-1
 395 105 l 2,47,48
 395 83 395 83 413 83 c 1,49,-1
 428 85 l 1,50,-1
 446 29 l 1,51,52
 407.5 -4 407.5 -4 366 -4 c 0,53,54
 310 -4 310 -4 286 44 c 1,20,21
274 204 m 1,55,56
 153 197.631578947 153 197.631578947 153 138 c 0,57,58
 153 121 153 121 164 106.5 c 128,-1,59
 175 92 175 92 200.5 92 c 128,-1,60
 226 92 226 92 246 107 c 128,-1,61
 266 122 266 122 274 139 c 1,62,-1
 274 204 l 1,55,56
EndSplineSet
EndChar

StartChar: otilde
Encoding: 245 245 160
Width: 499
Flags: HW
LayerCount: 2
Fore
SplineSet
436 627 m 1,0,1
 385.461538462 554 385.461538462 554 335 554 c 0,2,3
 310.4 554 310.4 554 285.2 568 c 128,-1,4
 260 582 260 582 246.5 588.5 c 128,-1,5
 233 595 233 595 212 595 c 128,-1,6
 191 595 191 595 176.5 579.5 c 128,-1,7
 162 564 162 564 157 547 c 1,8,-1
 93 589 l 1,9,-1
 94 608 l 1,10,11
 114.024390244 658.06097561 114.024390244 658.06097561 165 681 c 0,12,13
 185 690 185 690 208.5 690 c 128,-1,14
 232 690 232 690 250 683.5 c 128,-1,15
 268 677 268 677 283 669.5 c 128,-1,16
 298 662 298 662 309 654.5 c 128,-1,17
 320 647 320 647 326 646 c 1,18,-1
 362 697 l 1,19,-1
 436 627 l 1,0,1
29 246 m 256,20,21
 29 360 29 360 98 429 c 0,22,23
 160 491 160 491 249 491 c 256,24,25
 339 491 339 491 401 429 c 0,26,27
 470 360 470 360 470 246 c 256,28,29
 470 129.612903226 470 129.612903226 401 59.5 c 0,30,31
 338.507936508 -4 338.507936508 -4 249 -4 c 256,32,33
 160.492063492 -4 160.492063492 -4 98 59.5 c 0,34,35
 29 129.612903226 29 129.612903226 29 246 c 256,20,21
153 240 m 256,36,37
 153 123.529411765 153 123.529411765 212 97.5 c 0,38,39
 229 90 229 90 249 90 c 256,40,41
 317.578947368 90 317.578947368 90 338.5 169.5 c 0,42,43
 346 198 346 198 346 240 c 256,44,45
 346 359.6 346 359.6 286.5 388.5 c 0,46,47
 269 397 269 397 249 397 c 256,48,49
 181.75 397 181.75 397 160.5 312 c 0,50,51
 153 282 153 282 153 240 c 256,36,37
EndSplineSet
EndChar

StartChar: mu
Encoding: 181 181 161
AltUni2: 0003bc.ffffffff.0
Width: 562
Flags: HW
LayerCount: 2
Fore
SplineSet
205 3 m 1,0,1
 209 -21 209 -21 209 -41 c 2,2,-1
 209 -274 l 1,3,-1
 88 -274 l 1,4,-1
 88 398 l 1,5,-1
 35 398 l 1,6,-1
 25 465 l 1,7,-1
 175 492 l 1,8,-1
 209 458 l 1,9,-1
 209 151 l 1,10,11
 216.866666667 92 216.866666667 92 276 92 c 256,12,13
 303 92 303 92 326 108 c 128,-1,14
 349 124 349 124 357 144 c 1,15,-1
 357 401 l 1,16,-1
 312 398 l 1,17,-1
 301 465 l 1,18,-1
 443 492 l 1,19,-1
 478 454 l 1,20,-1
 478 105 l 2,21,22
 478 83 478 83 494 83 c 1,23,-1
 508 85 l 1,24,-1
 527 29 l 1,25,26
 521 22 521 22 501 9 c 128,-1,27
 481 -4 481 -4 450 -4 c 0,28,29
 390.692307692 -4 390.692307692 -4 369 43 c 1,30,31
 325.76 -4 325.76 -4 262 -4 c 0,32,33
 237.666666667 -4 237.666666667 -4 205 3 c 1,0,1
EndSplineSet
EndChar

StartChar: ocircumflex
Encoding: 244 244 162
Width: 499
Flags: HW
LayerCount: 2
Fore
SplineSet
96 541 m 1,0,-1
 229 700 l 1,1,-1
 262 700 l 1,2,-1
 396 540 l 1,3,-1
 390 529 l 1,4,-1
 312 529 l 1,5,-1
 245 581 l 1,6,-1
 178 529 l 1,7,-1
 101 529 l 1,8,-1
 96 541 l 1,0,-1
29 246 m 256,9,10
 29 360 29 360 98 429 c 0,11,12
 160 491 160 491 249 491 c 256,13,14
 339 491 339 491 401 429 c 0,15,16
 470 360 470 360 470 246 c 256,17,18
 470 129.612903226 470 129.612903226 401 59.5 c 0,19,20
 338.507936508 -4 338.507936508 -4 249 -4 c 256,21,22
 160.492063492 -4 160.492063492 -4 98 59.5 c 0,23,24
 29 129.612903226 29 129.612903226 29 246 c 256,9,10
153 240 m 256,25,26
 153 123.529411765 153 123.529411765 212 97.5 c 0,27,28
 229 90 229 90 249 90 c 256,29,30
 317.578947368 90 317.578947368 90 338.5 169.5 c 0,31,32
 346 198 346 198 346 240 c 256,33,34
 346 359.6 346 359.6 286.5 388.5 c 0,35,36
 269 397 269 397 249 397 c 256,37,38
 181.75 397 181.75 397 160.5 312 c 0,39,40
 153 282 153 282 153 240 c 256,25,26
EndSplineSet
EndChar

StartChar: cedilla
Encoding: 184 184 163
Width: 415
Flags: HW
LayerCount: 2
Fore
SplineSet
134 -82 m 1,0,-1
 168 15 l 1,1,-1
 271 15 l 1,2,-1
 253 -41 l 1,3,4
 323.769230769 -55.1538461538 323.769230769 -55.1538461538 348 -109 c 0,5,6
 357 -129 357 -129 357 -155.5 c 128,-1,7
 357 -182 357 -182 346 -205.5 c 128,-1,8
 335 -229 335 -229 313.5 -247 c 0,9,10
 266.916666667 -286 266.916666667 -286 192 -286 c 0,11,12
 150 -286 150 -286 119.5 -277 c 128,-1,13
 89 -268 89 -268 64 -259 c 1,14,-1
 114 -162 l 1,15,-1
 186 -210 l 1,16,17
 223.1 -210 223.1 -210 242 -183 c 0,18,19
 249 -173 249 -173 249 -154.5 c 128,-1,20
 249 -136 249 -136 231.5 -119 c 128,-1,21
 214 -102 214 -102 171 -102 c 1,22,-1
 158 -101 l 1,23,-1
 134 -82 l 1,0,-1
EndSplineSet
EndChar

StartChar: periodcentered
Encoding: 183 183 164
Width: 243
Flags: HW
LayerCount: 2
Fore
SplineSet
54 399 m 1,0,-1
 172 399 l 1,1,-1
 190 379 l 1,2,-1
 190 224 l 1,3,-1
 54 224 l 1,4,-1
 54 399 l 1,0,-1
EndSplineSet
EndChar

StartChar: aring
Encoding: 229 229 165
Width: 463
Flags: HW
LayerCount: 2
Fore
SplineSet
118 630.5 m 0,0,1
 118 653 118 653 126 672.5 c 128,-1,2
 134 692 134 692 148.5 706.5 c 0,3,4
 179 737 179 737 224 737 c 128,-1,5
 269 737 269 737 299.5 706.5 c 128,-1,6
 330 676 330 676 330 631 c 128,-1,7
 330 586 330 586 299.5 555.5 c 128,-1,8
 269 525 269 525 224 525 c 128,-1,9
 179 525 179 525 148.5 555.5 c 128,-1,10
 118 586 118 586 118 630.5 c 0,0,1
181 631 m 256,11,12
 181 611 181 611 192.5 599.5 c 128,-1,13
 204 588 204 588 224 588 c 256,14,15
 244 588 244 588 255.5 599.5 c 128,-1,16
 267 611 267 611 267 631 c 256,17,18
 267 651 267 651 255.5 662.5 c 128,-1,19
 244 674 244 674 224 674 c 256,20,21
 204 674 204 674 192.5 662.5 c 128,-1,22
 181 651 181 651 181 631 c 256,11,12
286 44 m 1,23,24
 238 -4 238 -4 174 -4 c 256,25,26
 105.555555556 -4 105.555555556 -4 66.5 34 c 0,27,28
 29 70.4864864865 29 70.4864864865 29 121.743243243 c 128,-1,29
 29 173 29 173 52 203 c 128,-1,30
 75 233 75 233 110.5 251.5 c 0,31,32
 175.951590595 285.60857538 175.951590595 285.60857538 274 288 c 1,33,-1
 274 367 l 2,34,35
 274 378 274 378 258.5 387.5 c 128,-1,36
 243 397 243 397 222 397 c 0,37,38
 187.5 397 187.5 397 180 394 c 1,39,-1
 154 320 l 1,40,-1
 30 374 l 1,41,42
 50.4090909091 422.981818182 50.4090909091 422.981818182 102 456 c 0,43,44
 156.6875 491 156.6875 491 223 491 c 0,45,46
 338.442622951 491 338.442622951 491 380 406.5 c 0,47,48
 395 376 395 376 395 330 c 2,49,-1
 395 105 l 2,50,51
 395 83 395 83 413 83 c 1,52,-1
 428 85 l 1,53,-1
 446 29 l 1,54,55
 407.5 -4 407.5 -4 366 -4 c 0,56,57
 310 -4 310 -4 286 44 c 1,23,24
274 204 m 1,58,59
 153 197.631578947 153 197.631578947 153 138 c 0,60,61
 153 121 153 121 164 106.5 c 128,-1,62
 175 92 175 92 200.5 92 c 128,-1,63
 226 92 226 92 246 107 c 128,-1,64
 266 122 266 122 274 139 c 1,65,-1
 274 204 l 1,58,59
EndSplineSet
EndChar

StartChar: Aring
Encoding: 197 197 166
Width: 617
Flags: HW
LayerCount: 2
Fore
SplineSet
407 740 m 256,0,1
 407 695 407 695 378 666 c 1,2,-1
 571 96 l 1,3,-1
 617 78 l 1,4,-1
 607 0 l 1,5,-1
 347 0 l 1,6,-1
 347 75 l 1,7,-1
 427 96 l 1,8,-1
 391 218 l 1,9,-1
 195 218 l 1,10,-1
 157 92 l 1,11,-1
 245 76 l 1,12,-1
 245 0 l 1,13,-1
 6 0 l 1,14,-1
 -7 78 l 1,15,-1
 48 96 l 1,16,-1
 234 656 l 1,17,18
 195 686.333333333 195 686.333333333 195 740 c 0,19,20
 195 785 195 785 225.5 815.5 c 128,-1,21
 256 846 256 846 301 846 c 0,22,23
 346.551724138 846 346.551724138 846 376 815.5 c 0,24,25
 407 783.392857143 407 783.392857143 407 740 c 256,0,1
226 323 m 1,26,-1
 347 323 l 1,27,-1
 294 549 l 1,28,-1
 226 323 l 1,26,-1
262 740 m 256,29,30
 262 722 262 722 272 711.5 c 128,-1,31
 282 701 282 701 300.5 701 c 128,-1,32
 319 701 319 701 329 711.5 c 128,-1,33
 339 722 339 722 339 740 c 256,34,35
 339 758 339 758 329 768.5 c 128,-1,36
 319 779 319 779 300.5 779 c 128,-1,37
 282 779 282 779 272 768.5 c 128,-1,38
 262 758 262 758 262 740 c 256,29,30
EndSplineSet
EndChar

StartChar: macron
Encoding: 175 175 167
Width: 443
Flags: HW
LayerCount: 2
Fore
SplineSet
57 726 m 1,0,-1
 386 726 l 1,1,-1
 386 629 l 1,2,-1
 57 629 l 1,3,-1
 57 726 l 1,0,-1
EndSplineSet
EndChar

StartChar: ccedilla
Encoding: 231 231 168
Width: 431
Flags: HW
LayerCount: 2
Fore
SplineSet
267 -38 m 1,0,1
 343 -55.3714285714 343 -55.3714285714 343 -125 c 0,2,3
 343 -166 343 -166 310 -193.5 c 128,-1,4
 277 -221 277 -221 216 -221 c 0,5,6
 167.75 -221 167.75 -221 125 -203 c 1,7,-1
 159 -129 l 1,8,-1
 214 -169 l 1,9,10
 240.6875 -169 240.6875 -169 258.5 -150 c 0,11,12
 266 -142 266 -142 266 -127 c 0,13,14
 266 -78 266 -78 196 -78 c 1,15,-1
 184 -62 l 1,16,-1
 205 0 l 1,17,18
 86.0530364372 25.2311740891 86.0530364372 25.2311740891 45.5 138.5 c 0,19,20
 31 179 31 179 31 243.5 c 128,-1,21
 31 308 31 308 51 357.5 c 128,-1,22
 71 407 71 407 102.5 437 c 0,23,24
 159.2 491 159.2 491 249 491 c 0,25,26
 323.806451613 491 323.806451613 491 373.5 451.5 c 0,27,28
 397.970588235 432.049019608 397.970588235 432.049019608 416 402 c 1,29,-1
 295 337 l 1,30,-1
 252 397 l 1,31,32
 206 397 206 397 180.5 354 c 128,-1,33
 155 311 155 311 155 238 c 0,34,35
 155 137.363636364 155 137.363636364 218 103 c 0,36,37
 240 91 240 91 266 91 c 128,-1,38
 292 91 292 91 310 96.5 c 128,-1,39
 328 102 328 102 342.5 109.5 c 128,-1,40
 357 117 357 117 367 125.5 c 128,-1,41
 377 134 377 134 383 139 c 1,42,43
 385 132 385 132 389 120 c 128,-1,44
 393 108 393 108 397 95 c 128,-1,45
 401 82 401 82 404 70 c 128,-1,46
 407 58 407 58 409 52 c 1,47,48
 362.333333333 5.33333333333 362.333333333 5.33333333333 279 -3 c 1,49,-1
 267 -38 l 1,0,1
EndSplineSet
EndChar

StartChar: Ccedilla
Encoding: 199 199 169
Width: 589
Flags: HW
LayerCount: 2
Fore
SplineSet
419.5 568 m 128,-1,1
 414 580 414 580 411 583 c 128,-1,2
 408 586 408 586 368 586 c 128,-1,3
 328 586 328 586 291 569.5 c 128,-1,4
 254 553 254 553 226.5 522 c 0,5,6
 166 453.8 166 453.8 166 348 c 0,7,8
 166 237.907407407 166 237.907407407 222 170.5 c 0,9,10
 279.738461538 101 279.738461538 101 372 101 c 0,11,12
 413 101 413 101 454 116 c 128,-1,13
 495 131 495 131 524 160 c 1,14,-1
 566 71 l 1,15,16
 543 43 543 43 498.5 23.5 c 128,-1,17
 454 4 454 4 403 -2 c 1,18,-1
 391 -41 l 1,19,20
 461.769230769 -55.1538461538 461.769230769 -55.1538461538 486 -109 c 0,21,22
 495 -129 495 -129 495 -155.5 c 128,-1,23
 495 -182 495 -182 484 -205.5 c 128,-1,24
 473 -229 473 -229 451.5 -247 c 0,25,26
 404.916666667 -286 404.916666667 -286 330 -286 c 0,27,28
 288 -286 288 -286 257.5 -277 c 128,-1,29
 227 -268 227 -268 202 -259 c 1,30,-1
 252 -162 l 1,31,-1
 324 -210 l 1,32,33
 361.1 -210 361.1 -210 380 -183 c 0,34,35
 387 -173 387 -173 387 -154.5 c 128,-1,36
 387 -136 387 -136 369.5 -119 c 128,-1,37
 352 -102 352 -102 309 -102 c 1,38,-1
 296 -101 l 1,39,-1
 272 -82 l 1,40,-1
 301 1 l 1,41,42
 182.35371179 19.7336244541 182.35371179 19.7336244541 109 103 c 0,43,44
 30 192.675675676 30 192.675675676 30 334 c 0,45,46
 30 499.838709677 30 499.838709677 133.5 600 c 0,47,48
 227.533333333 691 227.533333333 691 360 691 c 0,49,50
 447.4 691 447.4 691 529 667 c 1,51,-1
 549 460 l 1,52,-1
 468 460 l 1,53,54
 447 506 447 506 436 531 c 128,-1,0
 425 556 425 556 419.5 568 c 128,-1,1
EndSplineSet
EndChar

StartChar: guillemotright
Encoding: 187 187 170
Width: 469
Flags: HW
LayerCount: 2
Fore
SplineSet
256 553 m 1,0,-1
 469 337 l 1,1,-1
 256 123 l 1,2,-1
 190 190 l 1,3,-1
 337 337 l 1,4,-1
 189 486 l 1,5,-1
 256 553 l 1,0,-1
100 532 m 1,6,-1
 293 337 l 1,7,-1
 100 144 l 1,8,-1
 34 211 l 1,9,-1
 160 337 l 1,10,-1
 33 465 l 1,11,-1
 100 532 l 1,6,-1
EndSplineSet
EndChar

StartChar: ordfeminine
Encoding: 170 170 171
Width: 385
Flags: HW
LayerCount: 2
Fore
SplineSet
33 643 m 1,0,1
 63.375 724 63.375 724 176 724 c 0,2,3
 289.714285714 724 289.714285714 724 313 642.5 c 0,4,5
 320 618 320 618 319.5 604 c 128,-1,6
 319 590 319 590 319 585 c 2,7,-1
 319 499 l 2,8,9
 319 491 319 491 321 491 c 2,10,-1
 328 491 l 1,11,-1
 342 493 l 1,12,-1
 360 433 l 1,13,14
 326.166666667 404 326.166666667 404 289.261904762 404 c 128,-1,15
 252.357142857 404 252.357142857 404 228 435 c 1,16,17
 196.266666667 401 196.266666667 401 138 401 c 0,18,19
 99.1739130435 401 99.1739130435 401 67.5 424.5 c 0,20,21
 32 450.838709677 32 450.838709677 32 489.919354839 c 128,-1,22
 32 529 32 529 49 549 c 128,-1,23
 66 569 66 569 92 580 c 0,24,25
 134.545454545 598 134.545454545 598 209 598 c 1,26,-1
 209 610 l 2,27,28
 209 620 209 620 202.5 632.5 c 128,-1,29
 196 645 196 645 177 645 c 0,30,31
 163.75 645 163.75 645 155 640 c 1,32,-1
 146 617 l 1,33,-1
 33 643 l 1,0,1
209 545 m 1,34,35
 136 545 136 545 136 510 c 0,36,37
 136 502 136 502 142 492 c 128,-1,38
 148 482 148 482 171.375 482 c 128,-1,39
 194.75 482 194.75 482 209 501 c 1,40,-1
 209 545 l 1,34,35
EndSplineSet
EndChar

StartChar: degree
Encoding: 176 176 172
Width: 346
Flags: HW
LayerCount: 2
Fore
SplineSet
172 724 m 256,0,1
 236.23255814 724 236.23255814 724 277.5 678.5 c 0,2,3
 318 633.846153846 318 633.846153846 318 564 c 0,4,5
 318 491.153846154 318 491.153846154 277.5 446.5 c 0,6,7
 236.23255814 401 236.23255814 401 171.61627907 401 c 128,-1,8
 107 401 107 401 67.5 446 c 128,-1,9
 28 491 28 491 28 562.118421053 c 128,-1,10
 28 633.236842105 28 633.236842105 68.1046511628 678.618421053 c 128,-1,11
 108.209302326 724 108.209302326 724 172 724 c 256,0,1
172 633 m 256,12,13
 133 633 133 633 133 564 c 256,14,15
 133 491 133 491 172 491 c 256,16,17
 195.347826087 491 195.347826087 491 206.5 519.5 c 0,18,19
 213 536.111111111 213 536.111111111 213 564 c 256,20,21
 213 606 213 606 194 625 c 0,22,23
 186 633 186 633 172 633 c 256,12,13
EndSplineSet
EndChar

StartChar: ordmasculine
Encoding: 186 186 173
Width: 354
Flags: HW
LayerCount: 2
Fore
SplineSet
69.5 440 m 128,-1,1
 30 481 30 481 30 564 c 128,-1,2
 30 647 30 647 69.5 686.5 c 128,-1,3
 109 726 109 726 176 726 c 256,4,5
 243 726 243 726 283.5 686.5 c 128,-1,6
 324 647 324 647 324 564 c 128,-1,7
 324 481 324 481 283.5 440 c 128,-1,8
 243 399 243 399 176 399 c 256,9,0
 109 399 109 399 69.5 440 c 128,-1,1
141.5 612 m 128,-1,11
 135 592 135 592 135 560.5 c 128,-1,12
 135 529 135 529 141.5 510.5 c 128,-1,13
 148 492 148 492 176 492 c 256,14,15
 204 492 204 492 211.5 510.5 c 128,-1,16
 219 529 219 529 219 560.5 c 128,-1,17
 219 592 219 592 211.5 612 c 128,-1,18
 204 632 204 632 176 632 c 256,19,10
 148 632 148 632 141.5 612 c 128,-1,11
EndSplineSet
EndChar

StartChar: bullet
Encoding: 8226 8226 174
Width: 273
Flags: HW
LayerCount: 2
Fore
SplineSet
35 383 m 256,0,1
 35 424.407407407 35 424.407407407 64.5 455 c 0,2,3
 93.4285714286 485 93.4285714286 485 136 485 c 256,4,5
 178 485 178 485 208 455 c 128,-1,6
 238 425 238 425 238 383 c 256,7,8
 238 340.428571429 238 340.428571429 208 311.5 c 0,9,10
 177.407407407 282 177.407407407 282 136 282 c 256,11,12
 94 282 94 282 64.5 311.5 c 128,-1,13
 35 341 35 341 35 383 c 256,0,1
EndSplineSet
EndChar

StartChar: OE
Encoding: 338 338 175
Width: 879
Flags: HW
LayerCount: 2
Fore
SplineSet
377 0 m 1,0,-1
 328 -1 l 1,1,2
 189.472527473 -1 189.472527473 -1 111 95.5 c 0,3,4
 36 187.72972973 36 187.72972973 36 345 c 256,5,6
 36 496.947368421 36 496.947368421 117 595 c 0,7,8
 196.304347826 691 196.304347826 691 318 691 c 2,9,-1
 821 691 l 1,10,-1
 840 487 l 1,11,-1
 762 487 l 1,12,-1
 721 586 l 1,13,-1
 559 586 l 1,14,-1
 559 408 l 1,15,-1
 711 408 l 1,16,-1
 711 303 l 1,17,-1
 559 303 l 1,18,-1
 559 105 l 1,19,-1
 728 105 l 1,20,-1
 765 204 l 1,21,-1
 844 204 l 1,22,-1
 823 0 l 1,23,-1
 377 0 l 1,0,-1
428 562 m 1,24,25
 404 586 404 586 354.5 586 c 128,-1,26
 305 586 305 586 272 567.5 c 128,-1,27
 239 549 239 549 217 516 c 0,28,29
 173 450 173 450 173 343 c 256,30,31
 173 173.818181818 173 173.818181818 268 122 c 0,32,33
 301 104 301 104 334 104 c 0,34,35
 398.454545455 104 398.454545455 104 428 129 c 1,36,-1
 428 562 l 1,24,25
EndSplineSet
EndChar

StartChar: oe
Encoding: 339 339 176
Width: 770
Flags: HW
LayerCount: 2
Fore
SplineSet
408 421 m 1,0,1
 472.166666667 491 472.166666667 491 569 491 c 0,2,3
 637.941176471 491 637.941176471 491 685.5 458 c 0,4,5
 740 420.183673469 740 420.183673469 740 354 c 0,6,7
 740 275.166666667 740 275.166666667 675 234 c 0,8,9
 616.578947368 197 616.578947368 197 523 197 c 2,10,-1
 496 197 l 2,11,12
 483 197 483 197 472 198 c 1,13,14
 485.956521739 91 485.956521739 91 593 91 c 0,15,16
 639 91 639 91 667 108.5 c 128,-1,17
 695 126 695 126 713 143 c 1,18,-1
 736 56 l 1,19,20
 707.572519084 19.4503816794 707.572519084 19.4503816794 630.5 2 c 0,21,22
 604 -4 604 -4 573 -4 c 0,23,24
 472 -4 472 -4 406 66 c 1,25,26
 342 -4 342 -4 249 -4 c 0,27,28
 160.492063492 -4 160.492063492 -4 98 59.5 c 0,29,30
 29 129.612903226 29 129.612903226 29 246 c 256,31,32
 29 360 29 360 98 429 c 0,33,34
 160 491 160 491 252 491 c 128,-1,35
 344 491 344 491 408 421 c 1,0,1
153 240 m 256,36,37
 153 123.529411765 153 123.529411765 212 97.5 c 0,38,39
 229 90 229 90 249 90 c 256,40,41
 317.578947368 90 317.578947368 90 338.5 169.5 c 0,42,43
 346 198 346 198 346 240 c 256,44,45
 346 359.6 346 359.6 286.5 388.5 c 0,46,47
 269 397 269 397 249 397 c 256,48,49
 181.75 397 181.75 397 160.5 312 c 0,50,51
 153 282 153 282 153 240 c 256,36,37
473 282 m 1,52,53
 478 281 478 281 488 281 c 2,54,-1
 506 281 l 2,55,56
 579.307692308 281 579.307692308 281 607 317 c 0,57,58
 617 330 617 330 617 351.5 c 128,-1,59
 617 373 617 373 604 384.5 c 128,-1,60
 591 396 591 396 572 396 c 128,-1,61
 553 396 553 396 536 387 c 128,-1,62
 519 378 519 378 505.5 362.5 c 0,63,64
 477.171735242 329.974955277 477.171735242 329.974955277 473 282 c 1,52,53
EndSplineSet
EndChar

StartChar: Euro
Encoding: 8364 8364 177
Width: 620
Flags: HW
LayerCount: 2
Fore
SplineSet
590 65 m 1,0,1
 511.142857143 -4 511.142857143 -4 399.571428571 -4 c 0,2,3
 171.723809524 -4 171.723809524 -4 114 205 c 1,4,-1
 31 205 l 1,5,-1
 31 304 l 1,6,-1
 99 304 l 1,7,8
 98 312 98 312 98 321 c 2,9,-1
 98 350 l 1,10,-1
 31 350 l 1,11,-1
 31 450 l 1,12,-1
 109 450 l 1,13,14
 134.345190666 565.028173022 134.345190666 565.028173022 211.5 629.5 c 0,15,16
 285.098360656 691 285.098360656 691 389 691 c 0,17,18
 476.4 691 476.4 691 558 667 c 1,19,20
 572.666666667 549.666666667 572.666666667 549.666666667 578 491 c 1,21,-1
 497 491 l 1,22,-1
 445 580 l 1,23,24
 437 581 437 581 427.5 583.5 c 128,-1,25
 418 586 418 586 399 586 c 0,26,27
 275.384615385 586 275.384615385 586 244 450 c 1,28,-1
 486 450 l 1,29,-1
 486 348 l 1,30,-1
 233 348 l 1,31,32
 233 326 233 326 235 304 c 1,33,-1
 486 304 l 1,34,-1
 486 205 l 1,35,-1
 255 205 l 1,36,37
 293.204081633 101 293.204081633 101 401 101 c 0,38,39
 452 101 452 101 492 119.5 c 128,-1,40
 532 138 532 138 553 156 c 1,41,-1
 590 65 l 1,0,1
EndSplineSet
EndChar

StartChar: endash
Encoding: 8211 8211 178
Width: 476
Flags: HW
LayerCount: 2
Fore
SplineSet
53 396 m 1,0,-1
 424 396 l 1,1,-1
 424 301 l 1,2,-1
 53 301 l 1,3,-1
 53 396 l 1,0,-1
EndSplineSet
EndChar

StartChar: emdash
Encoding: 8212 8212 179
Width: 626
Flags: HW
LayerCount: 2
Fore
SplineSet
53 396 m 1,0,-1
 574 396 l 1,1,-1
 574 301 l 1,2,-1
 53 301 l 1,3,-1
 53 396 l 1,0,-1
EndSplineSet
EndChar

StartChar: quotedblleft
Encoding: 8220 8220 180
Width: 401
Flags: HW
LayerCount: 2
Fore
SplineSet
372 687 m 1,0,-1
 326 562 l 1,1,-1
 370 409 l 1,2,-1
 237 373 l 1,3,4
 235 377 235 377 231 394 c 128,-1,5
 227 411 227 411 222 432 c 0,6,7
 210 482.4 210 482.4 210 512.2 c 128,-1,8
 210 542 210 542 216.5 574.5 c 128,-1,9
 223 607 223 607 233.5 636 c 0,10,11
 254.164893617 693.074468085 254.164893617 693.074468085 283 733 c 1,12,-1
 368 697 l 1,13,-1
 372 687 l 1,0,-1
200 689 m 1,14,-1
 153 547 l 1,15,-1
 199 382 l 1,16,-1
 66 346 l 1,17,18
 56.8709677419 364.258064516 56.8709677419 364.258064516 46.935483871 422.629032258 c 128,-1,19
 37 481 37 481 37 504 c 128,-1,20
 37 527 37 527 44 562 c 128,-1,21
 51 597 51 597 61.5 629.5 c 0,22,23
 82.0298507463 693.044776119 82.0298507463 693.044776119 110 735 c 1,24,-1
 196 700 l 1,25,-1
 200 689 l 1,14,-1
EndSplineSet
EndChar

StartChar: quotedblright
Encoding: 8221 8221 181
Width: 397
Flags: HW
LayerCount: 2
Fore
SplineSet
178 720 m 1,0,1
 195 652 195 652 195 616 c 128,-1,2
 195 580 195 580 187 546.5 c 128,-1,3
 179 513 179 513 167 482.5 c 0,4,5
 144.08056872 424.246445498 144.08056872 424.246445498 112 383 c 1,6,-1
 28 422 l 1,7,-1
 25 433 l 1,8,-1
 76 555 l 1,9,-1
 43 690 l 1,10,-1
 178 720 l 1,0,1
350 740 m 1,11,12
 369 664 369 664 369 626 c 128,-1,13
 369 588 369 588 361 551.5 c 128,-1,14
 353 515 353 515 340.5 481.5 c 0,15,16
 314.782786885 412.577868852 314.782786885 412.577868852 284 373 c 1,17,-1
 200 412 l 1,18,-1
 197 423 l 1,19,-1
 250 563 l 1,20,-1
 215 710 l 1,21,-1
 350 740 l 1,11,12
EndSplineSet
EndChar

StartChar: quoteleft
Encoding: 8216 8216 182
Width: 219
Flags: HW
LayerCount: 2
Fore
SplineSet
185 697 m 1,0,-1
 150 569 l 1,1,-1
 191 449 l 1,2,-1
 61 402 l 1,3,4
 48.3333333333 433.666666667 48.3333333333 433.666666667 42.6666666667 473.333333333 c 128,-1,5
 37 513 37 513 37 537 c 128,-1,6
 37 561 37 561 42 590 c 128,-1,7
 47 619 47 619 55 646 c 0,8,9
 69.5671641791 695.164179104 69.5671641791 695.164179104 93 735 c 1,10,-1
 181 707 l 1,11,-1
 185 697 l 1,0,-1
EndSplineSet
EndChar

StartChar: quoteright
Encoding: 8217 8217 183
Width: 220
Flags: HW
LayerCount: 2
Fore
SplineSet
184 738 m 1,0,1
 194 698 194 698 194 653 c 128,-1,2
 194 608 194 608 186 574.5 c 128,-1,3
 178 541 178 541 166 510.5 c 0,4,5
 143.08056872 452.246445498 143.08056872 452.246445498 111 411 c 1,6,-1
 27 450 l 1,7,-1
 24 461 l 1,8,-1
 75 583 l 1,9,-1
 49 708 l 1,10,-1
 184 738 l 1,0,1
EndSplineSet
EndChar

StartChar: guilsinglleft
Encoding: 8249 8249 184
Width: 327
Flags: HW
LayerCount: 2
Fore
SplineSet
2 314 m 1,0,-1
 265 550 l 1,1,-1
 270 548 l 1,2,-1
 270 417 l 1,3,-1
 151 300 l 1,4,-1
 270 184 l 1,5,-1
 270 53 l 1,6,-1
 264 50 l 1,7,-1
 2 288 l 1,8,-1
 2 314 l 1,0,-1
EndSplineSet
EndChar

StartChar: guilsinglright
Encoding: 8250 8250 185
Width: 327
Flags: HW
LayerCount: 2
Fore
SplineSet
325 288 m 1,0,-1
 63 50 l 1,1,-1
 57 53 l 1,2,-1
 57 184 l 1,3,-1
 176 300 l 1,4,-1
 57 417 l 1,5,-1
 57 548 l 1,6,-1
 62 550 l 1,7,-1
 325 314 l 1,8,-1
 325 288 l 1,0,-1
EndSplineSet
EndChar

StartChar: quotesinglbase
Encoding: 8218 8218 186
Width: 237
Flags: HW
LayerCount: 2
Fore
SplineSet
171 204 m 1,0,1
 192 120 192 120 192 82 c 128,-1,2
 192 44 192 44 184 10.5 c 128,-1,3
 176 -23 176 -23 164 -53.5 c 0,4,5
 141.08056872 -111.753554502 141.08056872 -111.753554502 109 -153 c 1,6,-1
 25 -114 l 1,7,-1
 22 -103 l 1,8,-1
 73 19 l 1,9,-1
 36 174 l 1,10,-1
 171 204 l 1,0,1
EndSplineSet
EndChar

StartChar: quotedblbase
Encoding: 8222 8222 187
Width: 408
Flags: HW
LayerCount: 2
Fore
SplineSet
168 204 m 1,0,1
 189 120 189 120 189 82 c 128,-1,2
 189 44 189 44 181 10.5 c 128,-1,3
 173 -23 173 -23 161 -53.5 c 0,4,5
 138.08056872 -111.753554502 138.08056872 -111.753554502 106 -153 c 1,6,-1
 22 -114 l 1,7,-1
 19 -103 l 1,8,-1
 70 19 l 1,9,-1
 33 174 l 1,10,-1
 168 204 l 1,0,1
191 -113 m 1,11,-1
 244 27 l 1,12,-1
 205 194 l 1,13,-1
 340 224 l 1,14,15
 349.823529412 184.705882353 349.823529412 184.705882353 356.411764706 142.352941176 c 128,-1,16
 363 100 363 100 363 76 c 128,-1,17
 363 52 363 52 355 15.5 c 128,-1,18
 347 -21 347 -21 334.5 -54.5 c 0,19,20
 308.782786885 -123.422131148 308.782786885 -123.422131148 278 -163 c 1,21,-1
 194 -124 l 1,22,-1
 191 -113 l 1,11,-1
EndSplineSet
EndChar

StartChar: a
Encoding: 97 97 188
Width: 463
Flags: HW
LayerCount: 2
Fore
SplineSet
286 44 m 1,0,1
 238 -4 238 -4 174 -4 c 256,2,3
 105.555555556 -4 105.555555556 -4 66.5 34 c 0,4,5
 29 70.4864864865 29 70.4864864865 29 121.743243243 c 128,-1,6
 29 173 29 173 52 203 c 128,-1,7
 75 233 75 233 110.5 251.5 c 0,8,9
 175.951590595 285.60857538 175.951590595 285.60857538 274 288 c 1,10,-1
 274 367 l 2,11,12
 274 378 274 378 258.5 387.5 c 128,-1,13
 243 397 243 397 222 397 c 0,14,15
 187.5 397 187.5 397 180 394 c 1,16,-1
 154 320 l 1,17,-1
 30 374 l 1,18,19
 50.4090909091 422.981818182 50.4090909091 422.981818182 102 456 c 0,20,21
 156.6875 491 156.6875 491 223 491 c 0,22,23
 338.442622951 491 338.442622951 491 380 406.5 c 0,24,25
 395 376 395 376 395 330 c 2,26,-1
 395 105 l 2,27,28
 395 83 395 83 413 83 c 1,29,-1
 428 85 l 1,30,-1
 446 29 l 1,31,32
 407.5 -4 407.5 -4 366 -4 c 0,33,34
 310 -4 310 -4 286 44 c 1,0,1
274 204 m 1,35,36
 153 197.631578947 153 197.631578947 153 138 c 0,37,38
 153 121 153 121 164 106.5 c 128,-1,39
 175 92 175 92 200.5 92 c 128,-1,40
 226 92 226 92 246 107 c 128,-1,41
 266 122 266 122 274 139 c 1,42,-1
 274 204 l 1,35,36
EndSplineSet
EndChar

StartChar: b
Encoding: 98 98 189
Width: 499
Flags: HW
LayerCount: 2
Fore
SplineSet
184 472 m 1,0,1
 222 491 222 491 269 491 c 128,-1,2
 316 491 316 491 352 474.5 c 128,-1,3
 388 458 388 458 414 427 c 0,4,5
 468 362.615384615 468 362.615384615 468 251 c 0,6,7
 468 114.904761905 468 114.904761905 397.5 50 c 0,8,9
 338.844827586 -4 338.844827586 -4 245 -4 c 0,10,11
 188 -4 188 -4 149 17 c 1,12,-1
 96 -4 l 1,13,-1
 64 23 l 1,14,-1
 64 651 l 1,15,-1
 12 648 l 1,16,-1
 1 716 l 1,17,-1
 150 736 l 1,18,-1
 184 701 l 1,19,-1
 184 472 l 1,0,1
184 103 m 1,20,21
 203.5 90 203.5 90 244.75 90 c 128,-1,22
 286 90 286 90 315 127.5 c 128,-1,23
 344 165 344 165 344 244.5 c 128,-1,24
 344 324 344 324 316.5 360.5 c 128,-1,25
 289 397 289 397 248.875 397 c 128,-1,26
 208.75 397 208.75 397 184 379 c 1,27,-1
 184 103 l 1,20,21
EndSplineSet
EndChar

StartChar: c
Encoding: 99 99 190
Width: 431
Flags: HW
LayerCount: 2
Fore
SplineSet
408 52 m 1,0,1
 354 -4 354 -4 249 -4 c 0,2,3
 162.327586207 -4 162.327586207 -4 101.5 52 c 0,4,5
 30 117.825396825 30 117.825396825 30 233 c 0,6,7
 30 368.904761905 30 368.904761905 101.5 437 c 0,8,9
 158.2 491 158.2 491 248 491 c 0,10,11
 322.806451613 491 322.806451613 491 372.5 451.5 c 0,12,13
 396.970588235 432.049019608 396.970588235 432.049019608 415 402 c 1,14,-1
 294 337 l 1,15,-1
 251 397 l 1,16,17
 205 397 205 397 179.5 354 c 128,-1,18
 154 311 154 311 154 238 c 0,19,20
 154 137.363636364 154 137.363636364 217 103 c 0,21,22
 239 91 239 91 265 91 c 128,-1,23
 291 91 291 91 309 96.5 c 128,-1,24
 327 102 327 102 341.5 109.5 c 128,-1,25
 356 117 356 117 366 125.5 c 128,-1,26
 376 134 376 134 382 139 c 1,27,28
 384 132 384 132 388 120 c 128,-1,29
 392 108 392 108 396 95 c 128,-1,30
 400 82 400 82 403 70 c 128,-1,31
 406 58 406 58 408 52 c 1,0,1
EndSplineSet
EndChar

StartChar: brokenbar
Encoding: 166 166 191
Width: 275
Flags: HW
LayerCount: 2
Fore
SplineSet
77 286 m 1,0,-1
 77 690 l 1,1,-1
 198 690 l 1,2,-1
 198 286 l 1,3,-1
 77 286 l 1,0,-1
77 -247 m 1,4,-1
 77 152 l 1,5,-1
 198 152 l 1,6,-1
 198 -247 l 1,7,-1
 77 -247 l 1,4,-1
EndSplineSet
EndChar

StartChar: multiply
Encoding: 215 215 192
Width: 465
Flags: HW
LayerCount: 2
Fore
SplineSet
35 201 m 1,0,-1
 162 328 l 1,1,-1
 35 455 l 1,2,-1
 105 525 l 1,3,-1
 232 398 l 1,4,-1
 359 526 l 1,5,-1
 430 456 l 1,6,-1
 303 328 l 1,7,-1
 430 202 l 1,8,-1
 359 131 l 1,9,-1
 232 257 l 1,10,-1
 105 130 l 1,11,-1
 35 201 l 1,0,-1
EndSplineSet
EndChar

StartChar: Yacute
Encoding: 221 221 193
Width: 583
Flags: HW
LayerCount: 2
Fore
SplineSet
242 691 m 1,0,-1
 257 612 l 1,1,-1
 186 598 l 1,2,-1
 310 382 l 1,3,-1
 422 601 l 1,4,-1
 361 612 l 1,5,-1
 361 691 l 1,6,-1
 582 691 l 1,7,-1
 582 603 l 1,8,-1
 538 592 l 1,9,-1
 360 251 l 1,10,-1
 360 96 l 1,11,-1
 475 73 l 1,12,-1
 466 0 l 1,13,-1
 125 0 l 1,14,-1
 115 73 l 1,15,-1
 229 96 l 1,16,-1
 229 252 l 1,17,-1
 38 592 l 1,18,-1
 -2 602 l 1,19,-1
 -2 691 l 1,20,-1
 242 691 l 1,0,-1
232 795 m 1,21,-1
 361 959 l 1,22,-1
 398 974 l 1,23,-1
 476 865 l 1,24,-1
 279 741 l 1,25,-1
 232 795 l 1,21,-1
EndSplineSet
EndChar

StartChar: yacute
Encoding: 253 253 194
Width: 499
Flags: HW
LayerCount: 2
Fore
SplineSet
496 455 m 1,0,1
 479.636363636 411.363636364 479.636363636 411.363636364 425.818181818 257.181818182 c 128,-1,2
 372 103 372 103 354 51.5 c 128,-1,3
 336 0 336 0 320.5 -44 c 128,-1,4
 305 -88 305 -88 293 -120.5 c 128,-1,5
 281 -153 281 -153 271 -179.5 c 128,-1,6
 261 -206 261 -206 243.5 -227.5 c 128,-1,7
 226 -249 226 -249 208.5 -259.5 c 0,8,9
 184.333333333 -274 184.333333333 -274 150 -274 c 0,10,11
 106.222222222 -274 106.222222222 -274 61.5 -251 c 0,12,13
 44 -242 44 -242 29 -228 c 1,14,-1
 83 -144 l 1,15,16
 126.2 -180 126.2 -180 142.1 -180 c 128,-1,17
 158 -180 158 -180 169.5 -167 c 128,-1,18
 181 -154 181 -154 193 -121 c 2,19,-1
 215 -61 l 1,20,-1
 46 407 l 1,21,-1
 8 407 l 1,22,-1
 0 479 l 1,23,-1
 150 491 l 1,24,-1
 280 119 l 1,25,26
 299 172 299 172 317.5 222.5 c 128,-1,27
 336 273 336 273 352.5 318 c 128,-1,28
 369 363 369 363 384 407 c 1,29,-1
 338 407 l 1,30,-1
 330 480 l 1,31,-1
 476 491 l 1,32,-1
 496 455 l 1,0,1
123 561 m 1,33,-1
 249 722 l 1,34,-1
 285 736 l 1,35,-1
 362 630 l 1,36,-1
 169 509 l 1,37,-1
 123 561 l 1,33,-1
EndSplineSet
EndChar

StartChar: Eth
Encoding: 208 208 195
Width: 639
Flags: HW
LayerCount: 2
Fore
SplineSet
41 88 m 1,0,-1
 106 101 l 1,1,-1
 106 309 l 1,2,-1
 14 309 l 1,3,-1
 14 391 l 1,4,-1
 28 403 l 1,5,-1
 106 403 l 1,6,-1
 106 595 l 1,7,-1
 43 603 l 1,8,-1
 43 691 l 1,9,-1
 222 691 l 2,10,11
 502.417322835 691 502.417322835 691 581.5 501.5 c 0,12,13
 608 438 608 438 608 354 c 0,14,15
 608 185 608 185 521 92.5 c 128,-1,16
 434 0 434 0 265 0 c 2,17,-1
 48 0 l 1,18,-1
 41 88 l 1,0,-1
237 105 m 1,19,-1
 256 104 l 1,20,21
 362 104 362 104 417 167 c 128,-1,22
 472 230 472 230 472 350 c 0,23,24
 472 586 472 586 237 586 c 1,25,-1
 237 403 l 1,26,-1
 362 403 l 2,27,28
 369 403 369 403 369 396 c 2,29,-1
 369 309 l 1,30,-1
 237 309 l 1,31,-1
 237 105 l 1,19,-1
EndSplineSet
EndChar

StartChar: thorn
Encoding: 254 254 196
Width: 501
Flags: HW
LayerCount: 2
Fore
SplineSet
186 472 m 1,0,1
 224 491 224 491 271 491 c 128,-1,2
 318 491 318 491 354 474.5 c 128,-1,3
 390 458 390 458 416 427 c 0,4,5
 470 362.615384615 470 362.615384615 470 251 c 0,6,7
 470 114.904761905 470 114.904761905 399.5 50 c 0,8,9
 340.844827586 -4 340.844827586 -4 247 -4 c 0,10,11
 216.666666667 -4 216.666666667 -4 184 3 c 1,12,-1
 186 -7 l 1,13,-1
 186 -182 l 1,14,-1
 305 -208 l 1,15,-1
 305 -273 l 1,16,-1
 21 -273 l 1,17,-1
 15 -210 l 1,18,-1
 66 -195 l 1,19,-1
 66 648 l 1,20,-1
 14 648 l 1,21,-1
 3 716 l 1,22,-1
 152 736 l 1,23,-1
 186 701 l 1,24,-1
 186 472 l 1,0,1
186 103 m 1,25,26
 205.5 90 205.5 90 246.75 90 c 128,-1,27
 288 90 288 90 317 127.5 c 128,-1,28
 346 165 346 165 346 244.5 c 128,-1,29
 346 324 346 324 318.5 360.5 c 128,-1,30
 291 397 291 397 250.875 397 c 128,-1,31
 210.75 397 210.75 397 186 379 c 1,32,-1
 186 103 l 1,25,26
EndSplineSet
EndChar

StartChar: Thorn
Encoding: 222 222 197
Width: 556
Flags: HW
LayerCount: 2
Fore
SplineSet
240 558 m 1,0,-1
 276 559 l 1,1,2
 406.909090909 559 406.909090909 559 478 501.5 c 0,3,4
 545 447.308823529 545 447.308823529 545 352 c 256,5,6
 545 257 545 257 479 203 c 0,7,8
 409.333333333 146 409.333333333 146 279 146 c 2,9,-1
 260 146 l 2,10,11
 251 146 251 146 240 147 c 1,12,-1
 240 99 l 1,13,-1
 354 87 l 1,14,-1
 354 0 l 1,15,-1
 40 0 l 1,16,-1
 40 89 l 1,17,-1
 108 102 l 1,18,-1
 108 593 l 1,19,-1
 40 600 l 1,20,-1
 40 691 l 1,21,-1
 301 691 l 1,22,-1
 315 598 l 1,23,-1
 240 586 l 1,24,-1
 240 558 l 1,0,-1
409 352 m 256,25,26
 409 399.763157895 409 399.763157895 377 422.5 c 0,27,28
 336.691068814 451.140556369 336.691068814 451.140556369 240 453 c 1,29,-1
 240 251 l 1,30,31
 380.891891892 251 380.891891892 251 402.5 312.5 c 0,32,33
 409 331 409 331 409 352 c 256,25,26
EndSplineSet
EndChar

StartChar: eth
Encoding: 240 240 198
Width: 545
Flags: HW
LayerCount: 2
Fore
SplineSet
203 582 m 1,0,1
 178.294117647 595.588235294 178.294117647 595.588235294 133 615 c 1,2,-1
 185 736 l 1,3,4
 258.650793651 708.063492063 258.650793651 708.063492063 313 669 c 1,5,-1
 396 735 l 1,6,-1
 462 633 l 1,7,-1
 399 595 l 1,8,9
 510 474.75 510 474.75 510 326 c 0,10,11
 510 206.583333333 510 206.583333333 463 116.5 c 0,12,13
 424.428571429 42.5714285714 424.428571429 42.5714285714 348 12 c 0,14,15
 308 -4 308 -4 255.5 -4 c 128,-1,16
 203 -4 203 -4 161 14 c 128,-1,17
 119 32 119 32 90 62.5 c 0,18,19
 29 126.655172414 29 126.655172414 29 218 c 0,20,21
 29 322 29 322 86 388.5 c 128,-1,22
 143 455 143 455 236 455 c 0,23,24
 319.526315789 455 319.526315789 455 369 408 c 1,25,26
 344.686882934 475.328631876 344.686882934 475.328631876 283 526 c 1,27,-1
 170 459 l 1,28,-1
 133 526 l 1,29,-1
 203 582 l 1,0,1
263 101 m 0,30,31
 366.72 101 366.72 101 381 254 c 1,32,33
 373.64 305.52 373.64 305.52 337 333 c 0,34,35
 306.333333333 356 306.333333333 356 270.666666667 356 c 128,-1,36
 235 356 235 356 213.5 344.5 c 128,-1,37
 192 333 192 333 179 314.5 c 0,38,39
 155 280.346153846 155 280.346153846 155 225 c 0,40,41
 155 176.103448276 155 176.103448276 184.5 140.5 c 0,42,43
 217.228571429 101 217.228571429 101 263 101 c 0,30,31
EndSplineSet
EndChar

StartChar: currency
Encoding: 164 164 199
Width: 585
Flags: HW
LayerCount: 2
Fore
SplineSet
462 445 m 1,0,1
 489 399.307692308 489 399.307692308 489 346.653846154 c 128,-1,2
 489 294 489 294 464 250 c 1,3,-1
 542 172 l 1,4,-1
 467 98 l 1,5,-1
 390 175 l 1,6,7
 345 150 345 150 292.5 150 c 128,-1,8
 240 150 240 150 196 175 c 1,9,-1
 119 98 l 1,10,-1
 44 172 l 1,11,-1
 122 250 l 1,12,13
 97 294 97 294 97 348 c 128,-1,14
 97 402 97 402 123 446 c 1,15,-1
 44 525 l 1,16,-1
 119 600 l 1,17,-1
 199 519 l 1,18,19
 244.818181818 543 244.818181818 543 293 543 c 256,20,21
 341.181818182 543 341.181818182 543 387 519 c 1,22,-1
 467 600 l 1,23,-1
 542 525 l 1,24,-1
 462 445 l 1,0,1
201 346 m 256,25,26
 201 305 201 305 226 279.5 c 128,-1,27
 251 254 251 254 292.5 254 c 128,-1,28
 334 254 334 254 359 279.5 c 128,-1,29
 384 305 384 305 384 346 c 256,30,31
 384 387 384 387 359 412.5 c 128,-1,32
 334 438 334 438 292.5 438 c 128,-1,33
 251 438 251 438 226 412.5 c 128,-1,34
 201 387 201 387 201 346 c 256,25,26
EndSplineSet
EndChar

StartChar: uni00AD
Encoding: 173 173 200
Width: 429
Flags: HW
LayerCount: 2
Fore
SplineSet
459 314 m 1,0,-1
 -30 314 l 1,1,-1
 -30 419 l 1,2,-1
 459 419 l 1,3,-1
 459 314 l 1,0,-1
EndSplineSet
EndChar

StartChar: twosuperior
Encoding: 178 178 201
Width: 336
Flags: HW
LayerCount: 2
Fore
SplineSet
58 402 m 1,0,-1
 41 461 l 1,1,2
 50 471 50 471 74 490 c 128,-1,3
 98 509 98 509 122.5 531 c 0,4,5
 185 587.12244898 185 587.12244898 185 619 c 0,6,7
 185 639 185 639 174.5 645 c 128,-1,8
 164 651 164 651 156 651 c 128,-1,9
 148 651 148 651 136 648 c 1,10,-1
 116 607 l 1,11,-1
 27 635 l 1,12,13
 53.1637168142 701.862831858 53.1637168142 701.862831858 127 722 c 0,14,15
 149 728 149 728 169.5 728 c 128,-1,16
 190 728 190 728 211 722 c 128,-1,17
 232 716 232 716 249.5 704 c 0,18,19
 290 676.228571429 290 676.228571429 290 627 c 0,20,21
 290 552.073170732 290 552.073170732 200.5 497.5 c 0,22,23
 180 485 180 485 168 477 c 1,24,-1
 225 477 l 1,25,-1
 243 513 l 1,26,-1
 296 513 l 1,27,-1
 285 402 l 1,28,-1
 58 402 l 1,0,-1
EndSplineSet
EndChar

StartChar: threesuperior
Encoding: 179 179 202
Width: 323
Flags: HW
LayerCount: 2
Fore
SplineSet
62 511 m 1,0,1
 97 476 97 476 145 476 c 0,2,3
 163 476 163 476 174 485 c 128,-1,4
 185 494 185 494 185 509.5 c 128,-1,5
 185 525 185 525 171.5 532.5 c 128,-1,6
 158 540 158 540 112 540 c 1,7,-1
 112 592 l 1,8,9
 168.857142857 592 168.857142857 592 176 617 c 0,10,11
 178 624 178 624 178 631.5 c 128,-1,12
 178 639 178 639 170.5 645.5 c 128,-1,13
 163 652 163 652 152.5 652 c 128,-1,14
 142 652 142 652 137.5 650.5 c 128,-1,15
 133 649 133 649 129 648 c 1,16,-1
 114 621 l 1,17,-1
 31 650 l 1,18,19
 48 691 48 691 85.5 709.5 c 128,-1,20
 123 728 123 728 156.5 728 c 128,-1,21
 190 728 190 728 211 721.5 c 128,-1,22
 232 715 232 715 248 703 c 0,23,24
 283 676.75 283 676.75 283 641.375 c 128,-1,25
 283 606 283 606 265.5 590.5 c 128,-1,26
 248 575 248 575 229 570 c 1,27,28
 255.4 563.4 255.4 563.4 266.2 553.2 c 0,29,30
 290 530.722222222 290 530.722222222 290 500.361111111 c 128,-1,31
 290 470 290 470 278 451.5 c 128,-1,32
 266 433 266 433 246 422 c 0,33,34
 209.636363636 402 209.636363636 402 158.318181818 402 c 128,-1,35
 107 402 107 402 74 416.5 c 128,-1,36
 41 431 41 431 28 443 c 1,37,-1
 62 511 l 1,0,1
EndSplineSet
EndChar

StartChar: onequarter
Encoding: 188 188 203
Width: 757
Flags: HW
LayerCount: 2
Fore
SplineSet
254 0 m 1,0,-1
 129 0 l 1,1,-1
 126 13 l 1,2,-1
 444 691 l 1,3,-1
 572 691 l 1,4,-1
 571 677 l 1,5,-1
 254 0 l 1,0,-1
725 101 m 1,6,-1
 680 101 l 1,7,-1
 680 66 l 1,8,-1
 726 58 l 1,9,-1
 726 0 l 1,10,-1
 486 0 l 1,11,-1
 480 49 l 1,12,-1
 564 63 l 1,13,-1
 564 101 l 1,14,-1
 394 101 l 1,15,-1
 394 181 l 1,16,-1
 564 400 l 1,17,-1
 680 400 l 1,18,-1
 680 185 l 1,19,-1
 725 185 l 1,20,-1
 725 101 l 1,6,-1
45 371 m 1,21,-1
 91 378 l 1,22,-1
 91 608 l 1,23,-1
 37 600 l 1,24,-1
 29 666 l 1,25,-1
 193 714 l 1,26,-1
 206 702 l 1,27,-1
 206 381 l 1,28,-1
 248 373 l 1,29,-1
 248 315 l 1,30,-1
 45 315 l 1,31,-1
 45 371 l 1,21,-1
564 185 m 1,32,-1
 564 269 l 1,33,-1
 490 185 l 1,34,-1
 564 185 l 1,32,-1
EndSplineSet
EndChar

StartChar: onehalf
Encoding: 189 189 204
Width: 784
Flags: HW
LayerCount: 2
Fore
SplineSet
472 -1 m 1,0,-1
 453 68 l 1,1,2
 460 77 460 77 475.5 93 c 128,-1,3
 491 109 491 109 510 129 c 128,-1,4
 529 149 529 149 549 170.5 c 128,-1,5
 569 192 569 192 585 213 c 0,6,7
 622 261.5625 622 261.5625 622 280 c 256,8,9
 622 291 622 291 615.5 297.5 c 128,-1,10
 609 304 609 304 597 304 c 128,-1,11
 585 304 585 304 580 302 c 1,12,-1
 562 249 l 1,13,-1
 445 294 l 1,14,15
 471 350 471 350 513 374.5 c 128,-1,16
 555 399 555 399 590 399 c 128,-1,17
 625 399 625 399 651 393.5 c 128,-1,18
 677 388 677 388 696.5 375 c 0,19,20
 740 346 740 346 740 284 c 0,21,22
 740 234.595238095 740 234.595238095 688 166.5 c 0,23,24
 649.574468085 116.180851064 649.574468085 116.180851064 612 88 c 1,25,-1
 679 88 l 1,26,-1
 703 149 l 1,27,-1
 755 149 l 1,28,-1
 739 -1 l 1,29,-1
 472 -1 l 1,0,-1
263 0 m 1,30,-1
 138 0 l 1,31,-1
 135 13 l 1,32,-1
 453 691 l 1,33,-1
 581 691 l 1,34,-1
 580 677 l 1,35,-1
 263 0 l 1,30,-1
45 371 m 1,36,-1
 91 378 l 1,37,-1
 91 608 l 1,38,-1
 37 600 l 1,39,-1
 29 666 l 1,40,-1
 193 714 l 1,41,-1
 206 702 l 1,42,-1
 206 381 l 1,43,-1
 244 373 l 1,44,-1
 244 315 l 1,45,-1
 45 315 l 1,46,-1
 45 371 l 1,36,-1
EndSplineSet
EndChar

StartChar: threequarters
Encoding: 190 190 205
Width: 805
Flags: HW
LayerCount: 2
Fore
SplineSet
317 0 m 1,0,-1
 192 0 l 1,1,-1
 189 13 l 1,2,-1
 507 691 l 1,3,-1
 635 691 l 1,4,-1
 634 677 l 1,5,-1
 317 0 l 1,0,-1
771 101 m 1,6,-1
 726 101 l 1,7,-1
 726 66 l 1,8,-1
 772 58 l 1,9,-1
 772 0 l 1,10,-1
 532 0 l 1,11,-1
 526 49 l 1,12,-1
 610 63 l 1,13,-1
 610 101 l 1,14,-1
 440 101 l 1,15,-1
 440 181 l 1,16,-1
 617 400 l 1,17,-1
 726 400 l 1,18,-1
 726 185 l 1,19,-1
 771 185 l 1,20,-1
 771 101 l 1,6,-1
143 554 m 1,21,-1
 158 553 l 1,22,23
 215 553 215 553 215 589 c 0,24,25
 215 601 215 601 205.5 611 c 128,-1,26
 196 621 196 621 181 621 c 0,27,28
 164 621 164 621 152 615 c 1,29,-1
 134 565 l 1,30,-1
 26 605 l 1,31,32
 42.8169868554 657.319514661 42.8169868554 657.319514661 92 687.5 c 0,33,34
 136.814814815 715 136.814814815 715 191 715 c 0,35,36
 289.285714286 715 289.285714286 715 320.5 658 c 0,37,38
 332 637 332 637 332 608 c 128,-1,39
 332 579 332 579 319 555.5 c 128,-1,40
 306 532 306 532 283 523 c 1,41,42
 309.746268657 506.28358209 309.746268657 506.28358209 318.373134328 496.641791045 c 0,43,44
 339 473.588235294 339 473.588235294 339 440.794117647 c 128,-1,45
 339 408 339 408 326 384 c 128,-1,46
 313 360 313 360 290.5 344 c 0,47,48
 246.90625 313 246.90625 313 183.953125 313 c 0,49,50
 90.3333333333 313 90.3333333333 313 37 363 c 1,51,-1
 94 444 l 1,52,53
 114 425 114 425 136 416 c 128,-1,54
 158 407 158 407 172.5 407 c 128,-1,55
 187 407 187 407 202 415 c 128,-1,56
 217 423 217 423 217 443 c 256,57,58
 217 463 217 463 204.5 472.5 c 128,-1,59
 192 482 192 482 162 482 c 1,60,-1
 143 481 l 1,61,-1
 143 554 l 1,21,-1
610 185 m 1,62,-1
 610 269 l 1,63,-1
 536 185 l 1,64,-1
 610 185 l 1,62,-1
EndSplineSet
EndChar

StartChar: onesuperior
Encoding: 185 185 206
Width: 260
Flags: HW
LayerCount: 2
Fore
SplineSet
46 447 m 1,0,-1
 84 455 l 1,1,-1
 84 652 l 1,2,-1
 35 644 l 1,3,-1
 26 689 l 1,4,-1
 175 727 l 1,5,-1
 192 715 l 1,6,-1
 189 667 l 1,7,-1
 189 458 l 1,8,-1
 226 449 l 1,9,-1
 226 402 l 1,10,-1
 49 402 l 1,11,-1
 46 447 l 1,0,-1
EndSplineSet
EndChar
